<?xml version="1.0" standalone="no"?>
<!DOCTYPE svg PUBLIC "-//W3C//DTD SVG 1.1//EN" "http://www.w3.org/Graphics/SVG/1.1/DTD/svg11.dtd" >
<svg xmlns="http://www.w3.org/2000/svg">
<metadata>Generated by IcoMoon</metadata>
<defs>
<font id="Unified_Hardware_Icons" horiz-adv-x="1024">
<font-face units-per-em="1024" ascent="960" descent="-64" />
<missing-glyph horiz-adv-x="1024" />
<glyph unicode="&#x20;" horiz-adv-x="512" d="" />
<glyph unicode="&#xe900;" glyph-name="Caution" d="M512 726.756l334.222-578.844h-668.444l334.222 578.844zM512 790.756c-7.111 0-14.222-2.844-18.489-9.956l-371.2-644.267c-8.533-14.222 1.422-31.289 18.489-31.289h743.822c17.067 0 27.022 17.067 18.489 31.289l-372.622 644.267c-4.267 7.111-11.378 9.956-18.489 9.956v0zM546.133 236.089c0-19.637-15.919-35.556-35.556-35.556s-35.556 15.919-35.556 35.556c0 19.637 15.919 35.556 35.556 35.556s35.556-15.919 35.556-35.556zM462.222 517.689l24.178-197.689c1.422-12.8 12.8-22.756 25.6-22.756v0c12.8 0 24.178 9.956 25.6 22.756l25.6 197.689c4.267 29.867-19.911 56.889-49.778 56.889v0c-32.711 0-55.467-27.022-51.2-56.889z" />
<glyph unicode="&#xe901;" glyph-name="Insert-Card" d="M679.822 905.956h-341.333c-8.533 0-14.222-5.689-14.222-14.222v-39.822c0-8.533 5.689-14.222 14.222-14.222h341.333c8.533 0 14.222 5.689 14.222 14.222v39.822c0 7.111-5.689 14.222-14.222 14.222zM846.222 772.267l-106.667-184.889 24.178-14.222 68.267 118.044v-411.022h28.444v411.022l66.844-118.044 25.6 14.222zM516.267 746.667h78.222v-83.911h-78.222v83.911zM665.6 432.356v348.444c0 15.644-12.8 28.444-28.444 28.444h-256c-15.644 0-28.444-12.8-28.444-28.444v-331.378c0 0-1.422 0-1.422 0-27.022 0-49.778-22.756-49.778-49.778v-207.644c0-18.489 7.111-36.978 19.911-49.778l68.267-73.956c7.111-8.533 11.378-18.489 11.378-29.867v-81.067h213.333v99.556c0 28.444 5.689 58.311 15.644 85.333l54.044 149.333c8.533 24.178 9.956 51.2 1.422 76.8l-19.911 64zM379.733 780.8h256v-389.689h-14.222v105.244c0 29.867-24.178 54.044-54.044 54.044s-54.044-24.178-54.044-54.044v-105.244h-133.689v389.689zM514.844 337.067c0-11.378-9.956-21.333-21.333-21.333s-21.333 9.956-21.333 21.333v25.6h42.667v-25.6zM399.644 361.244h42.667v-25.6c0-11.378-9.956-21.333-21.333-21.333s-21.333 9.956-21.333 21.333v25.6zM328.533 399.644c0 11.378 9.956 21.333 21.333 21.333 0 0 1.422 0 1.422 0v-29.867c0-12.8 8.533-22.756 19.911-27.022v-27.022c0-11.378-9.956-21.333-21.333-21.333s-21.333 9.956-21.333 21.333v62.578zM657.067 300.089l-55.467-150.756c-11.378-29.867-17.067-62.578-17.067-95.289v-71.111h-156.444v52.622c0 18.489-7.111 36.978-19.911 49.778l-66.844 76.8c-8.533 8.533-12.8 19.911-12.8 31.289v99.556c7.111-2.844 14.222-5.689 21.333-5.689 14.222 0 27.022 5.689 35.556 15.644 8.533-9.956 21.333-15.644 35.556-15.644s27.022 5.689 35.556 15.644c8.533-8.533 18.489-12.8 29.867-14.222l-9.956-11.378c-18.489-18.489-28.444-41.244-28.444-66.844v-61.156h28.444v61.156c0 18.489 7.111 34.133 19.911 46.933l22.756 22.756c15.644 15.644 24.178 35.556 24.178 56.889v160.711c0 14.222 11.378 25.6 25.6 25.6s25.6-11.378 25.6-25.6v-186.311h28.444v52.622h14.222c7.111 0 14.222 2.844 18.489 7.111l2.844-9.956c5.689-21.333 5.689-41.244-1.422-61.156z" />
<glyph unicode="&#xe902;" glyph-name="USB" d="M911.644 476.444l-56.889 25.6v-34.133h-519.111c12.8 11.378 25.6 24.178 36.978 36.978 15.644 17.067 29.867 34.133 39.822 44.089 12.8 14.222 24.178 21.333 31.289 25.6 4.267 2.844 7.111 2.844 8.533 4.267 0 0 1.422 0 1.422 0h85.333c7.111-22.756 28.444-39.822 54.044-39.822 31.289 0 56.889 25.6 56.889 56.889s-25.6 56.889-56.889 56.889c-27.022 0-48.356-18.489-54.044-42.667h-88.178c0 0-1.422 0-1.422 0-46.933-11.378-71.111-58.311-103.822-89.6-15.644-15.644-34.133-27.022-52.622-39.822-5.689-4.267-15.644-8.533-24.178-12.8h-44.089c-8.533 39.822-42.667 68.267-83.911 68.267-46.933 0-85.333-38.4-85.333-85.333s38.4-85.333 85.333-85.333c41.244 0 76.8 29.867 83.911 68.267 0 0 164.978 0 166.4 0 17.067 0 39.822-15.644 52.622-24.178 27.022-18.489 44.089-44.089 64-68.267 19.911-25.6 45.511-56.889 81.067-58.311 5.689 0 76.8 1.422 76.8 0v-39.822h116.622v116.622h-116.622v-45.511h-82.489c-9.956 7.111-36.978 28.444-51.2 45.511-9.956 12.8-27.022 35.556-46.933 56.889-5.689 5.689-11.378 11.378-17.067 15.644h385.422v-34.133l113.778 51.2-55.467 27.022z" />
<glyph unicode="&#xe903;" glyph-name="Unlock" d="M679.822 728.178c-92.444 0-167.822-75.378-167.822-167.822v-55.467h-307.2c-15.644 0-28.444-12.8-28.444-28.444v-280.178c0-15.644 12.8-28.444 28.444-28.444h391.111c15.644 0 28.444 12.8 28.444 28.444v280.178c0 15.644-12.8 28.444-28.444 28.444h-28.444v55.467c0 61.156 49.778 112.356 112.356 112.356 61.156 0 112.356-49.778 112.356-112.356v-55.467h55.467v55.467c0 92.444-75.378 167.822-167.822 167.822z" />
<glyph unicode="&#xe904;" d="M140.8 126.578l371.2 642.844 371.2-642.844z" />
<glyph unicode="&#xe905;" d="M512 726.756l334.222-578.844h-668.444l334.222 578.844zM512 790.756c-7.111 0-14.222-2.844-18.489-9.956l-371.2-644.267c-8.533-14.222 1.422-31.289 18.489-31.289h743.822c17.067 0 27.022 17.067 18.489 31.289l-372.622 644.267c-4.267 7.111-11.378 9.956-18.489 9.956v0z" />
<glyph unicode="&#xe906;" d="M546.133 236.089c0-19.637-15.919-35.556-35.556-35.556s-35.556 15.919-35.556 35.556c0 19.637 15.919 35.556 35.556 35.556s35.556-15.919 35.556-35.556z" />
<glyph unicode="&#xe907;" d="M462.222 517.689l24.178-197.689c1.422-12.8 12.8-22.756 25.6-22.756v0c12.8 0 24.178 9.956 25.6 22.756l25.6 197.689c4.267 29.867-19.911 56.889-49.778 56.889v0c-32.711 0-55.467-27.022-51.2-56.889z" />
<glyph unicode="&#xe908;" glyph-name="Time-Remaining" d="M512 678.4c126.578 0 230.4-103.822 230.4-230.4s-103.822-230.4-230.4-230.4c-128 0-230.4 103.822-230.4 230.4s102.4 230.4 230.4 230.4zM512 736.711c-159.289 0-288.711-129.422-288.711-288.711s129.422-288.711 288.711-288.711c159.289 0 288.711 129.422 288.711 288.711s-129.422 288.711-288.711 288.711v0zM597.333 332.8c-7.111 0-15.644 2.844-21.333 8.533l-85.333 85.333c-5.689 5.689-8.533 12.8-8.533 21.333v140.8c0 15.644 12.8 29.867 29.867 29.867s29.867-12.8 29.867-29.867v-128l76.8-76.8c11.378-11.378 11.378-29.867 0-41.244-5.689-7.111-12.8-9.956-21.333-9.956z" />
<glyph unicode="&#xe909;" glyph-name="Stop" d="M706.844 233.244h-389.689c-11.378 0-19.911 8.533-19.911 19.911v389.689c0 11.378 8.533 19.911 19.911 19.911h391.111c11.378 0 19.911-8.533 19.911-19.911v-391.111c-1.422-9.956-9.956-18.489-21.333-18.489z" />
<glyph unicode="&#xe90a;" glyph-name="Non--contact-Card" d="M772.267 466.489c-2.844 22.756-12.8 52.622-41.244 69.689-18.489 9.956-38.4 11.378-52.622 1.422-1.422 1.422-2.844 2.844-2.844 2.844-27.022 27.022-44.089 41.244-54.044 49.778l-5.689 4.267c-11.378 9.956-24.178 15.644-36.978 14.222-11.378-1.422-24.178-7.111-34.133-18.489l-115.2 108.089c-8.533 8.533-22.756 8.533-31.289-1.422l-135.111-143.644c-8.533-8.533-8.533-22.756 1.422-31.289l152.178-143.644c-2.844-4.267-4.267-8.533-5.689-12.8-1.422-11.378 4.267-24.178 18.489-38.4l1.422-1.422c22.756-22.756 71.111-68.267 92.444-89.6 41.244-42.667 75.378-68.267 120.889-88.178 21.333-8.533 46.933-22.756 64-31.289 7.111-4.267 14.222-7.111 17.067-8.533 5.689-2.844 17.067-8.533 31.289-21.333l25.6-25.6c2.844-1.422 5.689-2.844 8.533-2.844s5.689 1.422 8.533 2.844l99.556 105.244c4.267 4.267 4.267 9.956 0 14.222 0 0-17.067 21.333-25.6 31.289-9.956 12.8-11.378 17.067-12.8 28.444s-2.844 25.6-4.267 42.667c-4.267 35.556-8.533 79.644-17.067 116.622-7.111 28.444-17.067 46.933-32.711 56.889-11.378 9.956-22.756 11.378-34.133 9.956zM432.356 393.956l-156.444 146.489 136.533 143.644 123.733-116.622 64-61.156c1.422-1.422 9.956-11.378 14.222-24.178 1.422-5.689 4.267-14.222 5.689-27.022l-86.756-92.444c-4.267 4.267-8.533 7.111-12.8 9.956-27.022 25.6-61.156 32.711-88.178 21.333v0zM624.356 429.511c4.267-28.444 8.533-61.156 11.378-91.022 1.422-7.111 1.422-8.533-4.267-14.222-7.111-5.689-17.067-14.222-25.6-19.911-2.844-1.422-5.689-4.267-14.222 4.267-9.956 9.956-27.022 27.022-42.667 41.244l75.378 79.644zM775.111 396.8c0 0 0 24.178-1.422 46.933v0 0 0c7.111 1.422 14.222 0 18.489-2.844 9.956-5.689 17.067-19.911 22.756-42.667 8.533-35.556 12.8-78.222 15.644-113.778 1.422-17.067 2.844-32.711 5.689-44.089 1.422-12.8 4.267-21.333 17.067-38.4 4.267-5.689 12.8-17.067 18.489-24.178l-85.333-89.6-17.067 17.067c-15.644 15.644-31.289 22.756-36.978 25.6-2.844 1.422-9.956 4.267-17.067 8.533-17.067 8.533-44.089 22.756-65.422 31.289-42.667 18.489-75.378 42.667-113.778 83.911-19.911 21.333-69.689 68.267-92.444 91.022l-1.422 1.422c-12.8 11.378-12.8 17.067-12.8 18.489s2.844 4.267 7.111 7.111c14.222 8.533 41.244 8.533 68.267-12.8 19.911-17.067 55.467-51.2 69.689-65.422 18.489-19.911 35.556-12.8 42.667-7.111 8.533 7.111 19.911 14.222 27.022 21.333 14.222 11.378 12.8 24.178 12.8 34.133-5.689 54.044-17.067 128-22.756 149.333-5.689 17.067-15.644 29.867-19.911 34.133l-56.889 52.622c7.111 7.111 14.222 9.956 19.911 11.378 7.111 0 12.8-2.844 19.911-8.533l5.689-4.267c9.956-9.956 25.6-22.756 52.622-49.778s28.444-54.044 28.444-66.844v-4.267c0-11.378 1.422-41.244 1.422-41.244h22.756c0 0 0 29.867-1.422 41.244v2.844c0 11.378 0 35.556-17.067 62.578v0c8.533 2.844 18.489 2.844 28.444-2.844 25.6-14.222 31.289-48.356 31.289-72.533 1.422-24.178 1.422-46.933 1.422-46.933l24.178-2.844zM332.8 812.089c-48.356-7.111-92.444-29.867-126.578-65.422s-54.044-81.067-58.311-130.844l-22.756 2.844c4.267 54.044 27.022 105.244 64 145.067s86.756 65.422 140.8 72.533l2.844-24.178zM339.911 753.778c-35.556-4.267-66.844-21.333-92.444-48.356-24.178-25.6-39.822-59.733-42.667-95.289l-22.756 1.422c2.844 39.822 19.911 79.644 48.356 108.089 28.444 29.867 65.422 48.356 105.244 54.044l4.267-19.911zM348.444 694.044c-21.333-2.844-41.244-12.8-56.889-29.867-15.644-15.644-24.178-35.556-25.6-58.311l-22.756 1.422c1.422 27.022 12.8 52.622 31.289 72.533s42.667 32.711 69.689 35.556l4.267-21.333z" />
<glyph unicode="&#xe90b;" glyph-name="Power" d="M513.422 192c-128 0-233.244 103.822-233.244 231.822 0 66.844 28.444 129.422 76.8 173.511 4.267 4.267 9.956 5.689 15.644 5.689 7.111 0 12.8-2.844 17.067-7.111 8.533-9.956 7.111-24.178-1.422-32.711-39.822-35.556-62.578-86.756-62.578-139.378 0-102.4 83.911-186.311 187.733-186.311s186.311 83.911 186.311 187.733c0 52.622-22.756 103.822-62.578 139.378-9.956 8.533-9.956 22.756-1.422 32.711 4.267 4.267 9.956 7.111 17.067 7.111 5.689 0 11.378-1.422 15.644-5.689 49.778-44.089 78.222-106.667 78.222-173.511-1.422-128-105.244-231.822-233.244-233.244zM512 449.422c-12.8 0-22.756 9.956-22.756 22.756l-1.422 209.067c0 12.8 9.956 22.756 22.756 22.756s22.756-9.956 22.756-22.756l1.422-209.067c0-12.8-9.956-22.756-22.756-22.756z" />
<glyph unicode="&#xe90c;" glyph-name="Start" d="M755.2 438.044c9.956 5.689 9.956 14.222 0 19.911l-419.556 241.778c-9.956 5.689-17.067 1.422-17.067-9.956v-483.556c0-11.378 8.533-15.644 17.067-9.956l419.556 241.778z" />
<glyph unicode="&#xe90d;" glyph-name="Pause" d="M725.333 210.489h-152.178c-5.689 0-9.956 4.267-9.956 9.956v455.111c0 5.689 4.267 9.956 9.956 9.956h152.178c5.689 0 9.956-4.267 9.956-9.956v-455.111c0-5.689-4.267-9.956-9.956-9.956zM450.844 210.489h-152.178c-5.689 0-9.956 4.267-9.956 9.956v455.111c0 5.689 4.267 9.956 9.956 9.956h150.756c5.689 0 9.956-4.267 9.956-9.956v-455.111c1.422-5.689-2.844-9.956-8.533-9.956z" />
<glyph unicode="&#xe90e;" glyph-name="Silence" d="M350.779 310.072l93.169 93.883 20.19-20.036-93.169-93.883-20.19 20.036zM697.294 657.761l68.123 68.646 20.19-20.036-68.123-68.646-20.19 20.036zM486.4 406.756l-19.911 19.911 24.178 22.756-51.2 51.2 19.911 19.911 51.2-51.2 49.778 51.2 19.911-19.911-51.2-49.778 24.178-24.178-19.911-19.911-22.756 24.178zM556.066 384.172l20.036 20.19 93.883-93.169-20.036-20.19-93.883 93.169zM234.616 704.622l20.031 20.196 68.665-68.104-20.031-20.196-68.665 68.104zM512 140.8c-32.711 0-59.733 27.022-61.156 59.733 0 15.644 7.111 31.289 17.067 42.667h-145.067l-66.844-69.689-19.911 19.911c0 0 35.556 35.556 49.778 49.778h-58.311l8.533 19.911c1.422 1.422 82.489 179.2 110.933 247.467 8.533 18.489 18.489 35.556 31.289 51.2l-55.467 54.044 19.911 19.911 55.467-54.044c27.022 22.756 61.156 36.978 98.133 38.4v135.111h28.444v-135.111c36.978-2.844 69.689-15.644 98.133-36.978l54.044 54.044 19.911-19.911-52.622-54.044c14.222-15.644 24.178-32.711 32.711-52.622 28.444-68.267 110.933-244.622 112.356-246.044l8.533-19.911h-59.733l49.778-49.778-19.911-19.911-71.111 69.689h-142.222c11.378-11.378 18.489-27.022 18.489-42.667 0-34.133-27.022-61.156-61.156-61.156zM752.356 273.067c-25.6 54.044-81.067 174.933-103.822 227.556-7.111 15.644-15.644 31.289-27.022 42.667l-19.911-21.333-19.911 19.911 19.911 19.911c-25.6 19.911-56.889 29.867-91.022 29.867-35.556 0-66.844-11.378-92.444-31.289l18.489-18.489-19.911-19.911-18.489 19.911c-9.956-12.8-18.489-27.022-25.6-41.244-22.756-52.622-76.8-173.511-100.978-228.978h42.667l15.644 15.644 15.644-15.644 329.956 1.422 15.644 15.644 15.644-15.644h45.511z" />
<glyph unicode="&#xe90f;" glyph-name="Lock" d="M708.267 503.467h-28.444v55.467c0 92.444-75.378 167.822-167.822 167.822s-167.822-75.378-167.822-167.822v-55.467h-28.444c-15.644 0-28.444-12.8-28.444-28.444v-280.178c0-15.644 12.8-28.444 28.444-28.444h391.111c15.644 0 28.444 12.8 28.444 28.444v281.6c0 14.222-12.8 27.022-27.022 27.022zM624.356 503.467h-224.711v55.467c0 61.156 49.778 112.356 112.356 112.356 61.156 0 112.356-49.778 112.356-112.356v-55.467z" />
<glyph unicode="&#xe910;" glyph-name="Input-Output" d="M952.889 452.267l-78.222 45.511c-2.844 1.422-5.689 0-5.689-2.844v-21.333c0-1.422-1.422-4.267-4.267-4.267h-172.089c-1.422 0-4.267 1.422-4.267 2.844-12.8 163.556-152.178 291.556-320 285.867-157.867-5.689-288.711-132.267-298.667-290.133-11.378-180.622 132.267-329.956 310.044-329.956 163.556 0 297.244 126.578 310.044 287.289 0 1.422 1.422 2.844 4.267 2.844h173.511c1.422 0 4.267-1.422 4.267-4.267v-19.911c0-2.844 2.844-4.267 5.689-2.844l78.222 45.511c0 0 0 4.267-2.844 5.689zM386.844 445.156l78.222-45.511c2.844-1.422 5.689 0 5.689 2.844v19.911c0 1.422 1.422 4.267 4.267 4.267h170.667c2.844 0 4.267-1.422 4.267-4.267-12.8-145.067-140.8-257.422-291.556-244.622-126.578 9.956-230.4 110.933-244.622 237.511-21.333 164.978 106.667 302.933 265.956 302.933 140.8 0 256-108.089 268.8-244.622 0-2.844-1.422-4.267-4.267-4.267h-170.667c-1.422 0-4.267 1.422-4.267 4.267v21.333c0 2.844-2.844 4.267-5.689 2.844l-78.222-45.511c-1.422-1.422-1.422-5.689 1.422-7.111z" />
<glyph unicode="&#xe911;" glyph-name="Information" d="M686.933 463.644h-64v64c0 15.644-12.8 28.444-28.444 28.444s-28.444-12.8-28.444-28.444v-64h-64c-15.644 0-28.444-12.8-28.444-28.444s12.8-28.444 28.444-28.444h64v-64c0-15.644 12.8-28.444 28.444-28.444s28.444 12.8 28.444 28.444v64h64c15.644 0 28.444 12.8 28.444 28.444s-12.8 28.444-28.444 28.444zM413.867 526.222c-15.644 0-28.444-12.8-28.444-28.444v-155.022c0-15.644 12.8-28.444 28.444-28.444s28.444 12.8 28.444 28.444v155.022c0 15.644-12.8 28.444-28.444 28.444zM413.867 607.289c-15.644 0-28.444-12.8-28.444-28.444v-11.378c0-15.644 12.8-28.444 28.444-28.444s28.444 12.8 28.444 28.444v11.378c0 15.644-12.8 28.444-28.444 28.444zM526.222 196.267c-139.378 0-254.578 44.089-318.578 119.467-4.267 4.267-5.689 9.956-5.689 15.644v258.844c0 7.111 2.844 12.8 7.111 17.067 64 59.733 166.4 92.444 287.289 92.444 139.378 0 254.578-44.089 318.578-119.467 4.267-4.267 5.689-9.956 5.689-15.644v-258.844c0-7.111-2.844-12.8-7.111-17.067-64-59.733-166.4-92.444-287.289-92.444zM250.311 339.911c55.467-61.156 155.022-95.289 275.911-95.289 103.822 0 190.578 25.6 247.467 72.533v238.933c-55.467 61.156-155.022 95.289-275.911 95.289-103.822 0-190.578-25.6-247.467-72.533v-238.933zM797.867 305.778v0 0z" />
<glyph unicode="&#xe912;" glyph-name="Help" d="M526.222 196.267c-139.378 0-254.578 44.089-318.578 119.467-4.267 4.267-5.689 9.956-5.689 15.644v258.844c0 7.111 2.844 12.8 7.111 17.067 64 59.733 166.4 92.444 287.289 92.444 139.378 0 254.578-44.089 318.578-119.467 4.267-4.267 5.689-9.956 5.689-15.644v-258.844c0-7.111-2.844-12.8-7.111-17.067-64-59.733-166.4-92.444-287.289-92.444zM250.311 339.911c55.467-61.156 155.022-95.289 275.911-95.289 103.822 0 190.578 25.6 247.467 72.533v238.933c-55.467 61.156-155.022 95.289-275.911 95.289-103.822 0-190.578-25.6-247.467-72.533v-238.933zM797.867 305.778v0 0zM577.422 465.067l-32.711-31.289c-12.8-12.8-17.067-19.911-17.067-38.4 0-4.267 1.422-11.378 1.422-17.067 0-4.267-1.422-5.689-5.689-5.689h-35.556c-5.689 0-9.956 2.844-11.378 7.111-1.422 5.689-4.267 17.067-4.267 28.444 0 21.333 7.111 34.133 22.756 49.778l32.711 29.867c9.956 9.956 19.911 21.333 19.911 34.133 0 21.333-17.067 31.289-36.978 31.289-12.8 0-32.711-5.689-46.933-14.222-5.689-2.844-8.533-2.844-11.378 2.844l-11.378 28.444c-2.844 5.689-1.422 9.956 4.267 12.8 22.756 12.8 51.2 21.333 76.8 21.333 45.511 0 85.333-28.444 85.333-76.8 0-24.178-12.8-45.511-29.867-62.578zM503.467 292.978c-15.644 0-32.711 11.378-32.711 29.867 0 19.911 17.067 31.289 32.711 31.289 17.067 0 32.711-11.378 32.711-31.289s-17.067-29.867-32.711-29.867z" />
<glyph unicode="&#xe913;" glyph-name="Ethernet" d="M884.622 433.778v32.711h-351.289v62.578h116.622v241.778h-275.911v-240.356h116.622v-62.578h-351.289v-34.133h143.644v-68.267h-122.311v-240.356h275.911v241.778h-109.511v66.844h378.311v-68.267h-116.622v-240.356h275.911v241.778h-116.622v66.844h136.533zM416.711 726.756h189.156v-155.022h-189.156v155.022zM392.533 169.244h-189.156v155.022h189.156v-155.022zM820.622 169.244h-189.156v155.022h189.156v-155.022z" />
<glyph unicode="&#xe914;" glyph-name="Bolus" d="M220.444 667.022l176.356-219.022-176.356-219.022zM423.822 667.022l176.356-219.022-176.356-219.022zM627.2 667.022l176.356-219.022-176.356-219.022z" />
<glyph unicode="&#xe915;" glyph-name="Battery" d="M258.844 574.578h108.089v-253.156h-108.089v253.156zM366.933 574.578h108.089v-253.156h-108.089v253.156zM476.444 574.578h108.089v-253.156h-108.089v253.156zM584.533 574.578h108.089v-253.156h-108.089v253.156zM729.6 230.4h-507.733c-29.867 0-54.044 24.178-54.044 54.044v327.111c0 29.867 24.178 54.044 54.044 54.044h506.311c29.867 0 54.044-24.178 54.044-54.044v-54.044h18.489c29.867 0 54.044-24.178 54.044-54.044v-108.089c0-29.867-24.178-54.044-54.044-54.044h-18.489v-54.044c1.422-32.711-22.756-56.889-52.622-56.889zM221.867 628.622c-9.956 0-18.489-8.533-18.489-18.489v-325.689c0-9.956 8.533-18.489 18.489-18.489h506.311c9.956 0 18.489 8.533 18.489 18.489v91.022h54.044c9.956 0 18.489 8.533 18.489 18.489v108.089c0 9.956-8.533 18.489-18.489 18.489h-54.044v91.022c0 9.956-8.533 18.489-18.489 18.489h-506.311z" />
<glyph unicode="&#xe916;" glyph-name="Arrow-Up-Alt" d="M762.311 267.378c0-14.222-7.111-28.444-18.489-35.556-11.378-8.533-25.6-11.378-39.822-5.689l-192 64-192-65.422c-14.222-4.267-28.444-2.844-39.822 5.689-18.489 12.8-24.178 39.822-12.8 58.311l210.489 361.244c9.956 18.489 25.6 22.756 35.556 22.756s24.178-4.267 35.556-22.756l210.489-361.244c1.422-5.689 2.844-14.222 2.844-21.333z" />
<glyph unicode="&#xe917;" glyph-name="Arrow-Right-Alt" d="M331.378 197.689c-14.222 0-28.444 7.111-35.556 18.489-8.533 11.378-11.378 25.6-5.689 39.822l64 192-65.422 192c-4.267 14.222-2.844 28.444 5.689 39.822 12.8 18.489 39.822 24.178 58.311 12.8l361.244-210.489c18.489-9.956 22.756-25.6 22.756-35.556s-4.267-24.178-22.756-35.556l-359.822-207.644c-7.111-4.267-15.644-5.689-22.756-5.689z" />
<glyph unicode="&#xe918;" glyph-name="Arrow-Left-Alt" d="M692.622 698.311c14.222 0 28.444-7.111 35.556-18.489 8.533-11.378 11.378-25.6 5.689-39.822l-64-192 65.422-192c4.267-14.222 2.844-28.444-5.689-39.822-12.8-18.489-39.822-24.178-58.311-12.8l-362.667 209.067c-18.489 9.956-22.756 25.6-22.756 35.556s4.267 24.178 22.756 35.556l361.244 210.489c7.111 2.844 15.644 4.267 22.756 4.267z" />
<glyph unicode="&#xe919;" glyph-name="Arrow-Down-Alt" d="M261.689 628.622c0 14.222 7.111 28.444 18.489 35.556 11.378 8.533 25.6 11.378 39.822 5.689l192-64 192 65.422c14.222 4.267 28.444 2.844 39.822-5.689 18.489-12.8 24.178-39.822 12.8-58.311l-209.067-362.667c-9.956-18.489-25.6-22.756-35.556-22.756s-24.178 4.267-35.556 22.756l-209.067 361.244c-4.267 7.111-5.689 15.644-5.689 22.756z" />
<glyph unicode="&#xe91a;" glyph-name="Arrow-Up" d="M556.089 268.8v250.311l120.889-120.889c18.489-18.489 48.356-18.489 65.422 0 18.489 18.489 18.489 48.356 0 65.422l-196.267 197.689c-18.489 18.489-46.933 18.489-65.422 0l-199.111-194.844c-9.956-8.533-14.222-21.333-14.222-32.711s4.267-24.178 12.8-32.711c18.489-18.489 46.933-18.489 65.422 0l115.2 113.778v-244.622c0-25.6 21.333-46.933 46.933-46.933s48.356 18.489 48.356 45.511z" />
<glyph unicode="&#xe91b;" glyph-name="Arrow-Right" d="M332.8 403.911h250.311l-120.889-120.889c-18.489-18.489-18.489-48.356 0-65.422 18.489-18.489 48.356-18.489 65.422 0l197.689 196.267c18.489 18.489 18.489 46.933 0 65.422l-194.844 199.111c-8.533 9.956-21.333 14.222-32.711 14.222s-24.178-4.267-32.711-12.8c-18.489-18.489-18.489-46.933 0-65.422l113.778-115.2h-246.044c-25.6 0-46.933-21.333-46.933-46.933s19.911-48.356 46.933-48.356z" />
<glyph unicode="&#xe91c;" glyph-name="Arrow-Left" d="M691.2 492.089h-250.311l120.889 120.889c18.489 18.489 18.489 48.356 0 65.422-18.489 18.489-48.356 18.489-65.422 0l-197.689-196.267c-18.489-18.489-18.489-46.933 0-65.422l194.844-199.111c8.533-9.956 21.333-14.222 32.711-14.222s24.178 4.267 32.711 12.8c18.489 18.489 18.489 46.933 0 65.422l-113.778 115.2h244.622c25.6 0 46.933 21.333 46.933 46.933s-18.489 48.356-45.511 48.356z" />
<glyph unicode="&#xe91d;" glyph-name="Arrow-Down" d="M467.911 627.2v-250.311l-120.889 120.889c-18.489 18.489-48.356 18.489-65.422 0-18.489-18.489-18.489-48.356 0-65.422l196.267-197.689c18.489-18.489 46.933-18.489 65.422 0l199.111 194.844c9.956 8.533 14.222 21.333 14.222 32.711s-4.267 24.178-12.8 32.711c-18.489 18.489-46.933 18.489-65.422 0l-115.2-113.778v246.044c0 25.6-21.333 46.933-46.933 46.933s-48.356-19.911-48.356-46.933z" />
<glyph unicode="&#xe91e;" glyph-name="Power-Plug" d="M564.622 199.111c-4.267 0-8.533 1.422-12.8 5.689l-75.378 73.956-35.556-35.556c-7.111-7.111-18.489-7.111-24.178 0l-32.711 31.289c-72.533 71.111-83.911 174.933-28.444 264.533l-82.489 81.067c-7.111 7.111-7.111 18.489 0 24.178l45.511 45.511c7.111 7.111 18.489 7.111 24.178 0l83.911-83.911c81.067 42.667 180.622 36.978 251.733-34.133l32.711-32.711c2.844-2.844 5.689-7.111 5.689-12.8 0-4.267-1.422-8.533-5.689-12.8l-38.4-38.4 75.378-73.956c7.111-7.111 7.111-18.489 0-24.178l-12.8-12.8c-7.111-7.111-18.489-7.111-24.178 0l-75.378 73.956-123.733-123.733 75.378-73.956c7.111-7.111 7.111-18.489 0-24.178l-12.8-12.8c-1.422-2.844-5.689-4.267-9.956-4.267z" />
</font>
</defs>
</svg>
