<!-- Generated by IcoMoon.io -->
<svg version="1.1" xmlns="http://www.w3.org/2000/svg" width="24" height="24" viewBox="0 0 24 24">
<title>alarm-bold</title>
<path d="M18.87 18.8l1.46 2.13-1.65 1.13-1.28-1.87c-1.48 1.13-3.355 1.81-5.39 1.81s-3.91-0.68-5.412-1.826l0.022 0.016-1.29 1.87-1.66-1.12 1.46-2.14c-1.327-1.558-2.135-3.595-2.135-5.82 0-4.971 4.029-9 9-9s9 4.029 9 9c0 2.225-0.808 4.262-2.146 5.833l0.011-0.013zM8.46 3.12c-0.791-0.71-1.841-1.144-2.994-1.144-2.48 0-4.49 2.010-4.49 4.49 0 1.152 0.434 2.203 1.147 2.998l-0.004-0.004c1.085-2.962 3.378-5.255 6.267-6.317l0.073-0.023zM21.88 9.46c0.71-0.791 1.144-1.841 1.144-2.994 0-2.48-2.010-4.49-4.49-4.49-1.152 0-2.203 0.434-2.998 1.147l0.004-0.004c2.962 1.085 5.255 3.378 6.317 6.267l0.023 0.073zM12.93 7h-2v5h-3v2h5z"></path>
</svg>
