<!-- Generated by IcoMoon.io -->
<svg version="1.1" xmlns="http://www.w3.org/2000/svg" width="24" height="24" viewBox="0 0 24 24">
<title>alert-bold-2</title>
<path d="M12 4v0c2.1 0 4.1 0.8 5.6 2.2 3.2 3.1 3.3 8.1 0.2 11.3-0.1 0.1-0.1 0.1-0.2 0.2-1.5 1.5-3.5 2.3-5.6 2.3-2.2 0-4.2-0.9-5.8-2.4-3-3.1-3-8 0-11.1 1.6-1.6 3.6-2.5 5.8-2.5zM12 2c-2.6 0-5.2 1-7.2 3.1-3.7 3.9-3.7 10 0 13.9 2 2 4.6 3.1 7.2 3.1 2.5 0 5-0.9 6.9-2.8 0.1-0.1 0.2-0.2 0.2-0.2 3.8-4 3.7-10.3-0.2-14.1-1.9-2.1-4.4-3-6.9-3v0z"></path>
<path d="M13 6h-2v7h2v-7zM12 14c-0.8 0-1.5 0.7-1.5 1.5s0.7 1.5 1.5 1.5 1.5-0.7 1.5-1.5c0-0.8-0.7-1.5-1.5-1.5z"></path>
</svg>
