<!-- Generated by IcoMoon.io -->
<svg version="1.1" xmlns="http://www.w3.org/2000/svg" width="24" height="24" viewBox="0 0 24 24">
<title>alert-bold</title>
<path d="M19.070 19.070c-1.796 1.737-4.247 2.807-6.947 2.807-5.523 0-10-4.477-10-10 0-2.7 1.070-5.151 2.81-6.95l-0.003 0.003c1.821-1.884 4.37-3.053 7.193-3.053 5.523 0 10 4.477 10 10 0 2.823-1.169 5.372-3.050 7.19l-0.003 0.003zM13 6h-2v7h2zM12 14c-0.828 0-1.5 0.672-1.5 1.5s0.672 1.5 1.5 1.5c0.828 0 1.5-0.672 1.5-1.5v0c0-0.828-0.672-1.5-1.5-1.5v0z"></path>
</svg>
