<!-- Generated by IcoMoon.io -->
<svg version="1.1" xmlns="http://www.w3.org/2000/svg" width="24" height="24" viewBox="0 0 24 24">
<title>analysis-bold</title>
<path d="M22.91 21.5l-7.6-7.6c1.049-1.34 1.682-3.050 1.682-4.908 0-4.418-3.582-8-8-8s-8 3.582-8 8c0 4.418 3.582 8 8 8 1.858 0 3.567-0.633 4.925-1.695l-0.018 0.013 7.6 7.6zM9 3c2.958 0.003 5.414 2.146 5.905 4.964l0.005 0.036h-2.41l-0.73 1-2.17-5.44-2.1 4.2-1.5-3-1.62 3.24h-1.29c0.496-2.854 2.952-4.997 5.91-5h0zM3.090 10h2.53l0.38-0.76 1.5 3 1.9-3.8 1.83 4.56 2.27-3h1.41c-0.511 2.839-2.962 4.965-5.91 4.965s-5.399-2.126-5.905-4.928l-0.005-0.036z"></path>
</svg>
