<?xml version="1.0" encoding="utf-8"?>
<!-- Generator: Adobe Illustrator 25.0.1, SVG Export Plug-In . SVG Version: 6.00 Build 0)  -->
<svg version="1.1" id="Symbol" xmlns="http://www.w3.org/2000/svg" xmlns:xlink="http://www.w3.org/1999/xlink" x="0px" y="0px"
	 viewBox="0 0 72 72" style="enable-background:new 0 0 72 72;" xml:space="preserve">
<g>
	<path d="M48.6,32.9H31l8.5-8.5c1.3-1.3,1.3-3.4,0-4.6c-1.3-1.3-3.4-1.3-4.6,0L21,33.6c-1.3,1.3-1.3,3.3,0,4.6l13.7,14
		c0.6,0.7,1.5,1,2.3,1c0.8,0,1.7-0.3,2.3-0.9c1.3-1.3,1.3-3.3,0-4.6l-8-8.1h17.2c1.8,0,3.3-1.5,3.3-3.3S50.5,32.9,48.6,32.9z"/>
</g>
</svg>
