<!-- Generated by IcoMoon.io -->
<svg version="1.1" xmlns="http://www.w3.org/2000/svg" width="24" height="24" viewBox="0 0 24 24">
<title>attachment-bold</title>
<path d="M6 20.5c-2.503-0.006-4.53-2.036-4.53-4.54 0-1.249 0.504-2.379 1.32-3.2l9.51-9.51c1.089-1.161 2.632-1.884 4.344-1.884 3.286 0 5.95 2.664 5.95 5.95 0 1.712-0.723 3.255-1.88 4.341l-0.003 0.003-8.21 8.25-1.41-1.41 8.26-8.26c0.716-0.715 1.159-1.703 1.159-2.795s-0.443-2.080-1.159-2.795l-0-0c-0.72-0.704-1.707-1.139-2.795-1.139s-2.075 0.434-2.796 1.139l0.001-0.001-9.52 9.52c-0.459 0.46-0.743 1.094-0.743 1.795s0.284 1.335 0.743 1.795l-0-0c0.466 0.445 1.098 0.719 1.795 0.719s1.329-0.274 1.796-0.72l-0.001 0.001 8.34-8.34c0.199-0.202 0.321-0.479 0.321-0.785s-0.123-0.583-0.321-0.785l0 0c-0.202-0.202-0.482-0.326-0.79-0.326s-0.588 0.125-0.79 0.326l-6.090 6.060-1.41-1.41 6.090-6.090c0.565-0.564 1.344-0.913 2.206-0.913 0.836 0 1.595 0.329 2.156 0.864l-0.001-0.001 0.060 0.060c0.564 0.564 0.913 1.344 0.913 2.205s-0.349 1.641-0.913 2.205l0-0-8.36 8.34c-0.816 0.822-1.945 1.33-3.194 1.33-0.016 0-0.032-0-0.048-0l0.002 0z"></path>
</svg>
