<!-- Generated by IcoMoon.io -->
<svg version="1.1" xmlns="http://www.w3.org/2000/svg" width="24" height="24" viewBox="0 0 24 24">
<title>battery-error-bold</title>
<path d="M10 5h2v10h-2v-10z"></path>
<path d="M12.5 17.5c0 0.828-0.672 1.5-1.5 1.5s-1.5-0.672-1.5-1.5c0-0.828 0.672-1.5 1.5-1.5s1.5 0.672 1.5 1.5z"></path>
<path d="M7 19h-3c-1.105 0-2-0.895-2-2v0-9c0-1.105 0.895-2 2-2v0h3v2h-3v9h3z"></path>
<path d="M18 19h-3v-2h3v-3h2v-3h-2v-3h-3v-2h3c1.105 0 2 0.895 2 2v0 1c1.105 0 2 0.895 2 2v0 3c0 1.105-0.895 2-2 2v0 1c0 1.105-0.895 2-2 2v0z"></path>
</svg>
