<?xml version="1.0" encoding="utf-8"?>
<!-- Generator: Adobe Illustrator 25.0.1, SVG Export Plug-In . SVG Version: 6.00 Build 0)  -->
<svg version="1.1" id="Symbol" xmlns="http://www.w3.org/2000/svg" xmlns:xlink="http://www.w3.org/1999/xlink" x="0px" y="0px"
	 viewBox="0 0 72 72" style="enable-background:new 0 0 72 72;" xml:space="preserve">
<g>
	<g>
		<rect x="18.2" y="27.1" width="7.6" height="17.8"/>
	</g>
	<g>
		<rect x="25.8" y="27.1" width="7.6" height="17.8"/>
	</g>
	<g>
		<rect x="33.5" y="27.1" width="7.6" height="17.8"/>
	</g>
	<g>
		<rect x="41.1" y="27.1" width="7.6" height="17.8"/>
	</g>
	<g>
		<g>
			<path d="M51.3,51.3H15.6c-2.1,0-3.8-1.7-3.8-3.8V24.5c0-2.1,1.7-3.8,3.8-3.8h35.6c2.1,0,3.8,1.7,3.8,3.8v3.8h1.3
				c2.1,0,3.8,1.7,3.8,3.8v7.6c0,2.1-1.7,3.8-3.8,3.8h-1.3v3.8C55.1,49.6,53.4,51.3,51.3,51.3z M15.6,23.3c-0.7,0-1.3,0.6-1.3,1.3
				v22.9c0,0.7,0.6,1.3,1.3,1.3h35.6c0.7,0,1.3-0.6,1.3-1.3v-6.4h3.8c0.7,0,1.3-0.6,1.3-1.3v-7.6c0-0.7-0.6-1.3-1.3-1.3h-3.8v-6.4
				c0-0.7-0.6-1.3-1.3-1.3H15.6z"/>
		</g>
	</g>
</g>
</svg>
