<!-- Generated by IcoMoon.io -->
<svg version="1.1" xmlns="http://www.w3.org/2000/svg" width="61" height="24" viewBox="0 0 61 24">
<title>bd-logo-bold</title>
<path d="M37.983 20.62h-6.365c-0.001 0-0.001 0-0.002 0-0.753 0-1.364-0.611-1.364-1.364 0-0.010 0-0.019 0-0.029l-0 0.001v-14.402c-0-0.007-0-0.015-0-0.024 0-0.741 0.601-1.342 1.342-1.342 0.008 0 0.017 0 0.025 0l-0.001-0h5.952c3.272 0 5.23 1.903 5.23 4.376 0.011 0.107 0.018 0.23 0.018 0.355 0 1.427-0.842 2.657-2.057 3.22l-0.022 0.009c1.784 0.48 3.076 2.083 3.076 3.988 0 0.104-0.004 0.207-0.011 0.309l0.001-0.014c-0.125 2.762-2.395 4.954-5.177 4.954-0.227 0-0.451-0.015-0.671-0.043l0.026 0.003zM37.452 5.987h-4.443v4.328h4.443c1.762 0 2.591-0.98 2.591-2.165 0-1.21-0.778-2.163-2.591-2.163zM38.082 12.814h-5.073v5.257h5.073c0.095 0.012 0.206 0.019 0.318 0.019 1.462 0 2.648-1.185 2.648-2.648s-1.185-2.648-2.648-2.648c-0.112 0-0.222 0.007-0.331 0.020l0.013-0.001zM51.738 20.621h-4.225c-0.008 0-0.018 0-0.028 0-0.753 0-1.364-0.61-1.364-1.364 0-0.010 0-0.020 0-0.029l-0 0.001v-14.402c0-0.001 0-0.001 0-0.002 0-0.753 0.61-1.363 1.363-1.363 0.010 0 0.019 0 0.029 0l-0.001-0h4.225c0.191-0.016 0.413-0.025 0.637-0.025 4.562 0 8.259 3.698 8.259 8.259 0 0.121-0.003 0.241-0.008 0.36l0.001-0.017c0.004 0.097 0.006 0.211 0.006 0.325 0 4.572-3.706 8.278-8.278 8.278-0.217 0-0.433-0.008-0.646-0.025l0.028 0.002zM51.56 5.987h-2.655v12.107h2.655c0.187 0.022 0.405 0.034 0.625 0.034 3.148 0 5.699-2.552 5.699-5.699 0-0.137-0.005-0.273-0.014-0.407l0.001 0.018c0.010-0.127 0.016-0.274 0.016-0.424 0-3.13-2.538-5.668-5.668-5.668-0.232 0-0.461 0.014-0.686 0.041l0.027-0.003zM12.001 0c-0 0-0 0-0.001 0-6.627 0-12 5.373-12 12s5.373 12 12 12c6.627 0 12-5.373 12-12v-0c-0-6.627-5.372-12-11.999-12h-0zM22.485 7.186s-6.641 1.642-6.69 1.654c-0.018 0.005-0.038 0.008-0.058 0.008h-0c-0 0-0 0-0 0-0.035 0-0.063-0.028-0.063-0.063 0-0 0-0.001 0-0.001v0c0.001-0.021 0.006-0.040 0.014-0.058l-0 0.001c0.013-0.032 2.596-6.402 2.596-6.402 1.823 1.198 3.259 2.846 4.172 4.79l0.030 0.071zM18.211 2.279s-4.581 4.849-4.735 5.011c-0.032 0.033-0.054 0.052-0.083 0.052s-0.060-0.018-0.070-0.072c-0.060-0.318-1.28-6.805-1.28-6.805 2.292 0.005 4.424 0.68 6.214 1.841l-0.045-0.027zM11.958 0.466s-1.22 6.487-1.28 6.805c-0.010 0.054-0.041 0.072-0.070 0.072s-0.051-0.019-0.083-0.052c-0.154-0.162-4.735-5.011-4.735-5.011 1.745-1.133 3.877-1.809 6.168-1.814h0.001zM5.718 2.325s2.583 6.37 2.596 6.402c0.008 0.017 0.013 0.036 0.013 0.057v0c0 0 0 0.001 0 0.001 0 0.035-0.028 0.063-0.063 0.063-0 0-0 0-0 0v0c-0.021-0-0.041-0.003-0.060-0.009l0.002 0c-0.048-0.013-6.69-1.654-6.69-1.654 0.943-2.014 2.38-3.662 4.158-4.834l0.044-0.027zM0.466 12c0-0.005 0-0.010 0-0.016 0-1.709 0.373-3.331 1.042-4.789l-0.029 0.072s5.607 3.955 5.641 3.98 0.050 0.047 0.050 0.072c0 0.045-0.036 0.064-0.074 0.077s-6.517 2.223-6.517 2.223c-0.072-0.485-0.112-1.046-0.112-1.616 0-0.001 0-0.002 0-0.002v0zM12 23.534c-5.758-0.001-10.53-4.219-11.396-9.733l-0.008-0.065 4.299 0.6c0.053 0.003 0.096 0.040 0.109 0.090l0 0.001c0.883 2.505 3.009 4.363 5.617 4.85l0.046 0.007c-1.022-0.506-1.713-1.541-1.713-2.739 0-1.682 1.364-3.046 3.046-3.046s3.046 1.364 3.046 3.046c0 1.197-0.691 2.233-1.695 2.731l-0.018 0.008c2.654-0.494 4.78-2.353 5.647-4.805l0.016-0.052c0.013-0.050 0.057-0.087 0.109-0.091l0-0 4.299-0.6c-0.874 5.58-5.646 9.798-11.404 9.798h-0zM16.905 11.395c-0.039-0.013-0.074-0.032-0.074-0.077 0-0.025 0.015-0.048 0.050-0.072s5.641-3.979 5.641-3.979c0.64 1.386 1.013 3.009 1.013 4.718 0 0.005 0 0.011 0 0.016v-0.001c0 0 0 0.001 0 0.002 0 0.57-0.041 1.131-0.12 1.679l0.007-0.063s-6.478-2.21-6.517-2.223z"></path>
</svg>
