<!-- Generated by IcoMoon.io -->
<svg version="1.1" xmlns="http://www.w3.org/2000/svg" width="58" height="24" viewBox="0 0 58 24">
<title>bd-logo-primary</title>
<path fill="#f27707" d="M7.096 11.426l-6.47 2.191c-0.052-0.522-0.104-1.096-0.104-1.617 0-1.617 0.365-3.235 0.991-4.696l5.635 3.965c0.052 0 0.052 0.052 0.052 0.052s-0.052 0.104-0.104 0.104zM11.948 0.522c-2.191 0-4.33 0.626-6.157 1.826l4.696 5.009c0.052 0.052 0.052 0.052 0.104 0.052s0.052 0 0.052-0.052l1.304-6.835zM8.348 8.817v-0.052l-2.609-6.365c-1.826 1.148-3.287 2.817-4.174 4.8l6.678 1.67h0.052c0 0 0.052 0 0.052-0.052v0zM16.904 11.426l6.47 2.191c0.052-0.522 0.104-1.096 0.104-1.617 0-1.617-0.365-3.235-0.991-4.696l-5.635 3.965c-0.052 0-0.052 0.052-0.052 0.052s0.052 0.052 0.104 0.104v0zM13.304 7.304c0 0.052 0.052 0.052 0.052 0.052s0.052 0 0.104-0.052l4.696-5.009c-1.826-1.148-3.965-1.774-6.104-1.774l1.252 6.783zM15.704 8.87h0.052l6.678-1.67c-0.887-1.983-2.348-3.652-4.174-4.852l-2.609 6.365v0.052c0 0.052 0 0.104 0.052 0.104v0 0zM12 23.478c5.687 0 10.487-4.122 11.374-9.757l-4.278 0.574c-0.052 0-0.104 0.052-0.104 0.104-0.887 2.504-3.026 4.383-5.635 4.852 1.513-0.73 2.139-2.557 1.409-4.070s-2.557-2.139-4.070-1.409-2.139 2.557-1.409 4.070c0.313 0.626 0.783 1.096 1.409 1.409-2.609-0.47-4.748-2.296-5.635-4.852 0-0.052-0.052-0.104-0.104-0.104l-4.278-0.574c0.835 5.635 5.635 9.757 11.322 9.757z"></path>
<path fill="#004593" d="M36.209 20.348h-6.209c-0.73 0-1.304-0.574-1.357-1.304 0 0 0 0 0-0.052v-13.983c0.052-0.73 0.626-1.357 1.304-1.357h5.843c3.183 0 5.113 1.878 5.113 4.278s-1.461 3.287-1.983 3.496c0.783 0.209 2.974 1.148 2.974 4.174 0 2.557-2.087 4.748-5.687 4.748zM35.687 6.104h-4.33v4.226h4.33c1.722 0 2.504-0.939 2.504-2.087s-0.73-2.139-2.504-2.139v0zM36.313 12.73h-4.957v5.113h4.957c1.983 0 2.87-1.304 2.87-2.557s-0.887-2.557-2.87-2.557zM49.148 20.348h-4.174c-0.73 0-1.357-0.574-1.357-1.304v-14.035c0-0.73 0.626-1.357 1.357-1.357 0 0 0 0 0.052 0h4.174c5.583 0 8.713 3.757 8.713 8.348s-3.13 8.348-8.765 8.348zM48.939 6.104h-2.609v11.791h2.609c4.017 0 6.209-2.348 6.209-5.896s-2.139-5.896-6.209-5.896z"></path>
</svg>
