<!-- Generated by IcoMoon.io -->
<svg version="1.1" xmlns="http://www.w3.org/2000/svg" width="24" height="24" viewBox="0 0 24 24">
<title>blood-glucose-monitor-bold</title>
<path d="M15.5 3h-3.5v-2h-1v2h-3.5c-1.933 0-3.5 1.567-3.5 3.5v0 12c0 1.933 1.567 3.5 3.5 3.5v0h8c1.933 0 3.5-1.567 3.5-3.5v0-12c0-1.933-1.567-3.5-3.5-3.5v0zM10 19.81l-2.62-1.31 2.62-1.31zM13 19.81v-2.62l2.62 1.31zM17 14.5c0 0.828-0.672 1.5-1.5 1.5v0h-8c-0.828 0-1.5-0.672-1.5-1.5v0-8c0-0.828 0.672-1.5 1.5-1.5v0h8c0.828 0 1.5 0.672 1.5 1.5v0z"></path>
<path d="M12.37 7.85c-0.126-0.165-0.249-0.351-0.358-0.546l-0.012-0.024-0.45-0.95-0.55 0.95c-0.136 0.215-0.274 0.401-0.425 0.576l0.005-0.006c-0.875 0.94-1.453 2.168-1.578 3.526l-0.002 0.024c0 1.381 1.119 2.5 2.5 2.5s2.5-1.119 2.5-2.5v0c-0.141-1.388-0.736-2.615-1.632-3.552l0.002 0.002z"></path>
</svg>
