<!-- Generated by IcoMoon.io -->
<svg version="1.1" xmlns="http://www.w3.org/2000/svg" width="24" height="24" viewBox="0 0 24 24">
<title>blood-bold</title>
<path d="M19 14.5c0 4.142-3.358 7.5-7.5 7.5s-7.5-3.358-7.5-7.5v0c0-4.58 3.28-8.5 5.45-11.11 0.572-0.629 1.099-1.322 1.564-2.059l0.036-0.061 0.45-0.89 0.45 0.89c0.501 0.798 1.028 1.491 1.611 2.132l-0.011-0.012c2.17 2.61 5.45 6.53 5.45 11.11zM8.8 18.080c-1.097-0.822-1.8-2.119-1.8-3.58 0-0 0-0 0-0v0c0.132-2.169 0.896-4.136 2.109-5.747l-0.019 0.027-0.83-0.55c-1.302 1.736-2.131 3.895-2.259 6.241l-0.001 0.029c0.002 1.784 0.86 3.367 2.186 4.36l0.014 0.010z"></path>
</svg>
