<!-- Generated by IcoMoon.io -->
<svg version="1.1" xmlns="http://www.w3.org/2000/svg" width="24" height="24" viewBox="0 0 24 24">
<title>brain-bold</title>
<path d="M19.92 10c-0.623 0.613-1.476 0.994-2.419 1h-0.001c-0.276 0-0.5-0.224-0.5-0.5s0.224-0.5 0.5-0.5v0c0.001 0 0.003 0 0.005 0 0.814 0 1.536-0.39 1.99-0.994l0.005-0.006c0.068-0.089 0.134-0.191 0.193-0.297l0.007-0.013v-0.060c0.039-0.075 0.080-0.168 0.114-0.263l0.006-0.017c0-0.060 0-0.12 0.060-0.19s0-0.14 0.050-0.21c0.026-0.136 0.042-0.293 0.042-0.453 0-1.375-1.115-2.49-2.49-2.49-0.654 0-1.249 0.252-1.693 0.664l0.002-0.001c-0.082 0.061-0.185 0.098-0.297 0.098-0.247 0-0.452-0.179-0.493-0.415l-0-0.003c-0.074-0.76-0.71-1.35-1.483-1.35-0.006 0-0.012 0-0.017 0h0.001c-0.132 0.001-0.259 0.019-0.38 0.052l0.010-0.002h-0.070c-0.115 0.036-0.214 0.080-0.307 0.134l0.007-0.004c-0.227 0.141-0.41 0.334-0.536 0.562l-0.004 0.008c-0.134 0.213-0.215 0.472-0.22 0.749l-0 0.001c0 1.381-1.119 2.5-2.5 2.5v0c-0.276 0-0.5-0.224-0.5-0.5s0.224-0.5 0.5-0.5v0c0.828 0 1.5-0.672 1.5-1.5v0c0.004-0.303 0.063-0.591 0.166-0.857l-0.006 0.017c-0.435-0.404-1.018-0.654-1.659-0.66h-0.001c-1.010 0.001-1.88 0.601-2.274 1.464l-0.006 0.016c-0.045 0.105-0.086 0.232-0.117 0.363l-0.003 0.017s0 0.060 0 0.090c-0.033 0.151-0.051 0.325-0.051 0.503 0 0.69 0.279 1.314 0.731 1.767l-0-0c0.1 0.1 0.162 0.238 0.162 0.39 0 0.305-0.247 0.552-0.552 0.552-0.152 0-0.29-0.062-0.39-0.162v0c-0.51-0.527-0.855-1.216-0.948-1.983l-0.002-0.017c-1.838 0.122-3.282 1.642-3.282 3.5 0 1.937 1.57 3.507 3.507 3.507 0.079 0 0.158-0.003 0.236-0.008l-0.011 0.001c0.214-0.003 0.421-0.024 0.622-0.064l-0.022 0.004h0.22l0.3-0.090c0.258-0.090 0.479-0.194 0.687-0.319l-0.017 0.009c1.030-0.619 1.709-1.73 1.71-3v-0c0-0.276 0.224-0.5 0.5-0.5s0.5 0.224 0.5 0.5v0c-0.004 1.501-0.743 2.828-1.877 3.641l-0.013 0.009c0.283 1.069 1.242 1.844 2.382 1.844 0.911 0 1.707-0.496 2.132-1.232l0.006-0.012c-0.098-0.159-0.195-0.347-0.279-0.541l-0.011-0.029c-0.455 0.481-1.098 0.78-1.81 0.78-0.010 0-0.021-0-0.031-0l0.002 0c-0.276 0-0.5-0.224-0.5-0.5s0.224-0.5 0.5-0.5v0c0.828 0 1.5-0.672 1.5-1.5v0c0-0.276 0.224-0.5 0.5-0.5s0.5 0.224 0.5 0.5v0c0.005 0.751 0.248 1.445 0.657 2.010l-0.007-0.010c0.149 0.205 0.31 0.385 0.487 0.548l0.003 0.002 0.17 0.14c0.135 0.112 0.285 0.218 0.444 0.311l0.016 0.009 0.21 0.11c0.151 0.073 0.33 0.141 0.516 0.194l0.024 0.006 0.2 0.060c0.236 0.061 0.508 0.097 0.788 0.1l0.002 0c1.922-0.006 3.479-1.559 3.49-3.479v-0.001c0-0 0-0.001 0-0.002 0-0.984-0.414-1.871-1.078-2.497l-0.002-0.002zM6.5 13c-1.381 0-2.5-1.119-2.5-2.5v0c0-0.276 0.224-0.5 0.5-0.5s0.5 0.224 0.5 0.5v0c0 0.828 0.672 1.5 1.5 1.5v0c0.276 0 0.5 0.224 0.5 0.5s-0.224 0.5-0.5 0.5v0zM15.5 9c-0.828 0-1.5 0.672-1.5 1.5v0c0 0.276-0.224 0.5-0.5 0.5s-0.5-0.224-0.5-0.5v0c0-0.001 0-0.003 0-0.005 0-0.814 0.39-1.536 0.994-1.99l0.006-0.005c-0.61-0.459-1-1.181-1-1.995 0-0.002 0-0.004 0-0.005v0c0-0.276 0.224-0.5 0.5-0.5s0.5 0.224 0.5 0.5v0c0 0.828 0.672 1.5 1.5 1.5v0c0.276 0 0.5 0.224 0.5 0.5s-0.224 0.5-0.5 0.5v0zM18.5 15c-0.276 0-0.5-0.224-0.5-0.5v0c0-0.828-0.672-1.5-1.5-1.5v0c-0.276 0-0.5-0.224-0.5-0.5s0.224-0.5 0.5-0.5v0c1.381 0 2.5 1.119 2.5 2.5v0c0 0.276-0.224 0.5-0.5 0.5v0z"></path>
<path d="M14.84 16.11c-0.204-0.146-0.384-0.297-0.551-0.461l0.001 0.001c-0.338 0.422-0.763 0.761-1.249 0.991l-0.021 0.009v2.85c0 0.276 0.224 0.5 0.5 0.5v0h3c0.276 0 0.5-0.224 0.5-0.5v0-2.55c-0.755-0.088-1.434-0.352-2.015-0.75l0.015 0.010z"></path>
</svg>
