<!-- Generated by IcoMoon.io -->
<svg version="1.1" xmlns="http://www.w3.org/2000/svg" width="24" height="24" viewBox="0 0 24 24">
<title>brightness-bold</title>
<path d="M16 11.5c0 2.485-2.015 4.5-4.5 4.5s-4.5-2.015-4.5-4.5c0-2.485 2.015-4.5 4.5-4.5s4.5 2.015 4.5 4.5z"></path>
<path d="M11 1h1v4h-1v-4z"></path>
<path d="M11 18h1v4h-1v-4z"></path>
<path d="M1 11h4v1h-4v-1z"></path>
<path d="M18 11h4v1h-4v-1z"></path>
<path d="M15.746 6.551l2.828-2.828 0.707 0.707-2.828 2.828-0.707-0.707z"></path>
<path d="M3.726 18.57l2.828-2.828 0.707 0.707-2.828 2.828-0.707-0.707z"></path>
<path d="M3.726 4.429l0.707-0.707 2.828 2.828-0.707 0.707-2.828-2.828z"></path>
<path d="M15.745 16.449l0.707-0.707 2.828 2.828-0.707 0.707-2.828-2.828z"></path>
</svg>
