<!-- Generated by IcoMoon.io -->
<svg version="1.1" xmlns="http://www.w3.org/2000/svg" width="24" height="24" viewBox="0 0 24 24">
<title>brightness-low-bold</title>
<path d="M14 11.5c0 1.381-1.119 2.5-2.5 2.5s-2.5-1.119-2.5-2.5c0-1.381 1.119-2.5 2.5-2.5s2.5 1.119 2.5 2.5z"></path>
<path d="M5 11h2v1h-2v-1z"></path>
<path d="M11 16h1v2h-1v-2z"></path>
<path d="M16 11h2v1h-2v-1z"></path>
<path d="M11 5h1v2h-1v-2z"></path>
<path d="M6.551 7.253l0.707-0.707 1.415 1.414-0.707 0.707-1.415-1.414z"></path>
<path d="M6.553 15.745l1.414-1.414 0.707 0.707-1.414 1.414-0.707-0.707z"></path>
<path d="M14.334 15.040l0.707-0.707 1.414 1.414-0.707 0.707-1.414-1.414z"></path>
<path d="M14.333 7.962l1.414-1.414 0.707 0.707-1.414 1.414-0.707-0.707z"></path>
</svg>
