<!-- Generated by IcoMoon.io -->
<svg version="1.1" xmlns="http://www.w3.org/2000/svg" width="24" height="24" viewBox="0 0 24 24">
<title>bullet-list-bold</title>
<path d="M7 4h15v2h-15v-2z"></path>
<path d="M7 11h15v2h-15v-2z"></path>
<path d="M7 18h15v2h-15v-2z"></path>
<path d="M4 3v0c1.1 0 2 0.9 2 2v0c0 1.1-0.9 2-2 2v0c-1.1 0-2-0.9-2-2v0c0-1.1 0.9-2 2-2z"></path>
<path d="M4 10v0c1.1 0 2 0.9 2 2v0c0 1.1-0.9 2-2 2v0c-1.1 0-2-0.9-2-2v0c0-1.1 0.9-2 2-2z"></path>
<path d="M4 17v0c1.1 0 2 0.9 2 2v0c0 1.1-0.9 2-2 2v0c-1.1 0-2-0.9-2-2v0c0-1.1 0.9-2 2-2z"></path>
</svg>
