<!-- Generated by IcoMoon.io -->
<svg version="1.1" xmlns="http://www.w3.org/2000/svg" width="24" height="24" viewBox="0 0 24 24">
<title>calendar-month-bold</title>
<path d="M7.5 6c0.276 0 0.5-0.224 0.5-0.5v0-2c0-0.276-0.224-0.5-0.5-0.5s-0.5 0.224-0.5 0.5v0 2c0 0.276 0.224 0.5 0.5 0.5v0z"></path>
<path d="M18.5 4h-1.5v1.5c0 0.828-0.672 1.5-1.5 1.5s-1.5-0.672-1.5-1.5v0-1.5h-5v1.5c0 0.828-0.672 1.5-1.5 1.5s-1.5-0.672-1.5-1.5v0-1.5h-1.5c-0.828 0-1.5 0.672-1.5 1.5v0 2.5h17v-2.5c0-0.828-0.672-1.5-1.5-1.5v0z"></path>
<path d="M3 19.5c0 0.828 0.672 1.5 1.5 1.5v0h14c0.828 0 1.5-0.672 1.5-1.5v0-10.5h-17zM4 16h3v-3h-3v-1h3v-2h1v2h3v-2h1v2h3v-2h1v2h3v1h-3v3h3v1h-3v3h-1v-3h-3v3h-1v-3h-3v3h-1v-3h-3z"></path>
<path d="M12 13h3v3h-3v-3z"></path>
<path d="M8 13h3v3h-3v-3z"></path>
<path d="M15.5 6c0.276 0 0.5-0.224 0.5-0.5v0-2c0-0.276-0.224-0.5-0.5-0.5s-0.5 0.224-0.5 0.5v0 2c0 0.276 0.224 0.5 0.5 0.5v0z"></path>
</svg>
