<!-- Generated by IcoMoon.io -->
<svg version="1.1" xmlns="http://www.w3.org/2000/svg" width="24" height="24" viewBox="0 0 24 24">
<title>calendar-bold</title>
<path d="M7.5 3c-0.276 0-0.5 0.224-0.5 0.5v0 2c0 0.276 0.224 0.5 0.5 0.5s0.5-0.224 0.5-0.5v0-2c0-0.276-0.224-0.5-0.5-0.5v0z"></path>
<path d="M20 5.5c0-0.828-0.672-1.5-1.5-1.5v0h-1.5v1.5c0 0.828-0.672 1.5-1.5 1.5s-1.5-0.672-1.5-1.5v0-1.5h-5v1.5c0 0.828-0.672 1.5-1.5 1.5s-1.5-0.672-1.5-1.5v0-1.5h-1.5c-0.828 0-1.5 0.672-1.5 1.5v0 2.5h17z"></path>
<path d="M3 19.5c0 0.828 0.672 1.5 1.5 1.5v0h14c0.828 0 1.5-0.672 1.5-1.5v0-10.5h-17z"></path>
<path d="M15.5 3c-0.276 0-0.5 0.224-0.5 0.5v0 2c0 0.276 0.224 0.5 0.5 0.5s0.5-0.224 0.5-0.5v0-2c0-0.276-0.224-0.5-0.5-0.5v0z"></path>
</svg>
