<!-- Generated by IcoMoon.io -->
<svg version="1.1" xmlns="http://www.w3.org/2000/svg" width="24" height="24" viewBox="0 0 24 24">
<title>camera-bold</title>
<path d="M22 7.5v11c0 0.828-0.672 1.5-1.5 1.5v0h-17c-0.828 0-1.5-0.672-1.5-1.5v0-11c0-0.828 0.672-1.5 1.5-1.5v0h3.5c0.176-0 0.33-0.091 0.419-0.228l0.001-0.002 1.37-2.080c0.26-0.405 0.702-0.673 1.208-0.69l0.002-0h4c0.001 0 0.002 0 0.003 0 0.526 0 0.988 0.273 1.253 0.684l0.004 0.006 1.34 2.080c0.087 0.134 0.232 0.223 0.399 0.23l0.001 0h3.5c0.828 0 1.5 0.672 1.5 1.5v0zM12 8c-2.485 0-4.5 2.015-4.5 4.5s2.015 4.5 4.5 4.5c2.485 0 4.5-2.015 4.5-4.5v0c0-2.485-2.015-4.5-4.5-4.5v0zM19 8c-0.552 0-1 0.448-1 1s0.448 1 1 1c0.552 0 1-0.448 1-1v0c0-0.552-0.448-1-1-1v0z"></path>
</svg>
