<!-- Generated by IcoMoon.io -->
<svg version="1.1" xmlns="http://www.w3.org/2000/svg" width="24" height="24" viewBox="0 0 24 24">
<title>chart-line-graph-bold</title>
<path d="M21 12c-0.012-0-0.026-0-0.040-0-0.963 0-1.767 0.681-1.957 1.587l-0.002 0.013-2.72 0.91c-0.35-0.307-0.811-0.494-1.316-0.494-0.631 0-1.195 0.293-1.561 0.75l-0.003 0.004-3.58-0.51c-0.322-0.699-1.016-1.175-1.822-1.175-1.075 0-1.951 0.848-1.998 1.911l-0 0.004s0 0.070 0 0.11l-2 1.32v-4.69l3.34-2.86c0.2 0.077 0.431 0.121 0.672 0.121 0.445 0 0.855-0.151 1.182-0.404l-0.004 0.003 3.81 1.64c0.065 1.054 0.936 1.884 2 1.884 1.107 0 2.004-0.897 2.004-2.004 0-0.042-0.001-0.084-0.004-0.126l0 0.006c-0.003-0.238-0.047-0.464-0.125-0.674l0.005 0.014 3.75-4.34c0.055 0.005 0.12 0.009 0.185 0.009s0.13-0.003 0.193-0.009l-0.008 0.001c1.105 0 2-0.895 2-2s-0.895-2-2-2c-1.105 0-2 0.895-2 2v0c0.003 0.238 0.047 0.464 0.124 0.674l-0.005-0.014-3.75 4.34c-0.113-0.023-0.242-0.037-0.375-0.037-0.449 0-0.862 0.153-1.189 0.41l0.004-0.003-3.81-1.61c-0.151-0.98-0.989-1.722-2-1.722-1.117 0-2.022 0.905-2.022 2.022 0 0.106 0.008 0.21 0.024 0.311l-0.001-0.011-2 1.75v-7.11h-2v20h20v-2h-18v-1.18l3.11-2c0.258 0.13 0.562 0.206 0.884 0.206 0.633 0 1.196-0.294 1.563-0.752l0.003-0.004 3.59 0.51c0.291 0.768 1.020 1.304 1.875 1.304 0.993 0 1.817-0.724 1.973-1.673l0.002-0.012 2.72-0.91c0.352 0.316 0.82 0.509 1.333 0.509 1.105 0 2-0.895 2-2s-0.895-2-2-2c-0.019 0-0.037 0-0.056 0.001l0.003-0z"></path>
</svg>
