<!-- Generated by IcoMoon.io -->
<svg version="1.1" xmlns="http://www.w3.org/2000/svg" width="24" height="24" viewBox="0 0 24 24">
<title>chart-analytics-bold</title>
<path d="M3 21v-8.35l3.050-3.21c0.141 0.036 0.302 0.057 0.469 0.057 0.403 0 0.777-0.122 1.088-0.332l-0.007 0.004 2.91 1.46c0.033 1.079 0.916 1.941 2 1.941 1.105 0 2.001-0.896 2.001-2.001 0-0.021-0-0.042-0.001-0.063l0 0.003c-0.001-0.182-0.027-0.357-0.073-0.524l0.003 0.014 3.56-3.57c0.153 0.043 0.328 0.069 0.509 0.070h0.001c1.105 0 2-0.895 2-2s-0.895-2-2-2c-1.105 0-2 0.895-2 2v0c0.001 0.182 0.027 0.357 0.073 0.524l-0.003-0.014-3.58 3.56c-0.153-0.043-0.328-0.069-0.509-0.070h-0.001c-0.41 0-0.79 0.123-1.107 0.335l0.007-0.005-2.9-1.45c-0.033-1.079-0.916-1.941-2-1.941-1.105 0-2.001 0.896-2.001 2.001 0 0.021 0 0.042 0.001 0.063l-0-0.003c0.001 0.207 0.034 0.407 0.094 0.594l-0.004-0.014-1.58 1.7v-6.78h-2v20h20v-2z"></path>
<path d="M17 9h4v11h-4v-11z"></path>
<path d="M11 15h4v5h-4v-5z"></path>
<path d="M5 13h4v7h-4v-7z"></path>
</svg>
