<!-- Generated by IcoMoon.io -->
<svg version="1.1" xmlns="http://www.w3.org/2000/svg" width="24" height="24" viewBox="0 0 24 24">
<title>cloud-bold</title>
<path d="M17.5 18h-13c-0.051 0.002-0.11 0.003-0.17 0.003-2.487 0-4.503-2.016-4.503-4.503 0-2.427 1.92-4.406 4.325-4.5l0.009-0c0.712-3.46 3.733-6.025 7.354-6.025 2.872 0 5.367 1.614 6.627 3.985l0.020 0.041c2.9 0.177 5.185 2.571 5.185 5.5 0 3.043-2.467 5.51-5.51 5.51-0.114 0-0.228-0.003-0.34-0.010l0.015 0.001zM4.5 11c-1.381 0-2.5 1.119-2.5 2.5s1.119 2.5 2.5 2.5v0h13c1.933 0 3.5-1.567 3.5-3.5s-1.567-3.5-3.5-3.5v0h-0.67l-0.26-0.62c-0.848-2.011-2.803-3.397-5.082-3.397-2.91 0-5.292 2.26-5.487 5.12l-0.001 0.017-0.050 1.080-1.080-0.2c-0.055-0.004-0.12-0.007-0.185-0.007s-0.13 0.002-0.194 0.007l0.009-0.001z"></path>
</svg>
