<!-- Generated by IcoMoon.io -->
<svg version="1.1" xmlns="http://www.w3.org/2000/svg" width="24" height="24" viewBox="0 0 24 24">
<title>cloud-download-bold</title>
<path d="M13 19.59v-6.59h-2v6.59l-2-2-1.41 1.41 4.41 4.41 4.41-4.41-1.41-1.41-2 2z"></path>
<path d="M18.15 6c-1.28-2.411-3.775-4.025-6.646-4.025-3.62 0-6.641 2.565-7.345 5.977l-0.008 0.048c-2.413 0.094-4.333 2.073-4.333 4.5 0 2.487 2.016 4.503 4.503 4.503 0.060 0 0.119-0.001 0.179-0.003l-0.009 0h5.51v-2h-5.5c-1.381 0-2.5-1.119-2.5-2.5s1.119-2.5 2.5-2.5v0c0.055-0.004 0.12-0.007 0.185-0.007s0.13 0.002 0.194 0.007l-0.009-0.001 1.070 0.16 0.060-1.040c0.185-2.887 2.572-5.158 5.489-5.158 2.287 0 4.248 1.396 5.077 3.382l0.013 0.036 0.26 0.62h0.67c1.933 0 3.5 1.567 3.5 3.5s-1.567 3.5-3.5 3.5v0h-3.51v2h3.5c0.097 0.006 0.211 0.010 0.325 0.010 3.043 0 5.51-2.467 5.51-5.51 0-2.929-2.285-5.323-5.169-5.499l-0.015-0.001z"></path>
</svg>
