<!-- Generated by IcoMoon.io -->
<svg version="1.1" xmlns="http://www.w3.org/2000/svg" width="24" height="24" viewBox="0 0 24 24">
<title>code-bar-bold</title>
<path d="M4 18.030h-2v4.97h4.97v-2h-2.97v-2.97z"></path>
<path d="M4 4h2.97v-2h-4.97v4.97h2v-2.97z"></path>
<path d="M17.030 2v2h2.97v2.97h2v-4.97h-4.97z"></path>
<path d="M20 21h-2.97v2h4.97v-4.97h-2v2.97z"></path>
<path d="M6 7h2v11h-2v-11z"></path>
<path d="M11 7h2v11h-2v-11z"></path>
<path d="M9 7h1v11h-1v-11z"></path>
<path d="M17 7h1v11h-1v-11z"></path>
<path d="M14 7h1v11h-1v-11z"></path>
</svg>
