<!-- Generated by IcoMoon.io -->
<svg version="1.1" xmlns="http://www.w3.org/2000/svg" width="24" height="24" viewBox="0 0 24 24">
<title>code-scan-bold</title>
<path d="M18 7h-1v4h-2v-4h-1v4h-1v-4h-2v4h-1v-4h-1v4h-1v-4h-2v4h-4v2h20v-2h-4v-4z"></path>
<path d="M6 15h2v3h-2v-3z"></path>
<path d="M11 15h2v3h-2v-3z"></path>
<path d="M9 15h1v3h-1v-3z"></path>
<path d="M17 15h1v3h-1v-3z"></path>
<path d="M14 15h1v3h-1v-3z"></path>
<path d="M4 17.030h-2v4.97h4.97v-2h-2.97v-2.97z"></path>
<path d="M4 4h2.97v-2h-4.97v4.97h2v-2.97z"></path>
<path d="M17.030 2v2h2.97v2.97h2v-4.97h-4.97z"></path>
<path d="M20 20h-2.97v2h4.97v-4.97h-2v2.97z"></path>
</svg>
