<!-- Generated by IcoMoon.io -->
<svg version="1.1" xmlns="http://www.w3.org/2000/svg" width="24" height="24" viewBox="0 0 24 24">
<title>complete-bold</title>
<path d="M11.63 18.040l-4.84-4.83 1.42-1.42 3.16 3.17 9.32-13.040 1.62 1.16-10.68 14.96z"></path>
<path d="M11 22c-4.971 0-9-4.029-9-9s4.029-9 9-9v0c1.498 0 2.91 0.37 4.149 1.023l-0.049-0.023-0.91 1.78c-0.926-0.491-2.024-0.78-3.19-0.78h-0c-0.018-0-0.039-0-0.060-0-3.899 0-7.060 3.161-7.060 7.060s3.161 7.060 7.060 7.060c3.899 0 7.060-3.161 7.060-7.060 0-0.349-0.025-0.692-0.074-1.028l0.005 0.038 2-0.27c0.056 0.376 0.088 0.809 0.088 1.25 0 4.943-4.007 8.95-8.95 8.95-0.024 0-0.048-0-0.071-0l0.004 0z"></path>
</svg>
