<!-- Generated by IcoMoon.io -->
<svg version="1.1" xmlns="http://www.w3.org/2000/svg" width="24" height="24" viewBox="0 0 24 24">
<title>compounding-bold</title>
<path d="M20.5 3h-17c-0.828 0-1.5 0.672-1.5 1.5s0.672 1.5 1.5 1.5v0h0.5v12.5c0 1.381 1.119 2.5 2.5 2.5v0h11c1.381 0 2.5-1.119 2.5-2.5v0-12.5h0.5c0.828 0 1.5-0.672 1.5-1.5s-0.672-1.5-1.5-1.5v0zM14.5 12c-0.002 0-0.004 0-0.006 0-0.47 0-0.889 0.217-1.162 0.557l-0.002 0.003-1.19 1.44 1.15 1.44c0.275 0.343 0.694 0.56 1.164 0.56 0.002 0 0.004 0 0.006-0h0.54v-1.71l2.21 2.21-2.21 2.21v-1.71h-0.54c-0.015 0-0.033 0.001-0.051 0.001-0.787 0-1.489-0.365-1.945-0.936l-0.004-0.005-1-1.26-1 1.26c-0.46 0.575-1.162 0.941-1.949 0.941-0.018 0-0.036-0-0.054-0.001l0.003 0h-1.46v-1h1.54c0.002 0 0.004 0 0.006 0 0.47 0 0.889-0.217 1.162-0.557l0.002-0.003 1.15-1.44-1.15-1.44c-0.275-0.343-0.694-0.56-1.164-0.56-0.002 0-0.004 0-0.006 0h-1.54v-1h1.54c0.015-0 0.033-0.001 0.051-0.001 0.787 0 1.489 0.365 1.945 0.936l0.004 0.005 1 1.26 1-1.26c0.46-0.575 1.162-0.941 1.949-0.941 0.018 0 0.036 0 0.054 0.001l-0.003-0h0.46v-1.71l2.21 2.21-2.21 2.21v-1.71zM20.5 5h-1.5v2h-14v-2h-1.5c-0.276 0-0.5-0.224-0.5-0.5s0.224-0.5 0.5-0.5v0h17c0.276 0 0.5 0.224 0.5 0.5s-0.224 0.5-0.5 0.5v0z"></path>
</svg>
