<!-- Generated by IcoMoon.io -->
<svg version="1.1" xmlns="http://www.w3.org/2000/svg" width="24" height="24" viewBox="0 0 24 24">
<title>connection-bold</title>
<path d="M17 6.59l-1.41 1.41 5 5-5 5 1.41 1.41 6.41-6.41-6.41-6.41z"></path>
<path d="M8.41 8l-1.41-1.41-6.41 6.41 6.41 6.41 1.41-1.41-5-5 5-5z"></path>
<path d="M9.5 13c0 0.828-0.672 1.5-1.5 1.5s-1.5-0.672-1.5-1.5c0-0.828 0.672-1.5 1.5-1.5s1.5 0.672 1.5 1.5z"></path>
<path d="M13.5 13c0 0.828-0.672 1.5-1.5 1.5s-1.5-0.672-1.5-1.5c0-0.828 0.672-1.5 1.5-1.5s1.5 0.672 1.5 1.5z"></path>
<path d="M17.5 13c0 0.828-0.672 1.5-1.5 1.5s-1.5-0.672-1.5-1.5c0-0.828 0.672-1.5 1.5-1.5s1.5 0.672 1.5 1.5z"></path>
</svg>
