<!-- Generated by IcoMoon.io -->
<svg version="1.1" xmlns="http://www.w3.org/2000/svg" width="24" height="24" viewBox="0 0 24 24">
<title>count-bold</title>
<path d="M5.5 6c0.828 0 1.5-0.672 1.5-1.5s-0.672-1.5-1.5-1.5v0h-0.5v-1h-1v1h-0.5c-0.828 0-1.5 0.672-1.5 1.5s0.672 1.5 1.5 1.5v0h0.5v2h-0.5c-0.828 0-1.5 0.672-1.5 1.5s0.672 1.5 1.5 1.5v0h0.5v7h-0.5c-0.828 0-1.5 0.672-1.5 1.5s0.672 1.5 1.5 1.5v0h0.5v1h1v-1h0.5c0.828 0 1.5-0.672 1.5-1.5s-0.672-1.5-1.5-1.5v0h-0.5v-7h0.5c0.828 0 1.5-0.672 1.5-1.5s-0.672-1.5-1.5-1.5v0h-0.5v-2z"></path>
<path d="M12.5 6c0.828 0 1.5-0.672 1.5-1.5s-0.672-1.5-1.5-1.5v0h-0.5v-1h-1v1h-0.5c-0.828 0-1.5 0.672-1.5 1.5s0.672 1.5 1.5 1.5v0h0.5v7h-0.5c-0.828 0-1.5 0.672-1.5 1.5s0.672 1.5 1.5 1.5v0h0.5v2h-0.5c-0.828 0-1.5 0.672-1.5 1.5s0.672 1.5 1.5 1.5v0h0.5v1h1v-1h0.5c0.828 0 1.5-0.672 1.5-1.5s-0.672-1.5-1.5-1.5v0h-0.5v-2h0.5c0.828 0 1.5-0.672 1.5-1.5s-0.672-1.5-1.5-1.5v0h-0.5v-7z"></path>
<path d="M19.5 11c0.828 0 1.5-0.672 1.5-1.5s-0.672-1.5-1.5-1.5v0h-0.5v-2h0.5c0.828 0 1.5-0.672 1.5-1.5s-0.672-1.5-1.5-1.5v0h-0.5v-1h-1v1h-0.5c-0.828 0-1.5 0.672-1.5 1.5s0.672 1.5 1.5 1.5v0h0.5v2h-0.5c-0.828 0-1.5 0.672-1.5 1.5s0.672 1.5 1.5 1.5v0h0.5v2h-0.5c-0.828 0-1.5 0.672-1.5 1.5s0.672 1.5 1.5 1.5v0h0.5v6h1v-6h0.5c0.828 0 1.5-0.672 1.5-1.5s-0.672-1.5-1.5-1.5v0h-0.5v-2z"></path>
</svg>
