<!-- Generated by IcoMoon.io -->
<svg version="1.1" xmlns="http://www.w3.org/2000/svg" width="24" height="24" viewBox="0 0 24 24">
<title>dashboard-bold</title>
<path d="M21 14.5v4.5h-19v-4.5c0-5.247 4.253-9.5 9.5-9.5s9.5 4.253 9.5 9.5v0zM5 15h2v-1h-2zM16 14v1h2v-1zM6.55 10.26l1.45 1.41 0.67-0.67-1.41-1.45zM12 8h-1v2h1zM17.21 10.21l-1.42-1.42-3.79 3.78c-0.153-0.043-0.328-0.069-0.509-0.070h-0.001c-1.105 0-2 0.895-2 2s0.895 2 2 2c1.105 0 2-0.895 2-2v0c-0.001-0.182-0.027-0.357-0.073-0.524l0.003 0.014z"></path>
</svg>
