<!-- Generated by IcoMoon.io -->
<svg version="1.1" xmlns="http://www.w3.org/2000/svg" width="24" height="24" viewBox="0 0 24 24">
<title>database-connected-bold</title>
<path d="M13 18c4.63-0.21 8-1.85 8-4v-1.19c-1.73 1.43-5.44 2.19-9 2.19s-7.27-0.76-9-2.19v1.19c0 2.13 3.38 3.77 8 4v2h-6v2h14v-2h-6z"></path>
<path d="M4 21c0 0.552-0.448 1-1 1s-1-0.448-1-1c0-0.552 0.448-1 1-1s1 0.448 1 1z"></path>
<path d="M22 21c0 0.552-0.448 1-1 1s-1-0.448-1-1c0-0.552 0.448-1 1-1s1 0.448 1 1z"></path>
<path d="M12 14c5.3 0 9-1.58 9-3v-2.19c-1.73 1.43-5.44 2.19-9 2.19s-7.27-0.76-9-2.19v2.19c0 1.42 3.7 3 9 3z"></path>
<path d="M12 10c5.3 0 9-1.58 9-3 0-2.28-3.87-4-9-4s-9 1.72-9 4c0 1.42 3.7 3 9 3z"></path>
</svg>
