<!-- Generated by IcoMoon.io -->
<svg version="1.1" xmlns="http://www.w3.org/2000/svg" width="24" height="24" viewBox="0 0 24 24">
<title>database-bold</title>
<path d="M12 9c5.3 0 9-1.58 9-3 0-2.28-3.87-4-9-4s-9 1.72-9 4c0 1.42 3.7 3 9 3z"></path>
<path d="M3 15.81v1.19c0 2.28 3.87 4 9 4s9-1.72 9-4v-1.19c-1.73 1.43-5.44 2.19-9 2.19s-7.27-0.76-9-2.19z"></path>
<path d="M12 13c5.3 0 9-1.58 9-3v-2.19c-1.73 1.43-5.44 2.19-9 2.19s-7.27-0.76-9-2.19v2.19c0 1.42 3.7 3 9 3z"></path>
<path d="M12 14c-3.56 0-7.27-0.76-9-2.19v2.19c0 1.42 3.7 3 9 3s9-1.58 9-3v-2.19c-1.73 1.43-5.44 2.19-9 2.19z"></path>
</svg>
