<!-- Generated by IcoMoon.io -->
<svg version="1.1" xmlns="http://www.w3.org/2000/svg" width="24" height="24" viewBox="0 0 24 24">
<title>disconnected-bold</title>
<path d="M20 9c-1.295 0.004-2.397 0.827-2.813 1.979l-0.007 0.021h-2.18v2h2.18c0.424 1.175 1.53 2 2.828 2 1.657 0 3-1.343 3-3s-1.343-3-3-3c-0.003 0-0.006 0-0.009 0h0z"></path>
<path d="M10.59 11h-3.77c-0.424-1.175-1.53-2-2.828-2-1.657 0-3 1.343-3 3s1.343 3 3 3c1.298 0 2.404-0.825 2.822-1.979l0.007-0.021h1.77l-1 1 1.41 1.41 5.41-5.41-1.41-1.41z"></path>
</svg>
