<!-- Generated by IcoMoon.io -->
<svg version="1.1" xmlns="http://www.w3.org/2000/svg" width="24" height="24" viewBox="0 0 24 24">
<title>display-monitor-bold</title>
<path d="M5 7h14v8h-14v-8z"></path>
<path d="M20.5 4h-17c-0.828 0-1.5 0.672-1.5 1.5v0 11c0 0.828 0.672 1.5 1.5 1.5v0h5.43c-0.242 0.877-0.539 1.634-0.903 2.351l0.033-0.071-0.37 0.72h8.62l-0.36-0.72c-0.336-0.647-0.636-1.404-0.859-2.194l-0.021-0.086h5.43c0.828 0 1.5-0.672 1.5-1.5v0-11c0-0.828-0.672-1.5-1.5-1.5v0zM20 16h-16v-10h16z"></path>
</svg>
