<!-- Generated by IcoMoon.io -->
<svg version="1.1" xmlns="http://www.w3.org/2000/svg" width="24" height="24" viewBox="0 0 24 24">
<title>eraser-bold</title>
<path d="M2.85 13.44c-0.526 0.528-0.85 1.256-0.85 2.060s0.325 1.532 0.851 2.060l1.88 1.88c0.211 0.205 0.443 0.389 0.692 0.549l0.018 0.011h-2.44v2h13v-2h-2.44c0.267-0.171 0.499-0.356 0.711-0.561l-0.001 0.001 3.88-3.88-8.71-8.71z"></path>
<path d="M22.15 7.44l-4.59-4.59c-0.527-0.528-1.255-0.855-2.060-0.855s-1.533 0.327-2.060 0.855l-2.59 2.59 8.71 8.71 2.59-2.59c0.526-0.528 0.851-1.256 0.851-2.060s-0.325-1.532-0.851-2.060l0 0z"></path>
<path d="M17 20h2v2h-2v-2z"></path>
<path d="M20 20h2v2h-2v-2z"></path>
</svg>
