<!-- Generated by IcoMoon.io -->
<svg version="1.1" xmlns="http://www.w3.org/2000/svg" width="24" height="24" viewBox="0 0 24 24">
<title>flag-bold</title>
<path d="M21.29 4c-2.29 1.1-6.29 2.49-7.46 1.72-0.204-0.134-0.337-0.362-0.337-0.62 0-0.035 0.002-0.070 0.007-0.103l-0 0.004c0-0.012 0-0.026 0-0.040 0-0.548-0.266-1.035-0.676-1.337l-0.005-0.003c-1.95-1.46-7.82 0.21-8.46 0.38l-0.36 0.13v-2.13h-2v20h2v-4.83l0.64-0.17c2.31-0.68 6.41-1.43 7.58-0.56 0.171 0.121 0.281 0.318 0.281 0.54 0 0.014-0 0.028-0.001 0.041l0-0.002c-0.002 0.032-0.003 0.068-0.003 0.106 0 0.607 0.313 1.142 0.787 1.45l0.007 0.004c0.418 0.235 0.917 0.373 1.449 0.373 0.050 0 0.099-0.001 0.148-0.004l-0.007 0c2.54 0 6.31-1.73 6.83-2l0.29-0.14v-13.1z"></path>
</svg>
