<!-- Generated by IcoMoon.io -->
<svg version="1.1" xmlns="http://www.w3.org/2000/svg" width="24" height="24" viewBox="0 0 24 24">
<title>folder-bold</title>
<path d="M3 19c0.552 0 1-0.448 1-1v0-10c0-0.552 0.448-1 1-1v0h15v-1c0-0.552-0.448-1-1-1v0h-8.88c-0 0-0.001 0-0.001 0-0.196 0-0.366-0.113-0.448-0.277l-0.001-0.003-0.45-0.89c-0.249-0.496-0.753-0.83-1.336-0.83-0.001 0-0.003 0-0.004 0h-4.88c-0.552 0-1 0.448-1 1v0 14c0 0.552 0.448 1 1 1v0z"></path>
<path d="M5 8v10c-0.003 0.924-0.633 1.701-1.486 1.927l-0.014 0.003c0.149 0.042 0.321 0.068 0.499 0.070l0.001 0h16.5c0.828 0 1.5-0.672 1.5-1.5v0-9.5c0-0.552-0.448-1-1-1v0h-16z"></path>
</svg>
