<!-- Generated by IcoMoon.io -->
<svg version="1.1" xmlns="http://www.w3.org/2000/svg" width="24" height="24" viewBox="0 0 24 24">
<title>guardrails-bold</title>
<path d="M20 2h-16c-1.1 0-2 0.9-2 2v16c0 1.1 0.9 2 2 2h16c1.1 0 2-0.9 2-2v-16c0-1.1-0.9-2-2-2zM17 17.1c-0.2 0.2-0.4 0.4-0.7 0.6s-0.7 0.4-1.1 0.6c-0.4 0.2-0.9 0.3-1.5 0.5-0.6 0.1-1.2 0.2-1.9 0.2-0.9 0-1.7-0.1-2.4-0.4s-1.3-0.7-1.8-1.3c-0.5-0.6-0.9-1.3-1.2-2.1s-0.4-1.8-0.4-2.8v-0.8c0-1.1 0.1-2 0.4-2.8s0.7-1.5 1.2-2.1c0.5-0.6 1.1-1 1.8-1.3s1.4-0.4 2.2-0.4c0.9 0 1.7 0.1 2.3 0.3s1.2 0.5 1.6 1 0.8 0.9 1 1.5c0.3 0.5 0.4 1.2 0.5 1.8h-3c0-0.3-0.1-0.6-0.2-0.9s-0.2-0.5-0.4-0.7c-0.2-0.2-0.4-0.3-0.7-0.4s-0.6-0.1-0.9-0.1c-0.4 0-0.7 0.1-1 0.3s-0.6 0.4-0.8 0.8c-0.3 0.3-0.5 0.7-0.6 1.2s-0.2 1.1-0.2 1.8v0.8c0 1.4 0.2 2.4 0.7 3.1 0.4 0.7 1.2 1 2.1 1 0.3 0 0.5 0 0.7-0.1 0.2 0 0.4-0.1 0.5-0.1s0.3-0.1 0.4-0.2c0.1-0.1 0.2-0.1 0.3-0.2v-2.1h-2.2v-2.3h5.3v5.6z"></path>
</svg>
