<!-- Generated by IcoMoon.io -->
<svg version="1.1" xmlns="http://www.w3.org/2000/svg" width="24" height="24" viewBox="0 0 24 24">
<title>hand-pointer-bold</title>
<path d="M15 22l4.64-8.72c0.109-0.187 0.173-0.411 0.173-0.65 0-0.723-0.586-1.31-1.31-1.31-0.36 0-0.686 0.145-0.923 0.38l0-0-2.58 2.51v-11.21c0-0.552-0.448-1-1-1s-1 0.448-1 1v0 8.5c0 0.276-0.224 0.5-0.5 0.5s-0.5-0.224-0.5-0.5v0-4c0-0.276-0.224-0.5-0.5-0.5v0h-1c-0.276 0-0.5 0.224-0.5 0.5v0 4c0 0.276-0.224 0.5-0.5 0.5s-0.5-0.224-0.5-0.5v0-3c0-0.276-0.224-0.5-0.5-0.5v0h-1c-0.276 0-0.5 0.224-0.5 0.5v0 3c0 0.276-0.224 0.5-0.5 0.5s-0.5-0.224-0.5-0.5v0-2c0-0.276-0.224-0.5-0.5-0.5v0h-1c-0.276 0-0.5 0.224-0.5 0.5v0 4.36s0 0.060 0 0.1v0 0c0.014 1.149 0.21 2.247 0.562 3.274l-0.022-0.074 1.46 4.84z"></path>
</svg>
