<!-- Generated by IcoMoon.io -->
<svg version="1.1" xmlns="http://www.w3.org/2000/svg" width="24" height="24" viewBox="0 0 24 24">
<title>hand-bold</title>
<path d="M18 22l1.46-4.8c0.342-0.992 0.54-2.136 0.54-3.326 0-0.005 0-0.010 0-0.015v0.001-5.86c0-0.552-0.448-1-1-1s-1 0.448-1 1v0 3.5c0 0.276-0.224 0.5-0.5 0.5s-0.5-0.224-0.5-0.5v0-6.5c0-0.552-0.448-1-1-1s-1 0.448-1 1v0 6.5c0 0.276-0.224 0.5-0.5 0.5s-0.5-0.224-0.5-0.5v0-8.5c0-0.552-0.448-1-1-1s-1 0.448-1 1v0 8.5c0 0.276-0.224 0.5-0.5 0.5s-0.5-0.224-0.5-0.5v0-6.5c0-0.552-0.448-1-1-1s-1 0.448-1 1v0 9.2l-2.58-2.5c-0.237-0.235-0.563-0.38-0.923-0.38-0.723 0-1.31 0.586-1.31 1.31 0 0.239 0.064 0.463 0.176 0.656l-0.003-0.006 4.64 8.72z"></path>
</svg>
