<!-- Generated by IcoMoon.io -->
<svg version="1.1" xmlns="http://www.w3.org/2000/svg" width="24" height="24" viewBox="0 0 24 24">
<title>hand-deny-bold</title>
<path d="M16.83 5c-0.172-0-0.337-0.030-0.491-0.083l0.011 0.003-4.14-1.38c-0.956-0.331-2.058-0.527-3.204-0.54l-0.006-0h-4.5c-0.276 0-0.5 0.224-0.5 0.5v0 1c0 0 0 0 0 0 0 0.269 0.213 0.489 0.479 0.5l0.001 0h2c0.276 0 0.5 0.224 0.5 0.5s-0.224 0.5-0.5 0.5v0h-3c-0.276 0-0.5 0.224-0.5 0.5v0 1c0 0 0 0 0 0 0 0.269 0.213 0.489 0.479 0.5l0.001 0h2c0.276 0 0.5 0.224 0.5 0.5s-0.224 0.5-0.5 0.5v0h-3c-0.276 0-0.5 0.224-0.5 0.5v0 1c0 0 0 0 0 0 0 0.269 0.213 0.489 0.479 0.5l0.001 0h3c0.276 0 0.5 0.224 0.5 0.5s-0.224 0.5-0.5 0.5v0h-3c-0.276 0-0.5 0.224-0.5 0.5v0 1c0 0.276 0.224 0.5 0.5 0.5v0h6.56c0.001 0 0.001 0 0.002 0 0.276 0 0.5 0.224 0.5 0.5 0 0.072-0.015 0.141-0.043 0.203l0.001-0.003-1.26 2.91c-0.050 0.2-0.51 2 0.18 2.86 0.249 0.324 0.637 0.531 1.073 0.531 0.017 0 0.033-0 0.049-0.001l-0.002 0h0.31l1.93-3.85c0.107-0.213 0.256-0.39 0.436-0.527l0.004-0.003 3.090-2.32c0.248-0.187 0.561-0.3 0.9-0.3h5.83v-9z"></path>
</svg>
