<!-- Generated by IcoMoon.io -->
<svg version="1.1" xmlns="http://www.w3.org/2000/svg" width="24" height="24" viewBox="0 0 24 24">
<title>hand-grab-bold</title>
<path d="M19 8.48v-2c0-0.276-0.224-0.5-0.5-0.5v0h-1c-0.276 0-0.5 0.224-0.5 0.5v0 3c0 0.276-0.224 0.5-0.5 0.5s-0.5-0.224-0.5-0.5v0-4c0-0.276-0.224-0.5-0.5-0.5v0h-1c-0.276 0-0.5 0.224-0.5 0.5v0 3c0 0.276-0.224 0.5-0.5 0.5s-0.5-0.224-0.5-0.5v0-4c0-0.276-0.224-0.5-0.5-0.5v0h-1c-0.276 0-0.5 0.224-0.5 0.5v0 4c0 0.276-0.224 0.5-0.5 0.5s-0.5-0.224-0.5-0.5v0-3c-0.011-0.267-0.23-0.48-0.5-0.48-0 0-0 0-0 0h-1c-0.276 0-0.5 0.224-0.5 0.5v0 6c0 0.276-0.224 0.5-0.5 0.5s-0.5-0.224-0.5-0.5v0-3.5h-0.5c-1.381 0-2.5 1.119-2.5 2.5v0 3c0.006 3.588 2.912 6.494 6.499 6.5h3.001c3.035-0.006 5.494-2.465 5.5-5.499v-0.001s0-6.010 0-6.020z"></path>
</svg>
