<!-- Generated by IcoMoon.io -->
<svg version="1.1" xmlns="http://www.w3.org/2000/svg" width="24" height="24" viewBox="0 0 24 24">
<title>hard-drive-bold</title>
<path d="M3.5 14h16c0.001 0 0.003 0 0.005 0 0.496 0 0.957 0.145 1.345 0.396l-0.010-0.006-1.71-11.12c-0.111-0.723-0.728-1.27-1.474-1.27-0.006 0-0.011 0-0.017 0h-12.279c-0.002 0-0.004-0-0.006-0-0.745 0-1.363 0.547-1.473 1.262l-0.001 0.008-1.72 11.12c0.378-0.245 0.839-0.39 1.335-0.39 0.002 0 0.003 0 0.005 0h-0z"></path>
<path d="M20.91 16c-0.212-0.586-0.762-0.998-1.41-1h-16c-0.824 0.011-1.489 0.676-1.5 1.499v3.001c0 0.828 0.672 1.5 1.5 1.5v0h16c0.828 0 1.5-0.672 1.5-1.5v0-3c-0.001-0.18-0.034-0.351-0.093-0.51l0.003 0.010zM5 19.5c-0.828 0-1.5-0.672-1.5-1.5s0.672-1.5 1.5-1.5c0.828 0 1.5 0.672 1.5 1.5v0c0 0.828-0.672 1.5-1.5 1.5v0zM15 19c-0.552 0-1-0.448-1-1s0.448-1 1-1c0.552 0 1 0.448 1 1v0c0 0.552-0.448 1-1 1v0zM18 19c-0.552 0-1-0.448-1-1s0.448-1 1-1c0.552 0 1 0.448 1 1v0c0 0.552-0.448 1-1 1v0z"></path>
</svg>
