<!-- Generated by IcoMoon.io -->
<svg version="1.1" xmlns="http://www.w3.org/2000/svg" width="24" height="24" viewBox="0 0 24 24">
<title>hazard-bold</title>
<path d="M9.53 8.73c0.701-0.452 1.556-0.721 2.475-0.721s1.774 0.269 2.493 0.732l-0.018-0.011 1.080-1.68c-1.007-0.647-2.236-1.032-3.555-1.032s-2.548 0.385-3.581 1.048l0.026-0.016z"></path>
<path d="M14.55 16.41l1.12 1.66c1.438-0.967 2.462-2.455 2.803-4.188l0.007-0.042-2-0.37c-0.237 1.23-0.94 2.264-1.914 2.93l-0.016 0.010z"></path>
<path d="M8.33 18.060l1.12-1.66c-1.019-0.667-1.748-1.706-1.995-2.921l-0.005-0.029-2 0.37c0.363 1.789 1.412 3.283 2.855 4.225l0.025 0.015z"></path>
<path d="M21 16h2c0-0.001 0-0.002 0-0.003 0-3.243-2.573-5.886-5.79-5.996l-0.010-0c0.495-0.854 0.787-1.878 0.787-2.971 0-2.204-1.188-4.13-2.959-5.174l-0.028-0.015-1 1.72c1.184 0.709 1.964 1.985 1.964 3.443 0 1.234-0.559 2.338-1.438 3.072l-0.006 0.005c-0.632-0.656-1.519-1.064-2.5-1.064s-1.868 0.407-2.499 1.062l-0.001 0.001c-0.895-0.739-1.461-1.849-1.461-3.091 0-1.449 0.77-2.717 1.923-3.419l0.018-0.010-1-1.72c-1.791 1.060-2.972 2.982-2.972 5.18 0 1.096 0.294 2.124 0.808 3.009l-0.015-0.029c-3.235 0.1-5.82 2.747-5.82 5.997 0 0.001 0 0.002 0 0.003v-0h2c0.022-2.193 1.804-3.962 4-3.962 0.541 0 1.056 0.107 1.527 0.302l-0.027-0.010c0 0.060 0 0.12 0 0.18 0.008 1.568 1.048 2.891 2.475 3.324l0.025 0.006c0.002 0.047 0.003 0.102 0.003 0.158 0 2.209-1.791 4-4 4-0.738 0-1.429-0.2-2.022-0.548l0.019 0.010-1 1.73c0.861 0.505 1.895 0.805 2.999 0.81h0.001c0.015 0 0.033 0 0.051 0 2.063 0 3.878-1.057 4.936-2.658l0.014-0.022c1.071 1.624 2.887 2.68 4.949 2.68 0.018 0 0.036-0 0.053-0l-0.003 0c1.104-0.002 2.138-0.298 3.029-0.816l-0.029 0.016-1-1.74c-0.574 0.338-1.265 0.538-2.003 0.538-2.209 0-4-1.791-4-4 0-0.055 0.001-0.111 0.003-0.166l-0 0.008c1.444-0.446 2.475-1.767 2.48-3.329v-0.001c0-0.060 0-0.12 0-0.18 0.449-0.19 0.972-0.3 1.52-0.3 2.199 0 3.983 1.774 4 3.968v0.002zM12 14c-0.828 0-1.5-0.672-1.5-1.5s0.672-1.5 1.5-1.5c0.828 0 1.5 0.672 1.5 1.5v0c0 0.828-0.672 1.5-1.5 1.5v0z"></path>
</svg>
