<!-- Generated by IcoMoon.io -->
<svg version="1.1" xmlns="http://www.w3.org/2000/svg" width="24" height="24" viewBox="0 0 24 24">
<title>headset-bold</title>
<path d="M19.45 8.19c-0.42-3.501-3.371-6.188-6.95-6.19h-1c-3.579 0.002-6.53 2.689-6.947 6.157l-0.003 0.033c-0.917 0.384-1.549 1.273-1.55 2.31v4c0 1.381 1.119 2.5 2.5 2.5v0h1.5v-9h-0.4c0.481-2.299 2.492-4 4.899-4 0 0 0.001 0 0.001 0h1c0 0 0.001 0 0.001 0 2.407 0 4.417 1.701 4.893 3.967l0.006 0.033h-0.4v9h0.5c0 1.657-1.343 3-3 3v0h-1.28c-0.352-0.602-0.996-1-1.732-1-1.105 0-2 0.895-2 2s0.895 2 2 2c0.736 0 1.38-0.398 1.727-0.991l0.005-0.009h1.28c2.761 0 5-2.239 5-5v0h-1c1.381 0 2.5-1.119 2.5-2.5v0-4c-0.001-1.037-0.633-1.926-1.534-2.304l-0.016-0.006z"></path>
</svg>
