<!-- Generated by IcoMoon.io -->
<svg version="1.1" xmlns="http://www.w3.org/2000/svg" width="24" height="24" viewBox="0 0 24 24">
<title>healthcare-bold</title>
<path d="M16 7.5c3.5 0 5.89-1.65 6.5-3-2 0-4-2-6.5-2-0.040-0.002-0.087-0.003-0.134-0.003-0.644 0-1.244 0.187-1.749 0.511l0.013-0.008c-0.32-0.884-1.153-1.505-2.13-1.505s-1.81 0.62-2.125 1.489l-0.005 0.016c-0.492-0.315-1.092-0.503-1.736-0.503-0.047 0-0.094 0.001-0.14 0.003l0.007-0c-2.5 0-4.5 2-6.5 2 0.61 1.34 3 3 6.5 3 0.054 0.002 0.117 0.003 0.181 0.003 0.673 0 1.319-0.115 1.92-0.325l-0.041 0.012 0.66 6.81c-2.95-0.28-4.72-1.27-4.72-2 0-0.48 0.81-1.17 2.62-1.62l-0.24-1c-2.15 0.56-3.38 1.5-3.38 2.62s1.37 2.060 3.21 2.54c-1.31 0.41-2.21 1.060-2.21 1.96 0 1.060 1.26 1.79 3 2.18-0.549 0.215-0.942 0.715-1 1.314l-0 0.006c0 0.35 0.17 1 1.3 1.51l0.4-0.92c-0.48-0.21-0.7-0.45-0.7-0.59 0-0.3 0.83-0.81 2.22-1l0.28 2.88c0 0.276 0.224 0.5 0.5 0.5s0.5-0.224 0.5-0.5v0l0.28-2.88c1.39 0.15 2.22 0.66 2.22 1 0 0.14-0.22 0.38-0.7 0.59l0.4 0.92c1.13-0.51 1.3-1.16 1.3-1.51-0.058-0.605-0.451-1.105-0.989-1.316l-0.011-0.004c1.7-0.39 3-1.12 3-2.18 0-0.9-0.9-1.55-2.21-2 1.84-0.44 3.21-1.3 3.21-2.5s-1.23-2.060-3.38-2.59l-0.24 1c1.81 0.42 2.62 1.11 2.62 1.59 0 0.73-1.77 1.72-4.72 2l0.67-6.79c0.545 0.187 1.173 0.294 1.826 0.294 0.079 0 0.157-0.002 0.235-0.005l-0.011 0zM7 16.5c0-0.52 1.49-1.26 3.83-1.45l0.28 2.95c-2.5-0.19-4.11-1-4.11-1.5zM17 16.5c0 0.54-1.61 1.31-4.11 1.47l0.29-2.92c2.33 0.19 3.82 0.95 3.82 1.45z"></path>
</svg>
