<!-- Generated by IcoMoon.io -->
<svg version="1.1" xmlns="http://www.w3.org/2000/svg" width="24" height="24" viewBox="0 0 24 24">
<title>heart-bold</title>
<path d="M15.5 3c-1.704 0.169-3.152 1.131-3.987 2.507l-0.013 0.023c-0.848-1.399-2.296-2.361-3.978-2.528l-0.022-0.002c-3.4 0-5.5 3.37-5.5 6.5 0 4.31 3.39 7.13 6.11 9.4 1.134 0.845 2.12 1.793 2.976 2.849l0.024 0.031 0.42 0.62 0.42-0.62c0.88-1.087 1.866-2.035 2.957-2.849l0.043-0.031c2.66-2.27 6.050-5.090 6.050-9.4 0-3.13-2.1-6.5-5.5-6.5z"></path>
</svg>
