<!-- Generated by IcoMoon.io -->
<svg version="1.1" xmlns="http://www.w3.org/2000/svg" width="24" height="24" viewBox="0 0 24 24">
<title>heartbeat-bold</title>
<path d="M6.52 11l0.83 1.18 2.2-4.4 1.85 4.17 2-5.63 2.35 5.68 0.74-1h4.37c0.089-0.446 0.14-0.959 0.14-1.485 0-0.005 0-0.011-0-0.016v0.001c0-3.13-2.1-6.5-5.5-6.5-1.704 0.169-3.152 1.131-3.987 2.507l-0.013 0.023c-0.848-1.399-2.296-2.361-3.978-2.528l-0.022-0.002c-3.4 0-5.5 3.37-5.5 6.5 0 0.005-0 0.010-0 0.015 0 0.525 0.051 1.038 0.148 1.535l-0.008-0.050z"></path>
<path d="M17.52 13l-2.26 3.19-1.71-4.27-2 5.37-2.1-4.83-1.8 3.6-2.17-3.060h-2.67c1.17 2.45 3.4 4.31 5.3 5.9 1.134 0.845 2.12 1.793 2.976 2.849l0.024 0.031 0.42 0.62 0.42-0.62c0.88-1.087 1.866-2.035 2.957-2.849l0.043-0.031c1.91-1.59 4.13-3.45 5.3-5.9z"></path>
</svg>
