<?xml version="1.0" encoding="utf-8"?>
<!-- Generator: Adobe Illustrator 25.0.1, SVG Export Plug-In . SVG Version: 6.00 Build 0)  -->
<svg version="1.1" id="Symbol" xmlns="http://www.w3.org/2000/svg" xmlns:xlink="http://www.w3.org/1999/xlink" x="0px" y="0px"
	 viewBox="0 0 72 72" style="enable-background:new 0 0 72 72;" xml:space="preserve">
<g>
	<g>
		<g>
			<g>
				<g>
					<path d="M37,53.7c-9.8,0-17.9-3.1-22.4-8.4c-0.3-0.3-0.4-0.7-0.4-1.1V26c0-0.5,0.2-0.9,0.5-1.2c4.5-4.2,11.7-6.5,20.2-6.5
						c9.8,0,17.9,3.1,22.4,8.4c0.3,0.3,0.4,0.7,0.4,1.1V46c0,0.5-0.2,0.9-0.5,1.2C52.7,51.4,45.5,53.7,37,53.7z M17.6,43.6
						c3.9,4.3,10.9,6.7,19.4,6.7c7.3,0,13.4-1.8,17.4-5.1V28.4c-3.9-4.3-10.9-6.7-19.4-6.7c-7.3,0-13.4,1.8-17.4,5.1V43.6z M56.1,46
						L56.1,46L56.1,46z"/>
				</g>
			</g>
		</g>
	</g>
	<g>
		<path d="M40.6,34.8l-2.3,2.2c-0.9,0.9-1.2,1.4-1.2,2.7c0,0.3,0.1,0.8,0.1,1.2c0,0.3-0.1,0.4-0.4,0.4h-2.5c-0.4,0-0.7-0.2-0.8-0.5
			c-0.1-0.4-0.3-1.2-0.3-2c0-1.5,0.5-2.4,1.6-3.5l2.3-2.1c0.7-0.7,1.4-1.5,1.4-2.4c0-1.5-1.2-2.2-2.6-2.2c-0.9,0-2.3,0.4-3.3,1
			c-0.4,0.2-0.6,0.2-0.8-0.2l-0.8-2c-0.2-0.4-0.1-0.7,0.3-0.9c1.6-0.9,3.6-1.5,5.4-1.5c3.2,0,6,2,6,5.4
			C42.7,32.1,41.8,33.6,40.6,34.8z M35.4,46.9c-1.1,0-2.3-0.8-2.3-2.1c0-1.4,1.2-2.2,2.3-2.2c1.2,0,2.3,0.8,2.3,2.2
			S36.5,46.9,35.4,46.9z"/>
	</g>
</g>
</svg>
