<!-- Generated by IcoMoon.io -->
<svg version="1.1" xmlns="http://www.w3.org/2000/svg" width="24" height="24" viewBox="0 0 24 24">
<title>hide-bold</title>
<path d="M22.92 12.22c-1.361-1.885-3.061-3.436-5.023-4.588l-0.077-0.042 5.1-5.1-1.42-1.4-5.62 5.61c-1.153-0.44-2.486-0.696-3.878-0.7h-0.002c-6.69 0-10.75 6-10.92 6.22l-0.18 0.28 0.18 0.28c1.221 1.679 2.705 3.084 4.406 4.181l0.064 0.039-4.46 4.5 1.41 1.41 4.9-4.91c1.352 0.621 2.932 0.988 4.596 1l0.004 0c6.69 0 10.75-6 10.92-6.22l0.18-0.28zM8.5 12.5c0-1.933 1.567-3.5 3.5-3.5v0c0.001 0 0.001 0 0.002 0 0.475 0 0.928 0.096 1.341 0.268l-0.023-0.009-1.83 1.83c-0.42 0.155-0.745 0.48-0.897 0.89l-0.003 0.010-1.83 1.83c-0.164-0.39-0.26-0.843-0.26-1.318 0-0.001 0-0.002 0-0.002v0zM12 16c-0.009 0-0.021 0-0.032 0-0.736 0-1.418-0.228-1.98-0.618l0.012 0.008 1.48-1.48c0.151 0.057 0.326 0.090 0.508 0.090 0.004 0 0.008-0 0.012-0h-0.001c0.828 0 1.5-0.672 1.5-1.5v0c-0.001-0.18-0.034-0.351-0.093-0.51l0.003 0.010 1.48-1.48c0.384 0.554 0.614 1.24 0.614 1.98 0 1.933-1.567 3.5-3.5 3.5-0.001 0-0.003 0-0.004 0h0z"></path>
</svg>
