<!-- Generated by IcoMoon.io -->
<svg version="1.1" xmlns="http://www.w3.org/2000/svg" width="24" height="24" viewBox="0 0 24 24">
<title>hospital-building-2-bold</title>
<path d="M11 19h3v3h-3v-3z"></path>
<path d="M9 11.74v10.26h1v-4h5v4h1v-10.26c-0.942 0.784-2.166 1.26-3.5 1.26s-2.558-0.476-3.509-1.268l0.009 0.007zM15 17h-5v-1h5zM15 15h-5v-1h5z"></path>
<path d="M12.5 12c2.485 0 4.5-2.015 4.5-4.5s-2.015-4.5-4.5-4.5c-2.485 0-4.5 2.015-4.5 4.5v0c0 2.485 2.015 4.5 4.5 4.5v0zM10 7h2v-2h1v2h2v1h-2v2h-1v-2h-2z"></path>
<path d="M4 22h4v-9h-4zM5 14h2v1h-2zM5 16h2v1h-2zM5 18h2v1h-2z"></path>
<path d="M17 13v9h4v-9zM20 19h-2v-1h2zM20 17h-2v-1h2zM20 15h-2v-1h2z"></path>
</svg>
