<!-- Generated by IcoMoon.io -->
<svg version="1.1" xmlns="http://www.w3.org/2000/svg" width="24" height="24" viewBox="0 0 24 24">
<title>idn-bold</title>
<path d="M12.5 8c-1.933 0-3.5 1.567-3.5 3.5s1.567 3.5 3.5 3.5c1.933 0 3.5-1.567 3.5-3.5v0c0-1.933-1.567-3.5-3.5-3.5v0zM14 12h-1v1h-1v-1h-1v-1h1v-1h1v1h1z"></path>
<path d="M12 4.93v2.070h1v-2.070c0.869-0.23 1.5-1.010 1.5-1.937 0-1.105-0.895-2-2-2s-2 0.895-2 2c0 0.927 0.631 1.707 1.486 1.933l0.014 0.003z"></path>
<path d="M13 18.070v-2.070h-1v2.070c-0.869 0.23-1.5 1.010-1.5 1.937 0 1.105 0.895 2 2 2s2-0.895 2-2c0-0.927-0.631-1.707-1.486-1.933l-0.014-0.003z"></path>
<path d="M21 9.5c-0.924 0.003-1.701 0.633-1.927 1.486l-0.003 0.014h-2.070v1h2.070c0.23 0.869 1.010 1.5 1.936 1.5 1.105 0 2-0.895 2-2s-0.895-2-2-2c-0.002 0-0.005 0-0.007 0h0z"></path>
<path d="M5.93 12h2.070v-1h-2.070c-0.23-0.869-1.010-1.5-1.937-1.5-1.105 0-2 0.895-2 2s0.895 2 2 2c0.927 0 1.707-0.631 1.933-1.486l0.003-0.014z"></path>
<path d="M16 8.67l1.61-1.61c0.281 0.16 0.618 0.255 0.977 0.255 1.105 0 2-0.895 2-2 0-0.538-0.212-1.026-0.558-1.386l0.001 0.001c-0.362-0.362-0.862-0.587-1.415-0.587s-1.053 0.224-1.415 0.587l-0 0c-0.356 0.361-0.577 0.857-0.577 1.405 0 0.374 0.103 0.725 0.282 1.024l-0.005-0.009-1.57 1.65z"></path>
<path d="M9 14.33l-1.65 1.61c-0.29-0.166-0.637-0.265-1.007-0.265-0.548 0-1.046 0.215-1.414 0.565l0.001-0.001c-0.365 0.362-0.591 0.864-0.591 1.419 0 1.105 0.895 2 2 2s2-0.895 2-2c0-0.376-0.104-0.728-0.284-1.028l0.005 0.009 1.61-1.64z"></path>
<path d="M17.65 15.94l-1.65-1.61-0.71 0.71 1.61 1.61c-0.175 0.291-0.279 0.643-0.279 1.019 0 1.105 0.895 2 2 2s2-0.895 2-2c0-0.555-0.226-1.057-0.591-1.419l-0-0c-0.366-0.345-0.861-0.557-1.405-0.557-0.357 0-0.693 0.091-0.986 0.252l0.011-0.005z"></path>
<path d="M6.34 7.34c0.37-0.004 0.714-0.108 1.009-0.285l-0.009 0.005 1.66 1.61 0.67-0.67-1.61-1.65c0.174-0.29 0.277-0.641 0.277-1.015 0-0.548-0.22-1.044-0.577-1.405l0 0c-0.362-0.362-0.862-0.587-1.415-0.587s-1.053 0.224-1.415 0.587l-0 0c-0.359 0.361-0.582 0.86-0.582 1.41 0 1.102 0.891 1.995 1.991 2h0z"></path>
</svg>
