<?xml version="1.0" encoding="utf-8"?>
<!-- Generator: Adobe Illustrator 25.0.1, SVG Export Plug-In . SVG Version: 6.00 Build 0)  -->
<svg version="1.1" id="Symbol" xmlns="http://www.w3.org/2000/svg" xmlns:xlink="http://www.w3.org/1999/xlink" x="0px" y="0px"
	 viewBox="0 0 72 72" style="enable-background:new 0 0 72 72;" xml:space="preserve">
<g>
	<g>
		<g>
			<g>
				<g>
					<path d="M48.3,34.9h-4.5v-4.5c0-1.1-0.9-2-2-2s-2,0.9-2,2v4.5h-4.5c-1.1,0-2,0.9-2,2s0.9,2,2,2h4.5v4.5c0,1.1,0.9,2,2,2
						s2-0.9,2-2v-4.5h4.5c1.1,0,2-0.9,2-2S49.4,34.9,48.3,34.9z"/>
				</g>
			</g>
			<g>
				<g>
					<path d="M29.1,30.5c-1.1,0-2,0.9-2,2v10.9c0,1.1,0.9,2,2,2c1.1,0,2-0.9,2-2V32.5C31.1,31.4,30.2,30.5,29.1,30.5z"/>
				</g>
			</g>
			<g>
				<g>
					<path d="M29.1,24.8c-1.1,0-2,0.9-2,2v0.8c0,1.1,0.9,2,2,2c1.1,0,2-0.9,2-2v-0.8C31.1,25.7,30.2,24.8,29.1,24.8z"/>
				</g>
			</g>
		</g>
		<g>
			<g>
				<path d="M37,53.7c-9.8,0-17.9-3.1-22.4-8.4c-0.3-0.3-0.4-0.7-0.4-1.1V26c0-0.5,0.2-0.9,0.5-1.2c4.5-4.2,11.7-6.5,20.2-6.5
					c9.8,0,17.9,3.1,22.4,8.4c0.3,0.3,0.4,0.7,0.4,1.1V46c0,0.5-0.2,0.9-0.5,1.2C52.7,51.4,45.5,53.7,37,53.7z M17.6,43.6
					c3.9,4.3,10.9,6.7,19.4,6.7c7.3,0,13.4-1.8,17.4-5.1V28.4c-3.9-4.3-10.9-6.7-19.4-6.7c-7.3,0-13.4,1.8-17.4,5.1V43.6z M56.1,46
					L56.1,46L56.1,46z"/>
			</g>
		</g>
	</g>
</g>
</svg>
