<?xml version="1.0" encoding="utf-8"?>
<!-- Generator: Adobe Illustrator 25.0.1, SVG Export Plug-In . SVG Version: 6.00 Build 0)  -->
<svg version="1.1" id="Symbol" xmlns="http://www.w3.org/2000/svg" xmlns:xlink="http://www.w3.org/1999/xlink" x="0px" y="0px"
	 viewBox="0 0 72 72" style="enable-background:new 0 0 72 72;" xml:space="preserve">
<path d="M67,35.7l-5.5-3.2c-0.2-0.1-0.4,0-0.4,0.2v1.5c0,0.1-0.1,0.3-0.3,0.3H48.7c-0.1,0-0.3-0.1-0.3-0.2
	c-0.9-11.5-10.7-20.5-22.5-20.1c-11.1,0.4-20.3,9.3-21,20.4c-0.8,12.7,9.3,23.2,21.8,23.2c11.5,0,20.9-8.9,21.8-20.2
	c0-0.1,0.1-0.2,0.3-0.2h12.2c0.1,0,0.3,0.1,0.3,0.3v1.4c0,0.2,0.2,0.3,0.4,0.2l5.5-3.2C67.2,36.1,67.2,35.8,67,35.7z M27.2,36.2
	l5.5,3.2c0.2,0.1,0.4,0,0.4-0.2v-1.4c0-0.1,0.1-0.3,0.3-0.3h12c0.2,0,0.3,0.1,0.3,0.3c-0.9,10.2-9.9,18.1-20.5,17.2
	c-8.9-0.7-16.2-7.8-17.2-16.7C6.5,26.7,15.5,17,26.7,17c9.9,0,18,7.6,18.9,17.2c0,0.2-0.1,0.3-0.3,0.3h-12c-0.1,0-0.3-0.1-0.3-0.3
	v-1.5c0-0.2-0.2-0.3-0.4-0.2l-5.5,3.2C27,35.8,27,36.1,27.2,36.2z"/>
</svg>
