<?xml version="1.0" encoding="utf-8"?>
<!-- Generator: Adobe Illustrator 25.0.1, SVG Export Plug-In . SVG Version: 6.00 Build 0)  -->
<svg version="1.1" id="Outlined" xmlns="http://www.w3.org/2000/svg" xmlns:xlink="http://www.w3.org/1999/xlink" x="0px" y="0px"
	 viewBox="0 0 72 72" style="enable-background:new 0 0 72 72;" xml:space="preserve">
<g>
	<path d="M47.8,3.8h-24c-0.6,0-1,0.4-1,1v2.8c0,0.6,0.4,1,1,1h24c0.6,0,1-0.4,1-1V4.8C48.8,4.3,48.4,3.8,47.8,3.8z"/>
	<polygon points="59.5,13.2 52,26.2 53.7,27.2 58.5,18.9 58.5,47.8 60.5,47.8 60.5,18.9 65.2,27.2 67,26.2 	"/>
	<rect x="36.3" y="15" width="5.5" height="5.9"/>
	<path d="M46.8,37.1V12.6c0-1.1-0.9-2-2-2h-18c-1.1,0-2,0.9-2,2v23.3c0,0-0.1,0-0.1,0c-1.9,0-3.5,1.6-3.5,3.5v4.4V54
		c0,1.3,0.5,2.6,1.4,3.5l4.8,5.2c0.5,0.6,0.8,1.3,0.8,2.1v5.7h15v-7c0-2,0.4-4.1,1.1-6L48.1,47c0.6-1.7,0.7-3.6,0.1-5.4L46.8,37.1z
		 M26.7,12.6h18l0,27.4h-1v-7.4c0-2.1-1.7-3.8-3.8-3.8s-3.8,1.7-3.8,3.8v7.4h-9.4V12.6z M36.2,43.8c0,0.8-0.7,1.5-1.5,1.5
		s-1.5-0.7-1.5-1.5v-1.8h3V43.8z M28.1,42.1h3v1.8c0,0.8-0.7,1.5-1.5,1.5c-0.8,0-1.5-0.7-1.5-1.5V42.1z M23.1,39.4
		c0-0.8,0.7-1.5,1.5-1.5c0,0,0.1,0,0.1,0v2.1c0,0.9,0.6,1.6,1.4,1.9v1.9c0,0.8-0.7,1.5-1.5,1.5c-0.8,0-1.5-0.7-1.5-1.5V39.4z
		 M46.2,46.4l-3.9,10.6c-0.8,2.1-1.2,4.4-1.2,6.7v5h-11v-3.7c0-1.3-0.5-2.6-1.4-3.5L24,56.1c-0.6-0.6-0.9-1.4-0.9-2.2v-7
		c0.5,0.2,1,0.4,1.5,0.4c1,0,1.9-0.4,2.5-1.1c0.6,0.7,1.5,1.1,2.5,1.1s1.9-0.4,2.5-1.1c0.6,0.6,1.3,0.9,2.1,1L33.5,48
		c-1.3,1.3-2,2.9-2,4.7v4.3h2v-4.3c0-1.3,0.5-2.4,1.4-3.3l1.6-1.6c1.1-1.1,1.7-2.5,1.7-4v-0.1v-1.8v-1v-1v-7.4c0-1,0.8-1.8,1.8-1.8
		s1.8,0.8,1.8,1.8v7.4v2v3.7h2v-3.7h1c0.5,0,1-0.2,1.3-0.5l0.2,0.7C46.7,43.6,46.7,45,46.2,46.4z"/>
</g>
</svg>
