<!-- Generated by IcoMoon.io -->
<svg version="1.1" xmlns="http://www.w3.org/2000/svg" width="24" height="24" viewBox="0 0 24 24">
<title>iv-full-bold</title>
<path d="M11 21h1v2h-1v-2z"></path>
<path d="M19 6v9.85c-0.004 1.203-0.853 2.206-1.984 2.447l-0.016 0.003-3 0.6v2.1h-5v-2.090l-3-0.6c-1.147-0.244-1.996-1.247-2-2.45v-9.86c0.005-1.133 0.759-2.088 1.792-2.395l0.018-0.005 5.69-1.6 5.69 1.6c1.051 0.312 1.805 1.267 1.81 2.399v0.001zM17 8h-11v8.27l5 1v2.73h1v-2.73l5-1zM11.5 4.5c-0.552 0-1 0.448-1 1s0.448 1 1 1c0.552 0 1-0.448 1-1v0c0-0.552-0.448-1-1-1v0z"></path>
</svg>
