<!-- Generated by IcoMoon.io -->
<svg version="1.1" xmlns="http://www.w3.org/2000/svg" width="24" height="24" viewBox="0 0 24 24">
<title>keyboard-bold</title>
<path d="M23 6.5v10c0 0.828-0.672 1.5-1.5 1.5v0h-18c-0.828 0-1.5-0.672-1.5-1.5v0-10c0-0.828 0.672-1.5 1.5-1.5v0h18c0.828 0 1.5 0.672 1.5 1.5v0zM6 8h-1v1h1zM8 8h-1v1h1zM10 8h-1v1h1zM9 10h-1v1h1zM9 12h-1v1h1zM11 10h-1v1h1zM11 12h-1v1h1zM13 10h-1v1h1zM13 12h-1v1h1zM15 10h-1v1h1zM15 12h-1v1h1zM17 10h-1v1h1zM17 12h-1v1h1zM12 8h-1v1h1zM14 8h-1v1h1zM16 8h-1v1h1zM18 8h-1v1h1zM20 8h-1v1h1zM7 10h-2v1h2zM7 12h-2v1h2zM7 14h-2v1h2zM20 10h-2v1h2zM20 12h-2v1h2zM20 14h-2v1h2zM17 14h-9v1h9z"></path>
</svg>
