<!-- Generated by IcoMoon.io -->
<svg version="1.1" xmlns="http://www.w3.org/2000/svg" width="24" height="24" viewBox="0 0 24 24">
<title>laptop-bold</title>
<path d="M13.5 18h-3c-0.648-0.002-1.198-0.414-1.407-0.99l-0.003-0.010h-8.090v1.5c0 0.828 0.672 1.5 1.5 1.5v0h19c0.828 0 1.5-0.672 1.5-1.5v0-1.5h-8.090c-0.212 0.586-0.762 0.998-1.41 1h-0z"></path>
<path d="M5 7h14v6h-14v-6z"></path>
<path d="M20.5 4h-17c-0.828 0-1.5 0.672-1.5 1.5v0 10.5h8v0.5c0 0.276 0.224 0.5 0.5 0.5v0h3c0.276 0 0.5-0.224 0.5-0.5v0-0.5h8v-10.5c0-0.828-0.672-1.5-1.5-1.5v0zM20 14h-16v-8h16z"></path>
</svg>
