<!-- Generated by IcoMoon.io -->
<svg version="1.1" xmlns="http://www.w3.org/2000/svg" width="24" height="24" viewBox="0 0 24 24">
<title>location-pin-bold</title>
<path d="M13 9.86v9.14h-2v-9.14c-1.739-0.46-3-2.019-3-3.873 0-2.209 1.791-4 4-4s4 1.791 4 4c0 1.854-1.261 3.413-2.972 3.867l-0.028 0.006zM14.25 6c0-1.243-1.007-2.25-2.25-2.25v0h-0.5v1h0.5c0.69 0 1.25 0.56 1.25 1.25v0 0.5h1z"></path>
<path d="M12 22c-10.21 0-11-2.3-11-3s0-2.4 7.87-2.9h0.13v2h-0.050c-1.962 0.062-3.825 0.387-5.587 0.94l0.147-0.040c2.246 0.646 4.826 1.018 7.493 1.018 0.351 0 0.7-0.006 1.048-0.019l-0.050 0.001c0.3 0.011 0.652 0.018 1.005 0.018 2.667 0 5.248-0.372 7.693-1.066l-0.198 0.048c-1.651-0.522-3.556-0.851-5.529-0.909l-0.031-0.001 0.13-2c7.93 0.5 7.93 2.31 7.93 2.91s-0.79 3-11 3z"></path>
</svg>
