<?xml version="1.0" encoding="utf-8"?>
<!-- Generator: Adobe Illustrator 25.0.1, SVG Export Plug-In . SVG Version: 6.00 Build 0)  -->
<svg version="1.1" id="Symbol" xmlns="http://www.w3.org/2000/svg" xmlns:xlink="http://www.w3.org/1999/xlink" x="0px" y="0px"
	 viewBox="0 0 72 72" style="enable-background:new 0 0 72 72;" xml:space="preserve">
<g>
	<path d="M49.8,32.1h-2v-3.9c0-6.5-5.3-11.8-11.8-11.8c-6.5,0-11.8,5.3-11.8,11.8v3.9h-2c-1.1,0-2,0.9-2,2v19.7c0,1.1,0.9,2,2,2
		h27.5c1.1,0,2-0.9,2-2V34C51.7,33,50.8,32.1,49.8,32.1 M43.9,32.1H28.1v-3.9c0-4.3,3.5-7.9,7.9-7.9c4.3,0,7.9,3.5,7.9,7.9V32.1z"/>
</g>
</svg>
