<!-- Generated by IcoMoon.io -->
<svg version="1.1" xmlns="http://www.w3.org/2000/svg" width="24" height="24" viewBox="0 0 24 24">
<title>lungs-bold</title>
<path d="M19.11 6.79l-0.61-0.41c-0.351-0.238-0.784-0.379-1.25-0.379-1.243 0-2.25 1.007-2.25 2.25 0 0.003 0 0.006 0 0.010v-0 3.69c-0.618-0.628-1-1.49-1-2.441 0-0.003 0-0.006 0-0.009v0-7.5h-4v7.5c-0 0.951-0.382 1.813-1 2.44l0-0v-3.68c-0.004-1.239-1.010-2.243-2.25-2.243-0.462 0-0.891 0.139-1.248 0.378l0.008-0.005-0.61 0.41c-1.756 1.178-2.898 3.156-2.9 5.4v8c-0 0.009-0 0.019-0 0.030 0 0.974 0.787 1.764 1.76 1.77h0.001c0.003 0 0.007 0 0.011 0 0.2 0 0.392-0.033 0.571-0.094l-0.013 0.004c2.663-0.899 4.566-3.329 4.67-6.218l0-0.012c1.205-0.389 2.221-1.082 2.992-1.991l0.008-0.009c0.779 0.918 1.795 1.611 2.954 1.987l0.046 0.013c0.105 2.892 1.998 5.316 4.602 6.206l0.048 0.014c0.167 0.057 0.36 0.090 0.561 0.090 0.003 0 0.007 0 0.010-0h-0.001c0.003 0 0.006 0 0.010 0 0.974 0 1.764-0.787 1.77-1.759v-8.001c0-0.012 0-0.026 0-0.040 0-2.243-1.137-4.22-2.867-5.385l-0.023-0.015zM11 3h2v1h-2zM11 5h2v1h-2zM11 7h2v1h-2zM19 15h-2c-1.906-0.002-3.584-0.974-4.567-2.45l-0.013-0.020-0.42-0.62-0.42 0.63c-0.997 1.491-2.675 2.46-4.578 2.46-0.001 0-0.001 0-0.002 0h-2v-1h1.5c2.485 0 4.5-2.015 4.5-4.5v0-0.5h2v0.5c0 2.485 2.015 4.5 4.5 4.5v0h1.5z"></path>
</svg>
