<!-- Generated by IcoMoon.io -->
<svg version="1.1" xmlns="http://www.w3.org/2000/svg" width="24" height="24" viewBox="0 0 24 24">
<title>microscope-bold</title>
<path d="M6.5 15.21l1.5-1.5 0.79 0.79-1 1 0.71 0.71 1-1 1 1 2-2-4.71-4.71-2 2 1.5 1.5-1.5 1.5 0.71 0.71z"></path>
<path d="M16.502 2.788l2.001-2.001 2.708 2.708-2.001 2.001-2.708-2.708z"></path>
<path d="M18.54 21c1.519-1.386 2.469-3.374 2.469-5.584 0-2.586-1.3-4.869-3.283-6.229l-0.026-0.017-0.1-0.070 1.9-1.9-4.71-4.7-6.29 6.29 4.71 4.71 3-3 0.41 0.28c1.519 1.011 2.506 2.716 2.506 4.651 0 3.076-2.494 5.57-5.57 5.57-0.044 0-0.088-0.001-0.132-0.002l0.007 0h-11.43v2h20v-2z"></path>
<path d="M3 18h12v2h-12v-2z"></path>
</svg>
