<!-- Generated by IcoMoon.io -->
<svg version="1.1" xmlns="http://www.w3.org/2000/svg" width="24" height="24" viewBox="0 0 24 24">
<title>modem-bold</title>
<path d="M3 20c-0.552 0-1 0.448-1 1s0.448 1 1 1c0.552 0 1-0.448 1-1v0c0-0.552-0.448-1-1-1v0z"></path>
<path d="M21 20c-0.552 0-1 0.448-1 1s0.448 1 1 1c0.552 0 1-0.448 1-1v0c0-0.552-0.448-1-1-1v0z"></path>
<path d="M20.5 4h-17c-0.828 0-1.5 0.672-1.5 1.5v0 3c0 0.828 0.672 1.5 1.5 1.5v0h17c0.828 0 1.5-0.672 1.5-1.5v0-3c0-0.828-0.672-1.5-1.5-1.5v0zM5 8.5c-0.828 0-1.5-0.672-1.5-1.5s0.672-1.5 1.5-1.5c0.828 0 1.5 0.672 1.5 1.5v0c0 0.828-0.672 1.5-1.5 1.5v0zM16 8c-0.552 0-1-0.448-1-1s0.448-1 1-1c0.552 0 1 0.448 1 1v0c0 0.552-0.448 1-1 1v0zM19 8c-0.552 0-1-0.448-1-1s0.448-1 1-1c0.552 0 1 0.448 1 1v0c0 0.552-0.448 1-1 1v0z"></path>
<path d="M20.5 11h-17c-0.828 0-1.5 0.672-1.5 1.5v0 3c0 0.828 0.672 1.5 1.5 1.5v0h7.5v3h-6v2h14v-2h-6v-3h7.5c0.828 0 1.5-0.672 1.5-1.5v0-3c0-0.828-0.672-1.5-1.5-1.5v0zM5 15.5c-0.828 0-1.5-0.672-1.5-1.5s0.672-1.5 1.5-1.5c0.828 0 1.5 0.672 1.5 1.5v0c0 0.828-0.672 1.5-1.5 1.5v0zM16 15c-0.552 0-1-0.448-1-1s0.448-1 1-1c0.552 0 1 0.448 1 1v0c0 0.552-0.448 1-1 1v0zM19 15c-0.552 0-1-0.448-1-1s0.448-1 1-1c0.552 0 1 0.448 1 1v0c0 0.552-0.448 1-1 1v0z"></path>
</svg>
