<!-- Generated by IcoMoon.io -->
<svg version="1.1" xmlns="http://www.w3.org/2000/svg" width="24" height="24" viewBox="0 0 24 24">
<title>network-bold</title>
<path d="M18 14c-1.399 0.004-2.628 0.725-3.341 1.815l-0.009 0.015-5.85-2.65c0.125-0.35 0.197-0.754 0.197-1.175s-0.072-0.825-0.204-1.2l0.008 0.025 5.84-2.66c0.723 1.108 1.957 1.83 3.36 1.83 2.209 0 4-1.791 4-4s-1.791-4-4-4c-2.209 0-4 1.791-4 4 0 0 0 0 0 0v-0c0 0.090 0 0.17 0 0.25l-6.25 2.86c-0.716-0.684-1.689-1.105-2.76-1.105-2.209 0-4 1.791-4 4s1.791 4 4 4c1.071 0 2.044-0.421 2.762-1.106l-0.002 0.001 6.25 2.85c0 0.090 0 0.17 0 0.25 0 2.209 1.791 4 4 4s4-1.791 4-4c0-2.209-1.791-4-4-4v0zM18 4c1.105 0 2 0.895 2 2s-0.895 2-2 2c-1.105 0-2-0.895-2-2v0c0-1.105 0.895-2 2-2v0zM5 14c-1.105 0-2-0.895-2-2s0.895-2 2-2c1.105 0 2 0.895 2 2v0c0 1.105-0.895 2-2 2v0zM18 20c-1.105 0-2-0.895-2-2s0.895-2 2-2c1.105 0 2 0.895 2 2v0c0 1.105-0.895 2-2 2v0z"></path>
</svg>
