<?xml version="1.0" encoding="utf-8"?>
<!-- Generator: Adobe Illustrator 25.0.1, SVG Export Plug-In . SVG Version: 6.00 Build 0)  -->
<svg version="1.1" id="Symbol" xmlns="http://www.w3.org/2000/svg" xmlns:xlink="http://www.w3.org/1999/xlink" x="0px" y="0px"
	 viewBox="0 0 72 72" style="enable-background:new 0 0 72 72;" xml:space="preserve">
<g>
	<path d="M54.3,34.7c-0.2-1.6-0.9-3.7-2.9-4.9c-1.3-0.7-2.7-0.8-3.7-0.1c-0.1-0.1-0.2-0.2-0.2-0.2c-1.9-1.9-3.1-2.9-3.8-3.5
		l-0.4-0.3c-0.8-0.7-1.7-1.1-2.6-1c-0.8,0.1-1.7,0.5-2.4,1.3l-8.1-7.6c-0.6-0.6-1.6-0.6-2.2,0.1l-9.5,10.1c-0.6,0.6-0.6,1.6,0.1,2.2
		l10.7,10.1c-0.2,0.3-0.3,0.6-0.4,0.9c-0.1,0.8,0.3,1.7,1.3,2.7l0.1,0.1c1.6,1.6,5,4.8,6.5,6.3c2.9,3,5.3,4.8,8.5,6.2
		c1.5,0.6,3.3,1.6,4.5,2.2c0.5,0.3,1,0.5,1.2,0.6c0.4,0.2,1.2,0.6,2.2,1.5l1.8,1.8c0.2,0.1,0.4,0.2,0.6,0.2c0.2,0,0.4-0.1,0.6-0.2
		l7-7.4c0.3-0.3,0.3-0.7,0-1c0,0-1.2-1.5-1.8-2.2c-0.7-0.9-0.8-1.2-0.9-2c-0.1-0.8-0.2-1.8-0.3-3c-0.3-2.5-0.6-5.6-1.2-8.2
		c-0.5-2-1.2-3.3-2.3-4C55.9,34.7,55.1,34.6,54.3,34.7z M30.4,39.8l-11-10.3L29,19.4l8.7,8.2l0,0l4.5,4.3c0.1,0.1,0.7,0.8,1,1.7
		c0.1,0.4,0.3,1,0.4,1.9l-6.1,6.5c-0.3-0.3-0.6-0.5-0.9-0.7C34.7,39.5,32.3,39,30.4,39.8L30.4,39.8z M43.9,37.3
		c0.3,2,0.6,4.3,0.8,6.4c0.1,0.5,0.1,0.6-0.3,1c-0.5,0.4-1.2,1-1.8,1.4c-0.2,0.1-0.4,0.3-1-0.3c-0.7-0.7-1.9-1.9-3-2.9L43.9,37.3z
		 M54.5,39.6c0,0,0-1.7-0.1-3.3l0,0l0,0l0,0c0.5-0.1,1,0,1.3,0.2c0.7,0.4,1.2,1.4,1.6,3c0.6,2.5,0.9,5.5,1.1,8
		c0.1,1.2,0.2,2.3,0.4,3.1c0.1,0.9,0.3,1.5,1.2,2.7c0.3,0.4,0.9,1.2,1.3,1.7l-6,6.3l-1.2-1.2c-1.1-1.1-2.2-1.6-2.6-1.8
		c-0.2-0.1-0.7-0.3-1.2-0.6c-1.2-0.6-3.1-1.6-4.6-2.2c-3-1.3-5.3-3-8-5.9c-1.4-1.5-4.9-4.8-6.5-6.4l-0.1-0.1
		c-0.9-0.8-0.9-1.2-0.9-1.3c0-0.1,0.2-0.3,0.5-0.5c1-0.6,2.9-0.6,4.8,0.9c1.4,1.2,3.9,3.6,4.9,4.6c1.3,1.4,2.5,0.9,3,0.5
		c0.6-0.5,1.4-1,1.9-1.5c1-0.8,0.9-1.7,0.9-2.4c-0.4-3.8-1.2-9-1.6-10.5c-0.4-1.2-1.1-2.1-1.4-2.4l-4-3.7c0.5-0.5,1-0.7,1.4-0.8
		c0.5,0,0.9,0.2,1.4,0.6l0.4,0.3c0.7,0.7,1.8,1.6,3.7,3.5c1.9,1.9,2,3.8,2,4.7l0,0.3c0,0.8,0.1,2.9,0.1,2.9l1.6,0c0,0,0-2.1-0.1-2.9
		l0-0.2c0-0.8,0-2.5-1.2-4.4l0,0c0.6-0.2,1.3-0.2,2,0.2c1.8,1,2.2,3.4,2.2,5.1c0.1,1.7,0.1,3.3,0.1,3.3L54.5,39.6z"/>
	<path d="M23.4,10.4c-3.4,0.5-6.5,2.1-8.9,4.6s-3.8,5.7-4.1,9.2L8.8,24c0.3-3.8,1.9-7.4,4.5-10.2s6.1-4.6,9.9-5.1L23.4,10.4z"/>
	<path d="M23.9,14.5c-2.5,0.3-4.7,1.5-6.5,3.4c-1.7,1.8-2.8,4.2-3,6.7l-1.6-0.1c0.2-2.8,1.4-5.6,3.4-7.6c2-2.1,4.6-3.4,7.4-3.8
		L23.9,14.5z"/>
	<path d="M24.5,18.7c-1.5,0.2-2.9,0.9-4,2.1c-1.1,1.1-1.7,2.5-1.8,4.1l-1.6-0.1c0.1-1.9,0.9-3.7,2.2-5.1c1.3-1.4,3-2.3,4.9-2.5
		L24.5,18.7z"/>
</g>
</svg>
