<!-- Generated by IcoMoon.io -->
<svg version="1.1" xmlns="http://www.w3.org/2000/svg" width="24" height="24" viewBox="0 0 24 24">
<title>numbered-list-bold</title>
<path d="M8 4.090h15v2h-15v-2z"></path>
<path d="M8 11.090h15v2h-15v-2z"></path>
<path d="M8 18.090h15v2h-15v-2z"></path>
<path d="M5 7.59h-2v-2.45l-1.2-1.22 3.2-3.13v6.8z"></path>
<path d="M6.070 15.090h-5.070l1.2-1.59c0.375-0.509 0.745-0.955 1.139-1.38l-0.009 0.010h-1.33v-1c0-1.105 0.895-2 2-2v0c1.105 0 2 0.895 2 2v0c0.002 0.041 0.004 0.088 0.004 0.136 0 0.739-0.321 1.404-0.831 1.862l-0.002 0.002h0.9z"></path>
<path d="M3.93 21.59h-1.93v-2h0.11l1-1.5h-1.11v-2h4.77l-1.36 2.090c0.324 0.354 0.522 0.827 0.522 1.347 0 0.029-0.001 0.058-0.002 0.087l0-0.004c0.003 0.041 0.005 0.088 0.005 0.137 0 1.022-0.828 1.85-1.85 1.85-0.055 0-0.109-0.002-0.162-0.007l0.007 0z"></path>
</svg>
