<!-- Generated by IcoMoon.io -->
<svg version="1.1" xmlns="http://www.w3.org/2000/svg" width="24" height="24" viewBox="0 0 24 24">
<title>organism-bold</title>
<path d="M13 13.5c0 0.276-0.224 0.5-0.5 0.5s-0.5-0.224-0.5-0.5c0-0.276 0.224-0.5 0.5-0.5s0.5 0.224 0.5 0.5z"></path>
<path d="M23 9v-1h-2.050c-0.039-0.372-0.109-0.712-0.21-1.038l0.010 0.038 2-0.78-0.37-0.93-2 0.79c-0.201-0.38-0.427-0.708-0.686-1.007l0.006 0.007 1.51-1.58-0.71-0.71-1.5 1.53c-0.253-0.221-0.534-0.423-0.834-0.596l-0.026-0.014 0.85-2-0.99-0.36-0.84 2c-0.335-0.133-0.726-0.238-1.131-0.297l-0.029-0.003v-2.050h-1v2.050c-0.372 0.038-0.712 0.109-1.038 0.21l0.038-0.010-0.79-2-0.93 0.37 0.79 2c-0.503 0.255-0.934 0.565-1.311 0.931l0.001-0.001-0.23 0.23-1.53-1.49-0.71 0.71 1.5 1.5-1.29 1.29-1.5-1.5-0.71 0.71 1.5 1.5-1.29 1.29-1.5-1.5-0.71 0.71 1.5 1.5-1.29 1.29-1.5-1.5-0.71 0.71 1.5 1.5-0.23 0.23c-0.326 0.336-0.608 0.717-0.836 1.133l-0.014 0.027-2-0.85-0.4 0.92 2 0.84c-0.124 0.349-0.215 0.756-0.258 1.178l-0.002 0.023h-2.050v1h2.050c0.039 0.372 0.109 0.712 0.21 1.038l-0.010-0.038-2 0.79 0.37 0.93 2-0.79c0.201 0.38 0.427 0.708 0.686 1.007l-0.006-0.007-1.51 1.57 0.71 0.71 1.5-1.53c0.253 0.221 0.534 0.423 0.834 0.596l0.026 0.014-0.85 2 0.92 0.4 0.84-2c0.35 0.121 0.757 0.209 1.179 0.248l0.021 0.002v2.13h1.030v-2.12c0.373-0.039 0.712-0.109 1.038-0.21l-0.038 0.010 0.79 2 0.93-0.37-0.79-2c0.503-0.255 0.934-0.565 1.311-0.931l-0.001 0.001 0.23-0.23 1.5 1.5 0.71-0.71-1.5-1.5 1.29-1.29 1.5 1.5 0.71-0.71-1.5-1.5 1.29-1.29 1.5 1.5 0.71-0.71-1.5-1.5 1.29-1.29 1.5 1.5 0.71-0.71-1.5-1.5 0.23-0.23c0.326-0.336 0.608-0.717 0.836-1.133l0.014-0.027 2 0.85 0.4-0.92-2-0.84c0.134-0.351 0.235-0.76 0.287-1.184l0.003-0.026zM7 17c-1.105 0-2-0.895-2-2s0.895-2 2-2c1.105 0 2 0.895 2 2v0c0 1.105-0.895 2-2 2v0zM9.5 12c-0.273-0.004-0.493-0.226-0.493-0.5 0-0.136 0.055-0.26 0.143-0.35l1-1c0.091-0.091 0.216-0.147 0.355-0.147 0.277 0 0.502 0.225 0.502 0.502 0 0.139-0.056 0.264-0.147 0.355l-1 1c-0.090 0.087-0.212 0.14-0.347 0.14-0.005 0-0.009-0-0.014-0l0.001 0zM11 17.5c0 0.276-0.224 0.5-0.5 0.5s-0.5-0.224-0.5-0.5v0-1c0-0.276 0.224-0.5 0.5-0.5s0.5 0.224 0.5 0.5v0zM12.5 15c-0.828 0-1.5-0.672-1.5-1.5s0.672-1.5 1.5-1.5c0.828 0 1.5 0.672 1.5 1.5v0c0 0.828-0.672 1.5-1.5 1.5v0zM14 10c-1.105 0-2-0.895-2-2s0.895-2 2-2c1.105 0 2 0.895 2 2v0c0 1.105-0.895 2-2 2v0zM16.85 10.85l-1 1c-0.091 0.091-0.216 0.147-0.355 0.147-0.277 0-0.502-0.225-0.502-0.502 0-0.139 0.056-0.264 0.147-0.355l1-1c0.091-0.091 0.216-0.147 0.355-0.147 0.277 0 0.502 0.225 0.502 0.502 0 0.139-0.056 0.264-0.147 0.355v0zM18.5 9h-1c-0.276 0-0.5-0.224-0.5-0.5s0.224-0.5 0.5-0.5v0h1c0.276 0 0.5 0.224 0.5 0.5s-0.224 0.5-0.5 0.5v0z"></path>
<path d="M8 15c0 0.552-0.448 1-1 1s-1-0.448-1-1c0-0.552 0.448-1 1-1s1 0.448 1 1z"></path>
<path d="M15 8c0 0.552-0.448 1-1 1s-1-0.448-1-1c0-0.552 0.448-1 1-1s1 0.448 1 1z"></path>
</svg>
