<!-- Generated by IcoMoon.io -->
<svg version="1.1" xmlns="http://www.w3.org/2000/svg" width="24" height="24" viewBox="0 0 24 24">
<title>orthopedics-bold</title>
<path d="M12.92 15l0.080 0.1v-5.47c-0.627 0.731-1.008 1.687-1.008 2.733 0 1.002 0.35 1.922 0.934 2.645l-0.006-0.008z"></path>
<path d="M22.64 19l-5.55-1.58c-0.625-0.185-1.076-0.748-1.090-1.418l-0-0.002v-11.5c0-1.381-1.119-2.5-2.5-2.5v0h-12c-0.276 0-0.5 0.224-0.5 0.5v0 7c0 0.276 0.224 0.5 0.5 0.5v0h2c2.131-0.002 4.199-0.271 6.172-0.777l-0.172 0.037h0.070c-0.374 0.886-0.594 1.917-0.6 2.998v0.002c0 0.003 0 0.006 0 0.009 0 1.633 0.497 3.15 1.348 4.409l-0.018-0.028 0.67 1v1.85c0 0 0 0 0 0 0 1.381 1.119 2.5 2.5 2.5 0.011 0 0.021-0 0.032-0l-0.002 0h5c0.001 0 0.001 0 0.002 0 0.079 0 0.154-0.018 0.221-0.051l-0.003 0.001 0.78-0.39 0.78 0.39c0.064 0.032 0.139 0.050 0.218 0.050 0.001 0 0.001 0 0.002 0h1c0.828 0 1.5-0.672 1.5-1.5v0-1c0-0.006 0-0.013 0-0.020 0-0.226-0.15-0.418-0.357-0.479l-0.004-0.001zM10.29 6h-5.58l-0.85 0.85c-0.091 0.091-0.216 0.147-0.355 0.147-0.277 0-0.502-0.225-0.502-0.502 0-0.139 0.056-0.264 0.147-0.355l0.65-0.65-0.65-0.65c-0.091-0.091-0.147-0.216-0.147-0.355 0-0.277 0.225-0.502 0.502-0.502 0.139 0 0.264 0.056 0.355 0.147v0l0.85 0.87h5.59l0.85-0.85c0.091-0.091 0.216-0.147 0.355-0.147 0.277 0 0.502 0.225 0.502 0.502 0 0.139-0.056 0.264-0.147 0.355l-0.65 0.65 0.65 0.65c0.091 0.091 0.147 0.216 0.147 0.355 0 0.277-0.225 0.502-0.502 0.502-0.139 0-0.264-0.056-0.355-0.147v0zM14 16.5c-0 0.215-0.136 0.398-0.327 0.469l-0.003 0.001h-0.17c-0.158-0.001-0.298-0.074-0.389-0.189l-0.001-0.001-1-1.21c-0.711-0.882-1.14-2.015-1.14-3.25 0-1.696 0.812-3.202 2.067-4.151l0.013-0.009 0.12-0.090c0.083-0.062 0.187-0.1 0.3-0.1 0.276 0 0.5 0.224 0.5 0.5v0zM14 6.5c0 0.276-0.224 0.5-0.5 0.5s-0.5-0.224-0.5-0.5v0-2c0-0.276 0.224-0.5 0.5-0.5s0.5 0.224 0.5 0.5v0z"></path>
</svg>
