<!-- Generated by IcoMoon.io -->
<svg version="1.1" xmlns="http://www.w3.org/2000/svg" width="24" height="24" viewBox="0 0 24 24">
<title>password-bold</title>
<path d="M22 2v3.71l-1 1v1.29h-1.29l-0.71 0.71v1.29h-1.29l-0.71 0.71v1.29h-1.29l-1.15 1.15c0.278 0.692 0.44 1.495 0.44 2.336 0 0.005 0 0.010-0 0.015v-0.001c0 3.59-2.91 6.5-6.5 6.5s-6.5-2.91-6.5-6.5c0-3.59 2.91-6.5 6.5-6.5v0c0.004 0 0.008-0 0.012-0 0.841 0 1.645 0.162 2.381 0.455l-0.043-0.015 7.44-7.44zM6.5 16c-0.828 0-1.5 0.672-1.5 1.5s0.672 1.5 1.5 1.5c0.828 0 1.5-0.672 1.5-1.5v0c0-0.828-0.672-1.5-1.5-1.5v0z"></path>
</svg>
