<!-- Generated by IcoMoon.io -->
<svg version="1.1" xmlns="http://www.w3.org/2000/svg" width="24" height="24" viewBox="0 0 24 24">
<title>password-management-bold</title>
<path d="M15.61 11.9c0.246-0.56 0.389-1.213 0.39-1.9v-0c0-0.001 0-0.002 0-0.003 0-1.825-0.977-3.421-2.437-4.294l-0.023-0.013c0.289 0.678 0.457 1.467 0.457 2.296 0 2.208-1.192 4.137-2.968 5.179l-0.028 0.015v1.82c0.001 0 0.003 0 0.004 0 0.684 0 1.336-0.14 1.928-0.392l-0.032 0.012 1.1 1.1v2.28h2v2h2.29l1 1h2.71v-2.71z"></path>
<path d="M10 2c-0.67 0.002-1.236 0.442-1.427 1.049l-0.003 0.011c1.148 0.131 2.16 0.633 2.931 1.381l-0.001-0.001v-0.94c0-0.828-0.672-1.5-1.5-1.5v0z"></path>
<path d="M12.5 5.86v-2.36c0.006-0.067 0.010-0.146 0.010-0.225 0-1.386-1.124-2.51-2.51-2.51-1.307 0-2.381 0.999-2.499 2.275l-0.001 0.010c-2.498 0.303-4.415 2.41-4.415 4.966 0 2.005 1.18 3.735 2.884 4.531l0.031 0.013v0.73l-1.21 1.21 1.21 1.21v0.59l-1.21 1.2 1.21 1.21v1.5l2 2 2-2v-7.65c1.774-0.788 2.991-2.531 3-4.559v-0.001c-0.004-0.78-0.188-1.515-0.513-2.169l0.013 0.029zM8 7.5c-0.828 0-1.5-0.672-1.5-1.5s0.672-1.5 1.5-1.5c0.828 0 1.5 0.672 1.5 1.5v0c0 0.828-0.672 1.5-1.5 1.5v0zM11.5 4.44c-0.77-0.747-1.782-1.249-2.907-1.378l-0.023-0.002c0.198-0.612 0.763-1.047 1.43-1.047 0.824 0 1.493 0.664 1.5 1.487v0.001z"></path>
</svg>
