<!-- Generated by IcoMoon.io -->
<svg version="1.1" xmlns="http://www.w3.org/2000/svg" width="24" height="24" viewBox="0 0 24 24">
<title>patient-wristband-bold</title>
<path d="M19 19v0z"></path>
<path d="M23 17c-0.018-1.091-0.906-1.968-2-1.968-0.368 0-0.713 0.1-1.010 0.273l0.009-0.005c-0.025-0.058-0.059-0.108-0.1-0.15l-6-6c-0.091-0.091-0.216-0.148-0.355-0.148s-0.264 0.057-0.355 0.148l-0.23 0.23-6.69-6.65c-0.459-0.44-1.083-0.71-1.77-0.71s-1.311 0.271-1.771 0.711l0.001-0.001c-0.454 0.453-0.734 1.079-0.734 1.77s0.281 1.317 0.734 1.77l6.65 6.65-0.23 0.23c-0.091 0.091-0.148 0.216-0.148 0.355s0.057 0.264 0.148 0.355l6 6c0.091 0.091 0.216 0.148 0.355 0.148s0.264-0.057 0.355-0.148l0.23-0.23 1.65 1.65c0.452 0.448 1.074 0.724 1.76 0.724 1.381 0 2.5-1.119 2.5-2.5 0-0.002 0-0.003 0-0.005v0c-0.004-0.211-0.033-0.414-0.084-0.608l0.004 0.018 0.49-0.49c0.364-0.362 0.59-0.864 0.59-1.418 0-0.001 0-0.001 0-0.002v0zM4.5 5c-0.276 0-0.5-0.224-0.5-0.5s0.224-0.5 0.5-0.5c0.276 0 0.5 0.224 0.5 0.5v0c0 0.276-0.224 0.5-0.5 0.5v0zM6.5 7c-0.276 0-0.5-0.224-0.5-0.5s0.224-0.5 0.5-0.5c0.276 0 0.5 0.224 0.5 0.5v0c0 0.276-0.224 0.5-0.5 0.5v0zM8.5 9c-0.276 0-0.5-0.224-0.5-0.5s0.224-0.5 0.5-0.5c0.276 0 0.5 0.224 0.5 0.5v0c0 0.276-0.224 0.5-0.5 0.5v0zM15.5 18.79l-5.29-5.29 3.29-3.29 5.29 5.29zM19 20c-0.552 0-1-0.448-1-1s0.448-1 1-1c0.552 0 1 0.448 1 1v0c0 0.552-0.448 1-1 1v0zM21.71 17.71l-0.25 0.25c-0.063-0.085-0.125-0.16-0.191-0.232l0.001 0.002-1.21-1.21 0.23-0.23c0.181-0.18 0.43-0.291 0.705-0.291s0.524 0.111 0.705 0.291l-0-0c0.18 0.181 0.291 0.43 0.291 0.705s-0.111 0.524-0.291 0.705l0-0z"></path>
<path d="M11.654 13.643l2.001-2.001 0.707 0.707-2.001 2.001-0.707-0.707z"></path>
<path d="M13.146 15.143l2.001-2.001 0.707 0.707-2.001 2.001-0.707-0.707z"></path>
<path d="M14.647 16.643l2.001-2.001 0.707 0.707-2.001 2.001-0.707-0.707z"></path>
</svg>
