<?xml version="1.0" encoding="utf-8"?>
<!-- Generator: Adobe Illustrator 25.0.1, SVG Export Plug-In . SVG Version: 6.00 Build 0)  -->
<svg version="1.1" id="Symbol" xmlns="http://www.w3.org/2000/svg" xmlns:xlink="http://www.w3.org/1999/xlink" x="0px" y="0px"
	 viewBox="0 0 72 72" style="enable-background:new 0 0 72 72;" xml:space="preserve">
<g>
	<path d="M51,52.7H40.3c-0.4,0-0.7-0.3-0.7-0.7V20c0-0.4,0.3-0.7,0.7-0.7H51c0.4,0,0.7,0.3,0.7,0.7V52C51.7,52.4,51.4,52.7,51,52.7z
		"/>
	<path d="M31.7,52.7H21c-0.4,0-0.7-0.3-0.7-0.7V20c0-0.4,0.3-0.7,0.7-0.7h10.6c0.4,0,0.7,0.3,0.7,0.7V52
		C32.4,52.4,32.1,52.7,31.7,52.7z"/>
</g>
</svg>
