<!-- Generated by IcoMoon.io -->
<svg version="1.1" xmlns="http://www.w3.org/2000/svg" width="24" height="24" viewBox="0 0 24 24">
<title>pelvis-bold</title>
<path d="M18 22h3v-9.63l-3 3.030v6.6z"></path>
<path d="M19.58 5.87c-0.454-0.24-0.993-0.382-1.565-0.382s-1.111 0.141-1.584 0.391l0.019-0.009c-0.389 0.217-0.72 0.487-0.996 0.806l-0.004 0.004c1.178 0.423 2.004 1.53 2.004 2.83s-0.827 2.407-1.984 2.823l-0.021 0.007c-0.046 0.829-0.421 1.563-0.997 2.077l-0.003 0.003-1 0.67c-0.403 0.266-0.898 0.425-1.43 0.425s-1.027-0.158-1.44-0.431l0.010 0.006-1-0.67c-0.579-0.517-0.954-1.251-1-2.072l-0-0.008c-1.178-0.423-2.004-1.53-2.004-2.83s0.827-2.407 1.984-2.823l0.021-0.007c-0.32-0.361-0.705-0.657-1.138-0.87l-0.022-0.010c-0.413-0.201-0.899-0.319-1.412-0.319-0.583 0-1.13 0.151-1.604 0.417l0.017-0.009c-1.144 0.594-1.911 1.77-1.911 3.125 0 0.966 0.39 1.841 1.021 2.475l-0-0 4 4v2c0 1.105 0.895 2 2 2v0h1l0.31-0.41c0.275-0.366 0.707-0.6 1.195-0.6s0.92 0.234 1.192 0.596l0.003 0.004 0.31 0.41h1c1.105 0 2-0.895 2-2v0-2l4-4c0.623-0.633 1.008-1.503 1.008-2.462 0-1.381-0.798-2.576-1.958-3.149l-0.021-0.009zM10 17.5c0 0.276-0.224 0.5-0.5 0.5s-0.5-0.224-0.5-0.5v0-1c0-0.276 0.224-0.5 0.5-0.5s0.5 0.224 0.5 0.5v0zM15 17.5c0 0.276-0.224 0.5-0.5 0.5s-0.5-0.224-0.5-0.5v0-1c0-0.276 0.224-0.5 0.5-0.5s0.5 0.224 0.5 0.5v0z"></path>
<path d="M9.5 5c-0.276 0-0.5 0.224-0.5 0.5s0.224 0.5 0.5 0.5v0h0.5v1.5h-0.5c-1.105 0-2 0.895-2 2s0.895 2 2 2v0h1l1.5 2 1.5-2h1c1.105 0 2-0.895 2-2s-0.895-2-2-2v0h-0.5v-1.5h0.5c0.276 0 0.5-0.224 0.5-0.5s-0.224-0.5-0.5-0.5v0h-0.5v-1h0.5c0.276 0 0.5-0.224 0.5-0.5s-0.224-0.5-0.5-0.5v0h-0.5v-1h-4v1h-0.5c-0.276 0-0.5 0.224-0.5 0.5s0.224 0.5 0.5 0.5v0h0.5v1zM13.5 9h1c0.276 0 0.5 0.224 0.5 0.5s-0.224 0.5-0.5 0.5v0h-1c-0.276 0-0.5-0.224-0.5-0.5s0.224-0.5 0.5-0.5v0zM10.5 9c0.276 0 0.5 0.224 0.5 0.5s-0.224 0.5-0.5 0.5v0h-1c-0.276 0-0.5-0.224-0.5-0.5s0.224-0.5 0.5-0.5v0z"></path>
<path d="M3 22h3v-6.6l-3-3.030v9.63z"></path>
</svg>
