<!-- Generated by IcoMoon.io -->
<svg version="1.1" xmlns="http://www.w3.org/2000/svg" width="24" height="24" viewBox="0 0 24 24">
<title>petri-dish-bold</title>
<path d="M12 2c-5.523 0-10 4.477-10 10s4.477 10 10 10c5.523 0 10-4.477 10-10v0c0-5.523-4.477-10-10-10v0zM6 10c-0.552 0-1-0.448-1-1s0.448-1 1-1c0.552 0 1 0.448 1 1v0c0 0.552-0.448 1-1 1v0zM10 19c-0.552 0-1-0.448-1-1s0.448-1 1-1c0.552 0 1 0.448 1 1v0c0 0.552-0.448 1-1 1v0zM11.71 11.71l-3 3c-0.174 0.149-0.401 0.24-0.65 0.24-0.552 0-1-0.448-1-1 0-0.249 0.091-0.477 0.242-0.652l-0.001 0.001 3-3c0.174-0.149 0.401-0.24 0.65-0.24 0.552 0 1 0.448 1 1 0 0.249-0.091 0.477-0.242 0.652l0.001-0.001zM12 7h-2c-0.552 0-1-0.448-1-1s0.448-1 1-1v0h2c0.552 0 1 0.448 1 1s-0.448 1-1 1v0zM16 18c0 0.552-0.448 1-1 1s-1-0.448-1-1v0-5c0-0.552 0.448-1 1-1s1 0.448 1 1v0zM16 9c-0.552 0-1-0.448-1-1s0.448-1 1-1c0.552 0 1 0.448 1 1v0c0 0.552-0.448 1-1 1v0zM19 14c-0.552 0-1-0.448-1-1s0.448-1 1-1c0.552 0 1 0.448 1 1v0c0 0.552-0.448 1-1 1v0z"></path>
</svg>
