<!-- Generated by IcoMoon.io -->
<svg version="1.1" xmlns="http://www.w3.org/2000/svg" width="24" height="24" viewBox="0 0 24 24">
<title>pharmacy-bold</title>
<path d="M21.56 4.56c0.294-0.275 0.477-0.665 0.477-1.097 0-0.828-0.672-1.5-1.5-1.5-0.433 0-0.823 0.183-1.097 0.477l-0.001 0.001-5.56 5.56h4.24z"></path>
<path d="M22 10.47c0 0.012 0.001 0.026 0.001 0.040 0 0.816-0.656 1.479-1.47 1.49h-0.531c-0.003 2.67-1.314 5.033-3.326 6.484l-0.024 0.016c1.006 0.723 1.821 1.647 2.399 2.718l0.021 0.042 0.39 0.73h-14.92l0.39-0.73c0.599-1.113 1.414-2.037 2.396-2.744l0.024-0.016c-2.036-1.467-3.347-3.83-3.35-6.499v-0.001h-0.53c-0.828 0-1.5-0.672-1.5-1.5s0.672-1.5 1.5-1.5v0h17.060c0.81 0.006 1.464 0.66 1.47 1.469v0.001zM9.92 16.54c-1.087-0.509-1.941-1.363-2.437-2.419l-0.013-0.031-0.91 0.42c0.61 1.304 1.636 2.33 2.903 2.925l0.037 0.015z"></path>
</svg>
