<!-- Generated by IcoMoon.io -->
<svg version="1.1" xmlns="http://www.w3.org/2000/svg" width="24" height="24" viewBox="0 0 24 24">
<title>phone-bold</title>
<path d="M16.42 12.87l-1.82 1.82c-0.089 0.092-0.214 0.15-0.352 0.15-0.060 0-0.118-0.011-0.171-0.031l0.003 0.001c-2.27-0.865-4.029-2.628-4.871-4.843l-0.019-0.057c-0.019-0.050-0.030-0.107-0.030-0.168 0-0.138 0.057-0.263 0.149-0.352l1.82-1.82-3.46-5.76-3.87 2.33c-0.735 0.447-1.218 1.243-1.218 2.152 0 0.411 0.099 0.8 0.274 1.142l-0.007-0.014c3.107 5.913 7.817 10.623 13.555 13.646l0.175 0.084c0.327 0.17 0.713 0.27 1.123 0.27 0.002 0 0.005 0 0.007 0h-0c0 0 0.001 0 0.001 0 0.912 0 1.71-0.484 2.152-1.209l0.006-0.011 2.33-3.88z"></path>
</svg>
