<!-- Generated by IcoMoon.io -->
<svg version="1.1" xmlns="http://www.w3.org/2000/svg" width="24" height="24" viewBox="0 0 24 24">
<title>pill-bold</title>
<path d="M20.54 3.47c-0.905-0.905-2.155-1.464-3.535-1.464s-2.63 0.559-3.535 1.464l-10 10c-0.868 0.898-1.404 2.123-1.404 3.474 0 2.761 2.239 5 5 5 1.35 0 2.575-0.535 3.475-1.405l-0.001 0.001 10-10c0.904-0.905 1.464-2.155 1.464-3.535s-0.559-2.63-1.464-3.535l0 0zM19.12 9.12l-4.29 4.29-4.24-4.24 4.29-4.29c0.55-0.526 1.297-0.85 2.12-0.85s1.57 0.324 2.121 0.851l-0.001-0.001c0.542 0.543 0.877 1.292 0.877 2.12s-0.335 1.577-0.877 2.12l0-0zM4.88 19.12c-0.542-0.543-0.877-1.292-0.877-2.12s0.335-1.577 0.877-2.12l3.58-3.58 0.71 0.71-3.58 3.57c-0.362 0.362-0.587 0.862-0.587 1.415s0.224 1.053 0.587 1.415l0 0z"></path>
</svg>
