<!-- Generated by IcoMoon.io -->
<svg version="1.1" xmlns="http://www.w3.org/2000/svg" width="24" height="24" viewBox="0 0 24 24">
<title>pin-2-bold</title>
<path d="M15 5.83l3.17 3.17h-1.17l-4 5.33v1.84c-0.001 0.611-0.115 1.195-0.321 1.733l0.011-0.033-2.28-2.28-0.77-0.78-1.23-1.22-2.28-2.29c0.5-0.19 1.079-0.3 1.683-0.3 0.006 0 0.012 0 0.018 0h1.839l0.53-0.4 4.8-3.6v-1.17zM14 2c-0.617 0.617-0.999 1.469-1 2.41v1.59l-4 3h-1.17c-1.886 0.001-3.593 0.765-4.83 2l0-0 4 4-5 6.67v0.33h0.33l6.67-5 4 4c1.235-1.237 1.999-2.944 2-4.83v-1.17l3-4h1.59c0.941-0.001 1.793-0.383 2.41-1l0-0-8-8z"></path>
</svg>
