<?xml version="1.0" encoding="utf-8"?>
<!-- Generator: Adobe Illustrator 25.0.1, SVG Export Plug-In . SVG Version: 6.00 Build 0)  -->
<svg version="1.1" id="Symbol" xmlns="http://www.w3.org/2000/svg" xmlns:xlink="http://www.w3.org/1999/xlink" x="0px" y="0px"
	 viewBox="0 0 72 72" style="enable-background:new 0 0 72 72;" xml:space="preserve">
<g>
	<path d="M36.1,54c-9,0-16.4-7.3-16.4-16.3c0-4.7,2-9.1,5.4-12.2c0.3-0.3,0.7-0.4,1.1-0.4c0.5,0,0.9,0.2,1.2,0.5
		c0.6,0.7,0.5,1.7-0.1,2.3c-2.8,2.5-4.4,6.1-4.4,9.8c0,7.2,5.9,13.1,13.2,13.1s13.1-5.9,13.1-13.2c0-3.7-1.6-7.3-4.4-9.8
		c-0.7-0.6-0.7-1.6-0.1-2.3c0.3-0.3,0.7-0.5,1.2-0.5c0.4,0,0.8,0.1,1.1,0.4c3.5,3.1,5.5,7.5,5.5,12.2C52.4,46.6,45.1,53.9,36.1,54z"
		/>
	<path d="M36,35.9c-0.9,0-1.6-0.7-1.6-1.6l-0.1-14.7c0-0.9,0.7-1.6,1.6-1.6c0.9,0,1.6,0.7,1.6,1.6l0.1,14.7
		C37.6,35.2,36.9,35.9,36,35.9z"/>
</g>
</svg>
