<?xml version="1.0" encoding="utf-8"?>
<!-- Generator: Adobe Illustrator 25.0.1, SVG Export Plug-In . SVG Version: 6.00 Build 0)  -->
<svg version="1.1" id="Symbol" xmlns="http://www.w3.org/2000/svg" xmlns:xlink="http://www.w3.org/1999/xlink" x="0px" y="0px"
	 viewBox="0 0 72 72" style="enable-background:new 0 0 72 72;" xml:space="preserve">
<g>
	<path d="M39.7,53.5c-0.3,0-0.6-0.1-0.9-0.4l-5.3-5.2L31,50.4c-0.5,0.5-1.3,0.5-1.7,0L27,48.2c-5.1-5-5.9-12.3-2-18.6l-5.8-5.7
		c-0.5-0.5-0.5-1.3,0-1.7l3.2-3.2c0.5-0.5,1.3-0.5,1.7,0l5.9,5.9c5.7-3,12.7-2.6,17.7,2.4l2.3,2.3c0.2,0.2,0.4,0.5,0.4,0.9
		c0,0.3-0.1,0.6-0.4,0.9l-2.7,2.7l5.3,5.2c0.5,0.5,0.5,1.3,0,1.7l-0.9,0.9c-0.5,0.5-1.3,0.5-1.7,0l-5.3-5.2l-8.7,8.7l5.3,5.2
		c0.5,0.5,0.5,1.3,0,1.7l-0.9,0.9C40.3,53.4,40,53.5,39.7,53.5z"/>
</g>
</svg>
