<!-- Generated by IcoMoon.io -->
<svg version="1.1" xmlns="http://www.w3.org/2000/svg" width="24" height="24" viewBox="0 0 24 24">
<title>reload-bold</title>
<path d="M13 2c-0 0-0 0-0 0-5.171 0-9.425 3.924-9.946 8.957l-0.004 0.043h-0.050v0.090l-1.29-1.3-1.42 1.42 3.71 3.7 3.71-3.71-1.42-1.41-1.22 1.21c0.507-3.974 3.868-7.015 7.939-7.015 4.418 0 8 3.582 8 8s-3.582 8-8 8c-2.21 0-4.211-0.896-5.659-2.345l-0-0-1.42 1.43c1.81 1.81 4.31 2.93 7.072 2.93 5.523 0 10-4.477 10-10s-4.477-10-10-10c-0.001 0-0.002 0-0.002 0h0z"></path>
</svg>
