<!-- Generated by IcoMoon.io -->
<svg version="1.1" xmlns="http://www.w3.org/2000/svg" width="24" height="24" viewBox="0 0 24 24">
<title>repair-bold</title>
<path d="M6 11c0.687-0.001 1.34-0.144 1.931-0.402l-0.031 0.012 1.25 1.25 2.69-2.69-1.23-1.27c0.246-0.56 0.389-1.213 0.39-1.9v-0c-0.001-2.761-2.239-4.999-5-4.999-0.67 0-1.309 0.132-1.893 0.371l0.033-0.012-0.7 0.28 2.56 2.57v1.79h-1.79l-2.56-2.56-0.28 0.7c-0.227 0.551-0.359 1.19-0.359 1.86 0 2.757 2.232 4.994 4.988 5h0.001z"></path>
<path d="M18 13c-0.687 0.001-1.34 0.144-1.931 0.402l0.031-0.012-1.25-1.25-2.69 2.69 1.25 1.25c-0.255 0.565-0.405 1.224-0.41 1.918v0.002c0.001 2.761 2.239 4.999 5 4.999 0.67 0 1.309-0.132 1.893-0.371l-0.033 0.012 0.7-0.28-2.56-2.57v-1.79h1.79l2.56 2.56 0.28-0.7c0.227-0.551 0.359-1.19 0.359-1.86 0-2.757-2.232-4.994-4.988-5h-0.001z"></path>
<path d="M10.21 15.21l8.65-8.65 0.72 0.72 2.57-3.85-1.59-1.57-3.85 2.56 0.72 0.72-8.64 8.65-0.64-0.64-5.59 5.58c-0.347 0.347-0.561 0.826-0.561 1.355 0 1.058 0.858 1.916 1.916 1.916 0.529 0 1.008-0.214 1.355-0.561l5.59-5.59-0.35-0.35z"></path>
</svg>
