<!-- Generated by IcoMoon.io -->
<svg version="1.1" xmlns="http://www.w3.org/2000/svg" width="24" height="24" viewBox="0 0 24 24">
<title>repeat-bold</title>
<path d="M4 17v-9c0-0.552 0.448-1 1-1v0h6.59l-2 2 1.41 1.41 4.41-4.41-4.41-4.41-1.41 1.41 2 2h-6.59c-1.657 0-3 1.343-3 3v0 9c0 1.657 1.343 3 3 3v0h1v-2h-1c-0.552 0-1-0.448-1-1v0z"></path>
<path d="M18 5h-1v2h1c0.552 0 1 0.448 1 1v0 9c0 0.552-0.448 1-1 1v0h-6.59l2-2-1.41-1.41-4.41 4.41 4.41 4.41 1.41-1.41-2-2h6.59c1.657 0 3-1.343 3-3v0-9c0-1.657-1.343-3-3-3v0z"></path>
</svg>
