<!-- Generated by IcoMoon.io -->
<svg version="1.1" xmlns="http://www.w3.org/2000/svg" width="24" height="24" viewBox="0 0 24 24">
<title>router-bold</title>
<path d="M18.12 10.12c0.544-0.543 0.88-1.294 0.88-2.123 0-1.657-1.343-3-3-3s-3 1.343-3 3c0 0.829 0.336 1.58 0.88 2.123l0 0 1.41-1.42c-0.18-0.181-0.291-0.43-0.291-0.705s0.111-0.524 0.291-0.705l-0 0c0.181-0.18 0.43-0.291 0.705-0.291s0.524 0.111 0.705 0.291l-0-0c0.18 0.181 0.291 0.43 0.291 0.705s-0.111 0.524-0.291 0.705l0-0z"></path>
<path d="M13.17 10.83c-0.725-0.724-1.173-1.725-1.173-2.83s0.448-2.106 1.173-2.83l0-0c0.734-0.702 1.732-1.133 2.83-1.133s2.096 0.432 2.832 1.135l-0.002-0.002c0.725 0.724 1.173 1.725 1.173 2.83s-0.448 2.106-1.173 2.83l-0 0 1.41 1.41c1.087-1.086 1.76-2.587 1.76-4.245 0-3.314-2.686-6-6-6s-6 2.686-6 6c0 1.658 0.673 3.159 1.76 4.245l0 0z"></path>
<path d="M19.5 13h-2.5v-3h-2v3h-10.5c-1.381 0-2.5 1.119-2.5 2.5v0 2c0 0 0 0 0 0.001 0 1.204 0.851 2.209 1.984 2.447l0.016 0.003v1.050h2v-1h12v1h2v-1.050c1.149-0.241 2-1.246 2-2.45 0-0 0-0 0-0.001v0-2c0-1.381-1.119-2.5-2.5-2.5v0zM11 17h-6v-1h6zM15 17.5c-0.552 0-1-0.448-1-1s0.448-1 1-1c0.552 0 1 0.448 1 1v0c0 0.552-0.448 1-1 1v0zM18 17.5c-0.552 0-1-0.448-1-1s0.448-1 1-1c0.552 0 1 0.448 1 1v0c0 0.552-0.448 1-1 1v0z"></path>
</svg>
