<!-- Generated by IcoMoon.io -->
<svg version="1.1" xmlns="http://www.w3.org/2000/svg" width="24" height="24" viewBox="0 0 24 24">
<title>security-bold</title>
<path d="M19.15 1.65c-0.903 0.848-2.121 1.369-3.461 1.369-0.154 0-0.307-0.007-0.458-0.020l0.019 0.001c-0.104 0.009-0.224 0.015-0.346 0.015-1.211 0-2.3-0.525-3.051-1.361l-0.003-0.004-0.35-0.35-0.35 0.35c-0.754 0.839-1.843 1.365-3.054 1.365-0.122 0-0.242-0.005-0.361-0.016l0.015 0.001c-0.083 0.004-0.179 0.007-0.277 0.007-1.43 0-2.736-0.533-3.729-1.412l0.006 0.005-0.75-0.6v12.56c-0 0.008-0 0.018-0 0.028 0 3.301 1.892 6.159 4.652 7.55l0.048 0.022 3.8 1.9 3.8-1.9c2.808-1.413 4.7-4.272 4.7-7.572 0-0.010-0-0.019-0-0.029v0.001-12.77z"></path>
</svg>
