<!-- Generated by IcoMoon.io -->
<svg version="1.1" xmlns="http://www.w3.org/2000/svg" width="24" height="24" viewBox="0 0 24 24">
<title>security-alert-bold</title>
<path d="M21 0.84v12.72c-0.035 3.379-2.055 6.277-4.947 7.589l-0.053 0.021-4 1.89-4-1.9c-2.945-1.333-4.965-4.231-5-7.605l-0-0.005v-12.55l0.79 0.56c1.077 0.898 2.476 1.443 4.002 1.443 0.073 0 0.146-0.001 0.218-0.004l-0.011 0c0.113 0.010 0.244 0.016 0.376 0.016 1.279 0 2.435-0.527 3.263-1.375l0.001-0.001 0.36-0.33 0.34 0.32c0.83 0.855 1.99 1.386 3.274 1.386 0.136 0 0.27-0.006 0.403-0.018l-0.017 0.001c0.142 0.013 0.307 0.020 0.474 0.020 1.417 0 2.712-0.523 3.703-1.386l-0.007 0.006zM13 8h-2v6h2zM12 15c-0.828 0-1.5 0.672-1.5 1.5s0.672 1.5 1.5 1.5c0.828 0 1.5-0.672 1.5-1.5v0c0-0.828-0.672-1.5-1.5-1.5v0z"></path>
</svg>
