<!-- Generated by IcoMoon.io -->
<svg version="1.1" xmlns="http://www.w3.org/2000/svg" width="24" height="24" viewBox="0 0 24 24">
<title>server-bold</title>
<path d="M20.5 2h-17c-0.828 0-1.5 0.672-1.5 1.5v0 3c0 0.828 0.672 1.5 1.5 1.5v0h17c0.828 0 1.5-0.672 1.5-1.5v0-3c0-0.828-0.672-1.5-1.5-1.5v0zM5 6.5c-0.828 0-1.5-0.672-1.5-1.5s0.672-1.5 1.5-1.5c0.828 0 1.5 0.672 1.5 1.5v0c0 0.828-0.672 1.5-1.5 1.5v0zM16 6c-0.552 0-1-0.448-1-1s0.448-1 1-1c0.552 0 1 0.448 1 1v0c0 0.552-0.448 1-1 1v0zM19 6c-0.552 0-1-0.448-1-1s0.448-1 1-1c0.552 0 1 0.448 1 1v0c0 0.552-0.448 1-1 1v0z"></path>
<path d="M20.5 9h-17c-0.828 0-1.5 0.672-1.5 1.5v0 3c0 0.828 0.672 1.5 1.5 1.5v0h17c0.828 0 1.5-0.672 1.5-1.5v0-3c0-0.828-0.672-1.5-1.5-1.5v0zM5 13.5c-0.828 0-1.5-0.672-1.5-1.5s0.672-1.5 1.5-1.5c0.828 0 1.5 0.672 1.5 1.5v0c0 0.828-0.672 1.5-1.5 1.5v0zM16 13c-0.552 0-1-0.448-1-1s0.448-1 1-1c0.552 0 1 0.448 1 1v0c0 0.552-0.448 1-1 1v0zM19 13c-0.552 0-1-0.448-1-1s0.448-1 1-1c0.552 0 1 0.448 1 1v0c0 0.552-0.448 1-1 1v0z"></path>
<path d="M20.5 16h-17c-0.828 0-1.5 0.672-1.5 1.5v0 3c0 0.828 0.672 1.5 1.5 1.5v0h17c0.828 0 1.5-0.672 1.5-1.5v0-3c0-0.828-0.672-1.5-1.5-1.5v0zM5 20.5c-0.828 0-1.5-0.672-1.5-1.5s0.672-1.5 1.5-1.5c0.828 0 1.5 0.672 1.5 1.5v0c0 0.828-0.672 1.5-1.5 1.5v0zM16 20c-0.552 0-1-0.448-1-1s0.448-1 1-1c0.552 0 1 0.448 1 1v0c0 0.552-0.448 1-1 1v0zM19 20c-0.552 0-1-0.448-1-1s0.448-1 1-1c0.552 0 1 0.448 1 1v0c0 0.552-0.448 1-1 1v0z"></path>
</svg>
