<!-- Generated by IcoMoon.io -->
<svg version="1.1" xmlns="http://www.w3.org/2000/svg" width="24" height="24" viewBox="0 0 24 24">
<title>settings-bold</title>
<path d="M19.71 14.14l2.82 1.63-2 3.46-2.83-1.63c-0.986 1.014-2.239 1.764-3.645 2.138l-0.055 0.012v3.25h-4v-3.25c-1.461-0.386-2.714-1.136-3.698-2.148l-0.002-0.002-2.83 1.63-2-3.46 2.82-1.63c-0.188-0.641-0.295-1.378-0.295-2.14s0.108-1.499 0.309-2.196l-0.014 0.056-2.82-1.63 2-3.46 2.83 1.63c0.986-1.014 2.239-1.764 3.645-2.138l0.055-0.012v-3.25h4v3.25c1.461 0.386 2.714 1.136 3.698 2.148l0.002 0.002 2.82-1.63 2 3.46-2.81 1.63c0.188 0.641 0.295 1.378 0.295 2.14s-0.108 1.499-0.309 2.196l0.014-0.056zM12 8c-2.209 0-4 1.791-4 4s1.791 4 4 4c2.209 0 4-1.791 4-4v0c0-2.209-1.791-4-4-4v0z"></path>
</svg>
