<!-- Generated by IcoMoon.io -->
<svg version="1.1" xmlns="http://www.w3.org/2000/svg" width="24" height="24" viewBox="0 0 24 24">
<title>shuffle-bold</title>
<path d="M8.080 10.9l1.84-0.79c-0.070-0.17-1.8-4.11-5.42-4.11h-2.5v2h2.5c2.29 0 3.57 2.87 3.58 2.9z"></path>
<path d="M16.5 8h2.090l-2 2 1.41 1.41 4.41-4.41-4.41-4.41-1.41 1.41 2 2h-2.090c-3 0-5 3-6.84 6-1.58 2.48-3.21 5-5.16 5h-2.5v2h2.5c3 0 5-3 6.84-6 1.58-2.44 3.21-5 5.16-5z"></path>
<path d="M16.59 15l2 2h-2.090c-2.42 0-4.15-2.53-4.17-2.56l-1.66 1.11c0.090 0.15 2.33 3.45 5.83 3.45h2.090l-2 2 1.41 1.41 4.41-4.41-4.41-4.41z"></path>
</svg>
