<?xml version="1.0" encoding="utf-8"?>
<!-- Generator: Adobe Illustrator 25.0.1, SVG Export Plug-In . SVG Version: 6.00 Build 0)  -->
<svg version="1.1" id="Symbol" xmlns="http://www.w3.org/2000/svg" xmlns:xlink="http://www.w3.org/1999/xlink" x="0px" y="0px"
	 viewBox="0 0 72 72" style="enable-background:new 0 0 72 72;" xml:space="preserve">
<g>
	<rect x="24" y="42.1" transform="matrix(0.7044 -0.7098 0.7098 0.7044 -22.124 33.078)" width="9.3" height="2"/>
	<rect x="48.7" y="18.6" transform="matrix(0.7044 -0.7098 0.7098 0.7044 1.5219 42.7166)" width="6.8" height="2"/>
	<polygon points="34.2,38.9 32.8,37.5 34.5,35.9 30.9,32.3 32.3,30.9 35.9,34.5 39.4,30.9 40.8,32.3 37.2,35.8 38.9,37.5 37.5,38.9 
		35.9,37.2 	"/>
	<rect x="42.1" y="38.4" transform="matrix(0.7044 -0.7098 0.7098 0.7044 -17.8132 43.3215)" width="2" height="9.3"/>
	<rect x="18.6" y="16.3" transform="matrix(0.7042 -0.71 0.71 0.7042 -8.1747 19.6838)" width="2" height="6.8"/>
	<path d="M36,57.6c-2.3,0-4.2-1.9-4.3-4.2c0-1.1,0.5-2.2,1.2-3l-10.2,0L18,55.3l-1.4-1.4c0,0,2.5-2.5,3.5-3.5l-4.1,0l0.6-1.4
		c0.1-0.1,5.8-12.6,7.8-17.4c0.6-1.3,1.3-2.5,2.2-3.6l-3.9-3.8l1.4-1.4l3.9,3.8c1.9-1.6,4.3-2.6,6.9-2.7l0-9.5l2,0l0,9.5
		c2.6,0.2,4.9,1.1,6.9,2.6l3.8-3.8l1.4,1.4l-3.7,3.8c1,1.1,1.7,2.3,2.3,3.7c2,4.8,7.8,17.2,7.9,17.3l0.6,1.4l-4.2,0l3.5,3.5
		l-1.4,1.4L49,50.3l-10,0c0.8,0.8,1.3,1.9,1.3,3C40.3,55.7,38.4,57.6,36,57.6z M52.9,48.3c-1.8-3.8-5.7-12.3-7.3-16
		c-0.5-1.1-1.1-2.2-1.9-3l-1.4,1.5l-1.4-1.4l1.4-1.4c-1.8-1.4-4-2.1-6.4-2.1c-2.5,0-4.7,0.8-6.5,2.2l1.3,1.3l-1.4,1.4L28,29.4
		c-0.7,0.9-1.3,1.9-1.8,2.9c-1.6,3.7-5.4,12.2-7.1,16.1l3,0l1.1-1.1l1.1,1.1l23.2-0.1l1.1-1.1l1.1,1.1L52.9,48.3z"/>
</g>
</svg>
