<!-- Generated by IcoMoon.io -->
<svg version="1.1" xmlns="http://www.w3.org/2000/svg" width="24" height="24" viewBox="0 0 24 24">
<title>syringe-full-bold</title>
<path d="M16 2v1h-3v2h3v1h-1v10.26c0 0.011 0 0.025 0 0.038 0 0.951-0.382 1.814-1.001 2.442l0-0-1.92 1.92v2.34h-1.14v-2.35l-1.94-1.92c-0.618-0.628-1-1.49-1-2.442 0-0.014 0-0.027 0-0.041l-0 0.002v-10.25h-1v-1h3v-2h-3v-1h9zM10 8v8.26c0 0.001 0 0.002 0 0.003 0 0.413 0.168 0.787 0.44 1.057l1.060 1.060 1.060-1.060c0.272-0.27 0.44-0.644 0.44-1.057 0-0.001 0-0.002 0-0.003v0-8.26z"></path>
</svg>
