<!-- Generated by IcoMoon.io -->
<svg version="1.1" xmlns="http://www.w3.org/2000/svg" width="24" height="24" viewBox="0 0 24 24">
<title>task-list-bold</title>
<path d="M13 3v-1c0-0.6-0.4-1-1-1s-1 0.4-1 1v1h-3v3h8v-3h-3z"></path>
<path d="M19 4h-2v3h-10v-3h-2c-0.6 0-1 0.4-1 1v16c0 0.6 0.4 1 1 1h14c0.6 0 1-0.4 1-1v-16c0-0.6-0.4-1-1-1zM7.5 16.5c-0.6 0-1-0.4-1-1s0.4-1 1-1 1 0.4 1 1-0.4 1-1 1zM7.5 13.5c-0.6 0-1-0.4-1-1s0.4-1 1-1 1 0.4 1 1-0.4 1-1 1zM7.5 10.5c-0.6 0-1-0.4-1-1s0.4-1 1-1 1 0.4 1 1-0.4 1-1 1zM16 16h-6v-1h6v1zM16 13h-6v-1h6v1zM16 10h-6v-1h6v1z"></path>
</svg>
