<!-- Generated by IcoMoon.io -->
<svg version="1.1" xmlns="http://www.w3.org/2000/svg" width="24" height="24" viewBox="0 0 24 24">
<title>text-margin-right-bold</title>
<path d="M2 2.090h10v2h-10v-2z"></path>
<path d="M4 5.090h8v2h-8v-2z"></path>
<path d="M3 8.090h9v2h-9v-2z"></path>
<path d="M1 11.090h11v2h-11v-2z"></path>
<path d="M2 14.090h10v2h-10v-2z"></path>
<path d="M4 17.090h8v2h-8v-2z"></path>
<path d="M2 20.090h10v2h-10v-2z"></path>
<path d="M13 2.090h2v20h-2v-20z"></path>
<path d="M22.5 11.090h-3.090l1.3-1.29-1.42-1.41-3.7 3.7 3.7 3.71 1.42-1.41-1.3-1.3h3.090v-2z"></path>
</svg>
