<!-- Generated by IcoMoon.io -->
<svg version="1.1" xmlns="http://www.w3.org/2000/svg" width="24" height="24" viewBox="0 0 24 24">
<title>text-tab-indent-bold</title>
<path d="M11 2.090h10v2h-10v-2z"></path>
<path d="M11 5.090h8v2h-8v-2z"></path>
<path d="M11 8.090h9v2h-9v-2z"></path>
<path d="M1 11.090h21v2h-21v-2z"></path>
<path d="M1 14.090h20v2h-20v-2z"></path>
<path d="M1 17.090h18v2h-18v-2z"></path>
<path d="M1 20.090h20v2h-20v-2z"></path>
<path d="M5.29 8.39l1.42 1.41 3.7-3.71-3.7-3.7-1.42 1.41 1.3 1.29h-5.090v2h5.090l-1.3 1.3z"></path>
</svg>
