<!-- Generated by IcoMoon.io -->
<svg version="1.1" xmlns="http://www.w3.org/2000/svg" width="24" height="24" viewBox="0 0 24 24">
<title>text-strikethrough-bold</title>
<path d="M22 12.090h-7.47l-0.16-0.090-3.37-1.7c-1.064-0.543-1.82-1.557-1.998-2.76l-0.002-0.020c-0.019-0.126-0.030-0.272-0.030-0.42 0-1.657 1.343-3 3-3 0.010 0 0.021 0 0.031 0l-0.002-0c1.557 0 2.865 1.065 3.235 2.507l0.005 0.023 0.18 0.71 1.94-0.49-0.18-0.71c-0.612-2.318-2.69-4-5.161-4-0.007 0-0.013 0-0.020 0h0.001c-0.013-0-0.028-0-0.044-0-2.761 0-5 2.239-5 5 0 0.233 0.016 0.462 0.047 0.686l-0.003-0.026c0.28 1.884 1.448 3.445 3.058 4.265l0.032 0.015h-7.090v2h11c0.906 0.638 1.53 1.624 1.678 2.76l0.002 0.020c0.019 0.141 0.030 0.304 0.030 0.47 0 2.071-1.679 3.75-3.75 3.75h-0.11c-2.171-0.006-3.981-1.545-4.405-3.591l-0.005-0.029-0.14-0.56-2 0.39 0.12 0.58c0.621 2.997 3.234 5.22 6.369 5.23h0.111c3.174-0.003 5.745-2.576 5.745-5.75 0-0.254-0.016-0.504-0.048-0.749l0.003 0.029c-0.127-0.954-0.46-1.811-0.954-2.552l0.014 0.022h5.34z"></path>
</svg>
