<!-- Generated by IcoMoon.io -->
<svg version="1.1" xmlns="http://www.w3.org/2000/svg" width="24" height="24" viewBox="0 0 24 24">
<title>text-line-height-bold</title>
<path d="M7.29 5.8l1.42-1.41-3.71-3.71-3.71 3.71 1.42 1.41 1.29-1.29v15.17l-1.29-1.29-1.42 1.41 3.71 3.71 3.71-3.71-1.42-1.41-1.29 1.29v-15.17l1.29 1.29z"></path>
<path d="M10 2.090h11v2h-11v-2z"></path>
<path d="M10 5.090h8v2h-8v-2z"></path>
<path d="M10 8.090h10v2h-10v-2z"></path>
<path d="M10 11.090h12v2h-12v-2z"></path>
<path d="M10 14.090h11v2h-11v-2z"></path>
<path d="M10 17.090h9v2h-9v-2z"></path>
<path d="M10 20.090h11v2h-11v-2z"></path>
</svg>
