<!-- Generated by IcoMoon.io -->
<svg version="1.1" xmlns="http://www.w3.org/2000/svg" width="24" height="24" viewBox="0 0 24 24">
<title>text-margin-left-bold</title>
<path d="M12 2.090h10v2h-10v-2z"></path>
<path d="M12 5.090h8v2h-8v-2z"></path>
<path d="M12 8.090h9v2h-9v-2z"></path>
<path d="M12 11.090h11v2h-11v-2z"></path>
<path d="M12 14.090h10v2h-10v-2z"></path>
<path d="M12 17.090h8v2h-8v-2z"></path>
<path d="M12 20.090h10v2h-10v-2z"></path>
<path d="M3.29 9.8l1.3 1.29h-3.090v2h3.090l-1.3 1.3 1.42 1.41 3.7-3.71-3.7-3.7-1.42 1.41z"></path>
<path d="M9 2.090h2v20h-2v-20z"></path>
</svg>
