<!-- Generated by IcoMoon.io -->
<svg version="1.1" xmlns="http://www.w3.org/2000/svg" width="24" height="24" viewBox="0 0 24 24">
<title>thermometer-bold</title>
<path d="M16 15v-10c0-2.209-1.791-4-4-4s-4 1.791-4 4v0 10c-0.624 0.825-1 1.869-1 3 0 2.761 2.239 5 5 5s5-2.239 5-5c0-1.131-0.376-2.175-1.009-3.013l0.009 0.013zM12 21c-1.657 0-3-1.343-3-3v0c-0-0.005-0-0.010-0-0.016 0-0.762 0.284-1.458 0.753-1.988l-0.003 0.003 0.25-0.28v-10.72c0-1.105 0.895-2 2-2s2 0.895 2 2v0 10.75l0.25 0.28c0.463 0.523 0.746 1.213 0.75 1.969v0.001c0 1.657-1.343 3-3 3v0z"></path>
<path d="M13 16.28v-8.28c0-0.552-0.448-1-1-1s-1 0.448-1 1v0 8.28c-0.602 0.352-1 0.996-1 1.732 0 1.105 0.895 2 2 2s2-0.895 2-2c0-0.736-0.398-1.38-0.991-1.727l-0.009-0.005z"></path>
</svg>
