<?xml version="1.0" encoding="utf-8"?>
<!-- Generator: Adobe Illustrator 25.0.1, SVG Export Plug-In . SVG Version: 6.00 Build 0)  -->
<svg version="1.1" id="Symbol" xmlns="http://www.w3.org/2000/svg" xmlns:xlink="http://www.w3.org/1999/xlink" x="0px" y="0px"
	 viewBox="0 0 72 72" style="enable-background:new 0 0 72 72;" xml:space="preserve">
<g>
	<g>
		<g>
			<g>
				<path d="M36,19.8c8.9,0,16.2,7.3,16.2,16.2S44.9,52.2,36,52.2c-9,0-16.2-7.3-16.2-16.2S27,19.8,36,19.8 M36,15.7
					c-11.2,0-20.3,9.1-20.3,20.3c0,11.2,9.1,20.3,20.3,20.3c11.2,0,20.3-9.1,20.3-20.3C56.3,24.8,47.2,15.7,36,15.7L36,15.7z"/>
			</g>
		</g>
		<g>
			<path d="M42,44.1c-0.5,0-1.1-0.2-1.5-0.6l-6-6c-0.4-0.4-0.6-0.9-0.6-1.5v-9.9c0-1.1,0.9-2.1,2.1-2.1s2.1,0.9,2.1,2.1v9l5.4,5.4
				c0.8,0.8,0.8,2.1,0,2.9C43.1,43.9,42.6,44.1,42,44.1z"/>
		</g>
	</g>
</g>
</svg>
