<!-- Generated by IcoMoon.io -->
<svg version="1.1" xmlns="http://www.w3.org/2000/svg" width="24" height="24" viewBox="0 0 24 24">
<title>tools-bold</title>
<path d="M19.5 6h-2.5v-0.5c0-1.381-1.119-2.5-2.5-2.5v0h-5c-1.381 0-2.5 1.119-2.5 2.5v0 0.5h-2.5c-1.381 0-2.5 1.119-2.5 2.5v0 2.5h8v-0.5c0-0.828 0.672-1.5 1.5-1.5v0h1c0.828 0 1.5 0.672 1.5 1.5v0 0.5h8v-2.5c0-1.381-1.119-2.5-2.5-2.5v0zM16 6h-8v-0.5c0-0.828 0.672-1.5 1.5-1.5v0h5c0.828 0 1.5 0.672 1.5 1.5v0z"></path>
<path d="M14 12.5c0 0.828-0.672 1.5-1.5 1.5v0h-1c-0.828 0-1.5-0.672-1.5-1.5v0-0.5h-8v5.5c0 1.381 1.119 2.5 2.5 2.5v0h15c1.381 0 2.5-1.119 2.5-2.5v0-5.5h-8z"></path>
<path d="M11.5 10h1c0.276 0 0.5 0.224 0.5 0.5v2c0 0.276-0.224 0.5-0.5 0.5h-1c-0.276 0-0.5-0.224-0.5-0.5v-2c0-0.276 0.224-0.5 0.5-0.5z"></path>
</svg>
