<!-- Generated by IcoMoon.io -->
<svg version="1.1" xmlns="http://www.w3.org/2000/svg" width="24" height="24" viewBox="0 0 24 24">
<title>unlink-bold</title>
<path d="M22 4.58l-1.59-1.58c-0.619-0.612-1.47-0.989-2.41-0.989s-1.791 0.378-2.41 0.99l0-0-3.59 3.58c-0.619 0.616-1.002 1.468-1.002 2.41s0.383 1.794 1.002 2.41l0.090 0.090 1.45-1.39-0.060-0.060-0.070-0.040c-0.253-0.252-0.41-0.601-0.41-0.986 0-0.005 0-0.010 0-0.015v0.001c0.001-0.391 0.162-0.745 0.42-1l0-0 3.58-3.6c0.255-0.247 0.604-0.4 0.988-0.4 0.004 0 0.008 0 0.013 0h-0.001c0.389 0.002 0.742 0.158 1 0.41l1.59 1.59c0.252 0.258 0.408 0.611 0.41 1v0c0 0.001 0 0.001 0 0.002 0 0.389-0.157 0.742-0.41 0.998l0-0-3.59 3.58c-0.254 0.259-0.608 0.42-1 0.42s-0.746-0.161-1-0.42l-0-0-1.41 1.42c0.618 0.614 1.47 0.993 2.41 0.993s1.792-0.379 2.41-0.994l-0 0 3.59-3.6c0.619-0.616 1.002-1.468 1.002-2.41s-0.383-1.794-1.002-2.41l-0-0z"></path>
<path d="M13 13.58v0l-1.45 1.42c0.267 0.253 0.437 0.605 0.45 0.998l0 0.002c0 0.001 0 0.001 0 0.002 0 0.389-0.157 0.742-0.41 0.998l0-0-3.59 3.58c-0.255 0.258-0.609 0.419-1 0.42h-0c-0.001 0-0.003 0-0.004 0-0.39 0-0.743-0.161-0.995-0.42l-0-0-1.59-1.58c-0.253-0.252-0.41-0.601-0.41-0.986 0-0.005 0-0.010 0-0.015v0.001c0.001-0.391 0.162-0.745 0.42-1l0-0 3.58-3.6c0.255-0.247 0.604-0.4 0.988-0.4 0.004 0 0.008 0 0.013 0h-0.001c0.389 0.002 0.742 0.158 1 0.41l0.080 0.080 1.44-1.38-0.11-0.11c-0.619-0.612-1.47-0.989-2.41-0.989s-1.791 0.378-2.41 0.99l0-0-3.59 3.58c-0.618 0.614-1 1.465-1 2.404 0 0.006 0 0.011 0 0.017v-0.001c0 0.002 0 0.005 0 0.008 0 0.936 0.383 1.782 1 2.391l0 0 1.59 1.6c0.616 0.619 1.468 1.002 2.41 1.002s1.794-0.383 2.41-1.002l0-0 3.59-3.6c0.619-0.616 1.002-1.468 1.002-2.41s-0.383-1.794-1.002-2.41l-0-0z"></path>
<path d="M21 15h-4v1.46l-0.54 0.54h-1.46v4h1.57v-3.33l2.45 2.46 1.11-1.11-2.46-2.45h3.33v-1.57z"></path>
<path d="M10 8v-4h-1.56v3.33l-2.46-2.46-1.11 1.11 2.46 2.46h-3.33v1.56h4v-1.46l0.54-0.54h1.46z"></path>
</svg>
