<?xml version="1.0" encoding="utf-8"?>
<!-- Generator: Adobe Illustrator 25.0.1, SVG Export Plug-In . SVG Version: 6.00 Build 0)  -->
<svg version="1.1" id="Symbol" xmlns="http://www.w3.org/2000/svg" xmlns:xlink="http://www.w3.org/1999/xlink" x="0px" y="0px"
	 viewBox="0 0 72 72" style="enable-background:new 0 0 72 72;" xml:space="preserve">
<path d="M47.8,16.3c-6.5,0-11.8,5.3-11.8,11.8v3.9H20.3h-3.9h-2c-1.1,0-2,0.9-2,2v19.7c0,1.1,0.9,2,2,2h27.5c1.1,0,2-0.9,2-2V34
	c0-1.1-0.9-2-2-2h-2v-3.9c0-4.3,3.5-7.9,7.9-7.9c4.3,0,7.9,3.5,7.9,7.9v3.9h3.9v-3.9C59.6,21.6,54.3,16.3,47.8,16.3z"/>
</svg>
