<!-- Generated by IcoMoon.io -->
<svg version="1.1" xmlns="http://www.w3.org/2000/svg" width="24" height="24" viewBox="0 0 24 24">
<title>user-people-bold</title>
<path d="M17.33 13.48c0.177 0.16 0.412 0.258 0.67 0.258s0.493-0.098 0.671-0.258l-0.001 0.001 0.5-0.45c0.51-0.46 0.83-1.123 0.83-1.86 0-0.003 0-0.007-0-0.010v0.001-1.16c0-1.105-0.895-2-2-2s-2 0.895-2 2v0 1.16c0.006 0.73 0.324 1.385 0.828 1.838l0.002 0.002z"></path>
<path d="M7.86 12.87c0.275 0.219 0.618 0.364 0.992 0.399l0.008 0.001h0.23c0.131-0.008 0.254-0.029 0.372-0.063l-0.012 0.003c0.254-0.069 0.475-0.186 0.663-0.342l-0.003 0.002 0.64-0.55c0.762-0.641 1.245-1.594 1.25-2.659v-1.661c0-1.657-1.343-3-3-3s-3 1.343-3 3v0 1.66c0 0.003-0 0.006-0 0.009 0 1.059 0.471 2.007 1.215 2.647l0.005 0.004z"></path>
<path d="M12.64 14.22l-1.8-0.64h-0.050c-0.476 0.415-1.104 0.669-1.79 0.669s-1.314-0.253-1.793-0.672l0.003 0.003-0.060-0.050-1.82 0.64c-1.209 0.432-2.133 1.396-2.503 2.602l-0.007 0.028-0.65 2.2h13.65l-0.7-2.21c-0.387-1.204-1.295-2.142-2.452-2.561l-0.028-0.009z"></path>
<path d="M21.45 15.94c-0.232-0.684-0.733-1.224-1.374-1.504l-0.016-0.006-0.65-0.28-0.080 0.070c-0.353 0.32-0.824 0.515-1.34 0.515s-0.987-0.196-1.342-0.517l0.002 0.002-0.080-0.070-0.65 0.28c-0.274 0.125-0.509 0.286-0.711 0.481l0.001-0.001c0.357 0.449 0.644 0.974 0.83 1.545l0.010 0.035 0.16 0.52h5.58z"></path>
</svg>
