<!-- Generated by IcoMoon.io -->
<svg version="1.1" xmlns="http://www.w3.org/2000/svg" width="24" height="24" viewBox="0 0 24 24">
<title>volume-low-bold</title>
<path d="M1.5 9c-0.828 0-1.5 0.672-1.5 1.5v0 4c0 0.828 0.672 1.5 1.5 1.5v0h3.79l6.71 6.71v-20.42l-6.71 6.71z"></path>
<path d="M17.59 8.69l-0.81-0.59-1.18 1.62 0.81 0.59c0.91 0.579 1.522 1.556 1.59 2.681l0 0.009c-0.068 1.134-0.68 2.111-1.576 2.682l-0.014 0.008-0.81 0.59 1.18 1.62 0.81-0.59c1.418-0.941 2.354-2.511 2.41-4.302l0-0.008c-0.056-1.799-0.992-3.369-2.39-4.298l-0.020-0.012z"></path>
</svg>
