<!-- Generated by IcoMoon.io -->
<svg version="1.1" xmlns="http://www.w3.org/2000/svg" width="24" height="24" viewBox="0 0 24 24">
<title>volume-medium-bold</title>
<path d="M1.5 9c-0.828 0-1.5 0.672-1.5 1.5v0 4c0 0.828 0.672 1.5 1.5 1.5v0h3.79l6.71 6.71v-20.42l-6.71 6.71z"></path>
<path d="M18.64 6.23l-0.77-0.64-1.28 1.54 0.77 0.64c1.579 1.222 2.598 3.103 2.64 5.223l0 0.007c-0.039 2.124-1.050 4.004-2.605 5.219l-0.015 0.011-0.77 0.64 1.28 1.54 0.77-0.64c2.017-1.593 3.308-4.028 3.34-6.765l0-0.005c-0.037-2.746-1.335-5.18-3.341-6.756l-0.019-0.014z"></path>
<path d="M19 13c-0.058-1.801-0.998-3.37-2.4-4.298l-0.020-0.012-0.81-0.59-1.17 1.62 0.81 0.59c0.91 0.579 1.522 1.556 1.59 2.681l0 0.009c-0.068 1.134-0.68 2.111-1.576 2.682l-0.014 0.008-0.81 0.59 1.18 1.62 0.81-0.59c1.418-0.941 2.354-2.511 2.41-4.302l0-0.008z"></path>
</svg>
