<?xml version="1.0" encoding="utf-8"?>
<!-- Generator: Adobe Illustrator 25.0.1, SVG Export Plug-In . SVG Version: 6.00 Build 0)  -->
<svg version="1.1" id="Symbol" xmlns="http://www.w3.org/2000/svg" xmlns:xlink="http://www.w3.org/1999/xlink" x="0px" y="0px"
	 viewBox="0 0 72 72" style="enable-background:new 0 0 72 72;" xml:space="preserve">
<style type="text/css">
	.st0{fill:#F4CF3D;}
</style>
<g>
	<g>
		<polygon class="st0" points="9.9,58.6 36,13.4 62.1,58.6 		"/>
		<path d="M36,16.4l23.5,40.7h-47L36,16.4 M36,11.9c-0.5,0-1,0.2-1.3,0.7L8.6,57.9c-0.6,1,0.1,2.2,1.3,2.2h52.3
			c1.2,0,1.9-1.2,1.3-2.2L37.3,12.6C37,12.1,36.5,11.9,36,11.9L36,11.9z"/>
	</g>
	<circle cx="35.9" cy="50.9" r="2.5"/>
	<path d="M32.5,31.1L34.2,45c0.1,0.9,0.9,1.6,1.8,1.6h0c0.9,0,1.7-0.7,1.8-1.6l1.8-13.9c0.3-2.1-1.4-4-3.5-4h0
		C33.8,27.1,32.2,29,32.5,31.1z"/>
</g>
</svg>
