<!-- Generated by IcoMoon.io -->
<svg version="1.1" xmlns="http://www.w3.org/2000/svg" width="24" height="24" viewBox="0 0 24 24">
<title>wifi-bold</title>
<path d="M11.5 5c-0.002 0-0.004 0-0.007 0-4.14 0-7.889 1.678-10.603 4.39l0-0 2.11 2.12c2.173-2.18 5.179-3.529 8.5-3.529s6.327 1.349 8.5 3.529l0 0 2.12-2.12c-2.714-2.712-6.463-4.39-10.603-4.39-0.006 0-0.012 0-0.018 0h0.001z"></path>
<path d="M5.14 13.64l2.12 2.12c1.086-1.087 2.587-1.76 4.245-1.76s3.159 0.673 4.245 1.76l0 0 2.12-2.12c-1.629-1.629-3.879-2.637-6.365-2.637s-4.736 1.008-6.365 2.637l-0 0z"></path>
<path d="M9.38 17.88l2.12 2.12 2.12-2.12c-0.543-0.542-1.292-0.877-2.12-0.877s-1.577 0.335-2.12 0.877l0-0z"></path>
</svg>
