<!-- Generated by IcoMoon.io -->
<svg version="1.1" xmlns="http://www.w3.org/2000/svg" width="24" height="24" viewBox="0 0 24 24">
<title>wireless-bold</title>
<path d="M11.5 11c-0.828 0-1.5 0.672-1.5 1.5s0.672 1.5 1.5 1.5c0.828 0 1.5-0.672 1.5-1.5v0c0-0.828-0.672-1.5-1.5-1.5v0z"></path>
<path d="M5.49 6.49l0.71-0.71-1.42-1.41-0.71 0.71c-1.898 1.901-3.072 4.526-3.072 7.425s1.174 5.524 3.072 7.425l0.71 0.71 1.42-1.42-0.71-0.71c-1.536-1.539-2.485-3.664-2.485-6.010s0.95-4.471 2.485-6.010l-0 0z"></path>
<path d="M18.92 5.080l-0.71-0.71-1.41 1.41 0.71 0.71c1.53 1.538 2.475 3.659 2.475 6s-0.945 4.462-2.475 6l-0.71 0.71 1.41 1.41 0.71-0.71c1.889-1.9 3.057-4.519 3.057-7.41s-1.168-5.51-3.057-7.41l0 0z"></path>
<path d="M7.61 8.61l0.71-0.71-1.42-1.41-0.7 0.71c-1.356 1.359-2.194 3.234-2.194 5.305s0.838 3.947 2.194 5.305l0.71 0.71 1.41-1.42-0.71-0.71c-0.993-0.996-1.608-2.372-1.608-3.89s0.614-2.894 1.608-3.89l-0 0z"></path>
<path d="M16.8 7.2l-0.71-0.71-1.41 1.41 0.71 0.71c0.993 0.996 1.608 2.372 1.608 3.89s-0.614 2.893-1.608 3.89l-0.71 0.71 1.41 1.41 0.71-0.71c1.353-1.358 2.189-3.231 2.189-5.3s-0.836-3.942-2.19-5.3l0 0z"></path>
<path d="M9.73 10.73l0.71-0.71-1.44-1.41-0.71 0.71c-0.813 0.814-1.316 1.938-1.316 3.18s0.503 2.366 1.316 3.18l0.71 0.71 1.44-1.39-0.71-0.71c-0.46-0.454-0.745-1.084-0.745-1.78s0.285-1.326 0.744-1.78l0-0z"></path>
<path d="M14.68 9.32l-0.68-0.71-1.44 1.39 0.71 0.71c0.454 0.453 0.734 1.079 0.734 1.77s-0.281 1.317-0.734 1.77l-0.71 0.71 1.44 1.43 0.71-0.71c0.804-0.813 1.301-1.931 1.301-3.165 0-1.249-0.509-2.379-1.331-3.195l-0-0z"></path>
</svg>
