<!-- Generated by IcoMoon.io -->
<svg version="1.1" xmlns="http://www.w3.org/2000/svg" width="24" height="24" viewBox="0 0 24 24">
<title>zoom-bold</title>
<path d="M16.31 15c1.049-1.34 1.682-3.050 1.682-4.908 0-4.418-3.582-8-8-8s-8 3.582-8 8c0 4.418 3.582 8 8 8 1.858 0 3.567-0.633 4.925-1.695l-0.018 0.013 6.6 6.59 1.41-1.41zM10 16.090c-3.314 0-6-2.686-6-6s2.686-6 6-6c3.314 0 6 2.686 6 6v0c0 3.314-2.686 6-6 6v0z"></path>
<path d="M11 7h-2v2.090h-2v2h2v1.91h2v-1.91h2v-2h-2v-2.090z"></path>
</svg>
